<svg width="800" height="800" viewBox="0 0 1010 1010"><g stroke="black" fill="white" stroke-width="1"><path d="M 5 1005 h 15 v -15 h -15 v -15 v -15 h 15 v 15 h 15 v -15 h 15 v 15 v 15 h -15 v 15 h 15 h 15 v -15 h 15 v 15 h 15 h 15 v -15 h -15 v -15 h 15 v -15 h -15 h -15 v 15 h -15 v -15 v -15 v -15 h 15 v 15 h 15 h 15 v -15 h -15 v -15 h 15 v -15 h -15 h -15 v 15 h -15 v -15 h -15 h -15 v 15 h 15 v 15 v 15 h -15 v -15 h -15 v 15 h -15 v -15 v -15 h 15 v -15 h -15 v -15 v -15 h 15 v 15 h 15 h 15 v -15 h -15 v -15 h 15 v -15 h -15 h -15 v 15 h -15 v -15 v -15 h 15 v -15 h -15 v -15 v -15 h 15 v 15 h 15 v -15 h 15 v 15 v 15 h -15 v 15 h 15 h 15 h 15 v -15 h -15 v -15 v -15 h 15 v 15 h 15 v -15 h 15 v 15 v 15 h -15 v 15 h 15 v 15 v 15 h -15 v -15 h -15 h -15 v 15 h 15 v 15 h -15 v 15 h 15 h 15 v -15 h 15 v 15 h 15 v -15 h 15 v 15 h 15 h 15 v -15 h -15 v -15 h 15 v -15 h -15 h -15 v 15 h -15 v -15 v -15 h 15 v -15 h -15 v -15 v -15 h 15 v 15 h 15 v -15 h 15 v 15 v 15 h -15 v 15 h 15 h 15 h 15 v -15 h -15 v -15 v -15 h 15 v 15 h 15 v -15 h 15 v 15 v 15 h -15 v 15 h 15 v 15 v 15 h -15 v -15 h -15 h -15 v 15 h 15 v 15 h -15 v 15 h 15 h 15 v -15 h 15 v 15 v 15 h -15 v 15 h 15 v 15 v 15 h -15 v -15 h -15 v 15 h -15 v -15 v -15 h 15 v -15 h -15 h -15 v 15 h -15 v -15 h -15 h -15 v 15 h 15 v 15 h -15 v 15 h 15 h 15 v -15 h 15 v 15 v 15 v 15 h -15 v -15 h -15 h -15 v 15 h 15 v 15 h -15 v 15 h 15 h 15 v -15 h 15 v 15 h 15 h 15 v -15 h -15 v -15 v -15 h 15 v 15 h 15 v -15 h 15 v 15 v 15 h -15 v 15 h 15 h 15 v -15 h 15 v 15 h 15 h 15 v -15 h -15 v -15 h 15 v -15 h -15 h -15 v 15 h -15 v -15 v -15 h 15 v -15 h -15 v -15 v -15 h 15 v 15 h 15 v -15 h 15 v 15 v 15 h -15 v 15 h 15 h 15 h 15 v -15 h -15 v -15 v -15 h 15 v 15 h 15 v -15 h 15 v 15 v 15 h -15 v 15 h 15 v 15 v 15 h -15 v -15 h -15 h -15 v 15 h 15 v 15 h -15 v 15 h 15 h 15 v -15 h 15 v 15 h 15 h 15 v -15 h -15 v -15 v -15 h 15 v 15 h 15 v -15 h 15 v 15 v 15 h -15 v 15 h 15 h 15 v -15 h 15 v 15 h 15 h 15 v -15 h -15 v -15 h 15 v -15 h -15 h -15 v 15 h -15 v -15 v -15 v -15 h 15 v 15 h 15 h 15 v -15 h -15 v -15 h 15 v -15 h -15 h -15 v 15 h -15 v -15 h -15 h -15 v 15 h 15 v 15 v 15 h -15 v -15 h -15 v 15 h -15 v -15 v -15 h 15 v -15 h -15 v -15 h 15 v -15 h -15 v -15 v -15 h 15 v 15 h 15 v -15 h 15 v 15 v 15 h -15 v 15 h 15 h 15 v -15 h 15 v 15 h 15 h 15 v -15 h -15 v -15 h 15 v -15 h -15 h -15 v 15 h -15 v -15 v -15 v -15 h 15 v 15 h 15 h 15 v -15 h -15 v -15 h 15 v -15 h -15 h -15 v 15 h -15 v -15 h -15 h -15 v 15 h 15 v 15 v 15 h -15 v -15 h -15 v 15 h -15 v -15 v -15 h 15 v -15 h -15 h -15 v 15 h -15 v -15 h -15 h -15 v 15 h 15 v 15 h -15 v 15 h 15 h 15 v -15 h 15 v 15 v 15 h -15 v 15 h 15 v 15 v 15 h -15 v -15 h -15 v 15 h -15 v -15 v -15 h 15 v -15 h -15 h -15 h -15 v 15 h 15 v 15 v 15 h -15 v -15 h -15 v 15 h -15 v -15 v -15 h 15 v -15 h -15 v -15 v -15 h 15 v 15 h 15 h 15 v -15 h -15 v -15 h 15 v -15 h -15 h -15 v 15 h -15 v -15 v -15 v -15 h 15 v 15 h 15 h 15 v -15 h -15 v -15 h 15 v -15 h -15 h -15 v 15 h -15 v -15 v -15 h 15 v -15 h -15 v -15 v -15 h 15 v 15 h 15 v -15 h 15 v 15 v 15 h -15 v 15 h 15 h 15 h 15 v -15 h -15 v -15 v -15 h 15 v 15 h 15 v -15 h 15 v 15 v 15 h -15 v 15 h 15 v 15 v 15 h -15 v -15 h -15 h -15 v 15 h 15 v 15 h -15 v 15 h 15 h 15 v -15 h 15 v 15 h 15 h 15 v -15 h -15 v -15 v -15 h 15 v 15 h 15 v -15 h 15 v 15 v 15 h -15 v 15 h 15 h 15 v -15 h 15 v 15 h 15 h 15 v -15 h -15 v -15 h 15 v -15 h -15 h -15 v 15 h -15 v -15 v -15 v -15 h 15 v 15 h 15 h 15 v -15 h -15 v -15 h 15 v -15 h -15 h -15 v 15 h -15 v -15 h -15 h -15 v 15 h 15 v 15 v 15 h -15 v -15 h -15 v 15 h -15 v -15 v -15 h 15 v -15 h -15 v -15 h 15 v -15 h -15 v -15 v -15 h 15 v 15 h 15 v -15 h 15 v 15 v 15 h -15 v 15 h 15 h 15 v -15 h 15 v 15 h 15 h 15 v -15 h -15 v -15 h 15 v -15 h -15 h -15 v 15 h -15 v -15 v -15 v -15 h 15 v 15 h 15 h 15 v -15 h -15 v -15 h 15 v -15 h -15 h -15 v 15 h -15 v -15 h -15 h -15 v 15 h 15 v 15 v 15 h -15 v -15 h -15 v 15 h -15 v -15 v -15 h 15 v -15 h -15 h -15 v 15 h -15 v -15 h -15 h -15 v 15 h 15 v 15 h -15 v 15 h 15 h 15 v -15 h 15 v 15 v 15 h -15 v 15 h 15 v 15 v 15 h -15 v -15 h -15 v 15 h -15 v -15 v -15 h 15 v -15 h -15 h -15 h -15 v 15 h 15 v 15 v 15 h -15 v -15 h -15 v 15 h -15 v -15 v -15 h 15 v -15 h -15 v -15 v -15 h 15 v 15 h 15 h 15 v -15 h -15 v -15 h 15 v -15 h -15 h -15 v 15 h -15 v -15 h -15 h -15 v 15 h 15 v 15 v 15 h -15 v -15 h -15 v 15 h -15 v -15 v -15 h 15 v -15 h -15 h -15 v 15 h -15 v -15 h -15 h -15 v 15 h 15 v 15 h -15 v 15 h 15 h 15 v -15 h 15 v 15 v 15 v 15 h -15 v -15 h -15 h -15 v 15 h 15 v 15 h -15 v 15 h 15 h 15 v -15 h 15 v 15 h 15 h 15 v -15 h -15 v -15 v -15 h 15 v 15 h 15 v -15 h 15 v 15 v 15 h -15 v 15 h 15 v 15 v 15 h -15 v -15 h -15 h -15 v 15 h 15 v 15 h -15 v 15 h 15 h 15 v -15 h 15 v 15 v 15 h -15 v 15 h 15 v 15 v 15 h -15 v -15 h -15 v 15 h -15 v -15 v -15 h 15 v -15 h -15 h -15 h -15 v 15 h 15 v 15 v 15 h -15 v -15 h -15 v 15 h -15 v -15 v -15 h 15 v -15 h -15 v -15 v -15 h 15 v 15 h 15 h 15 v -15 h -15 v -15 h 15 v -15 h -15 h -15 v 15 h -15 v -15 h -15 v 15 h -15 v -15 h -15 h -15 v 15 h 15 v 15 h -15 v 15 h 15 h 15 v -15 h 15 v 15 v 15 h -15 v 15 h 15 v 15 v 15 h -15 v -15 h -15 v 15 h -15 v -15 v -15 h 15 v -15 h -15 h -15 h -15 v 15 h 15 v 15 v 15 h -15 v -15 h -15 v 15 h -15 v -15 v -15 h 15 v -15 h -15 v -15 v -15 h 15 v 15 h 15 h 15 v -15 h -15 v -15 h 15 v -15 h -15 h -15 v 15 h -15 v -15 v -15 h 15 v -15 h -15 v -15 v -15 h 15 v 15 h 15 v -15 h 15 v 15 v 15 h -15 v 15 h 15 h 15 v -15 h 15 v 15 h 15 h 15 v -15 h -15 v -15 h 15 v -15 h -15 h -15 v 15 h -15 v -15 v -15 v -15 h 15 v 15 h 15 h 15 v -15 h -15 v -15 h 15 v -15 h -15 h -15 v 15 h -15 v -15 h -15 h -15 v 15 h 15 v 15 v 15 h -15 v -15 h -15 v 15 h -15 v -15 v -15 h 15 v -15 h -15 v -15 v -15 h 15 v 15 h 15 h 15 v -15 h -15 v -15 h 15 v -15 h -15 h -15 v 15 h -15 v -15 v -15 h 15 v -15 h -15 v -15 v -15 h 15 v 15 h 15 v -15 h 15 v 15 v 15 h -15 v 15 h 15 h 15 h 15 v -15 h -15 v -15 v -15 h 15 v 15 h 15 v -15 h 15 v 15 v 15 h -15 v 15 h 15 v 15 v 15 h -15 v -15 h -15 h -15 v 15 h 15 v 15 h -15 v 15 h 15 h 15 v -15 h 15 v 15 h 15 h 15 v -15 h -15 v -15 v -15 h 15 v 15 h 15 v -15 h 15 v 15 v 15 h -15 v 15 h 15 h 15 v -15 h 15 v 15 h 15 h 15 v -15 h -15 v -15 h 15 v -15 h -15 h -15 v 15 h -15 v -15 v -15 v -15 h 15 v 15 h 15 h 15 v -15 h -15 v -15 h 15 v -15 h -15 h -15 v 15 h -15 v -15 h -15 h -15 v 15 h 15 v 15 v 15 h -15 v -15 h -15 v 15 h -15 v -15 v -15 h 15 v -15 h -15 v -15 h 15 v -15 h -15 v -15 v -15 h 15 v 15 h 15 v -15 h 15 v 15 v 15 h -15 v 15 h 15 h 15 v -15 h 15 v 15 h 15 h 15 v -15 h -15 v -15 h 15 v -15 h -15 h -15 v 15 h -15 v -15 v -15 v -15 h 15 v 15 h 15 h 15 v -15 h -15 v -15 h 15 v -15 h -15 h -15 v 15 h -15 v -15 h -15 h -15 v 15 h 15 v 15 v 15 h -15 v -15 h -15 v 15 h -15 v -15 v -15 h 15 v -15 h -15 h -15 v 15 h -15 v -15 h -15 h -15 v 15 h 15 v 15 h -15 v 15 h 15 h 15 v -15 h 15 v 15 v 15 h -15 v 15 h 15 v 15 v 15 h -15 v -15 h -15 v 15 h -15 v -15 v -15 h 15 v -15 h -15 h -15 h -15 v 15 h 15 v 15 v 15 h -15 v -15 h -15 v 15 h -15 v -15 v -15 h 15 v -15 h -15 v -15 v -15 h 15 v 15 h 15 h 15 v -15 h -15 v -15 h 15 v -15 h -15 h -15 v 15 h -15 v -15 v -15 h 15 v -15 h -15 v -15 v -15 h 15 v 15 h 15 v -15 h 15 v 15 v 15 h -15 v 15 h 15 h 15 v -15 h 15 v 15 h 15 h 15 v -15 h -15 v -15 h 15 v -15 h -15 h -15 v 15 h -15 v -15 v -15 v -15 h 15 v 15 h 15 h 15 v -15 h -15 v -15 h 15 v -15 h -15 h -15 v 15 h -15 v -15 h -15 h -15 v 15 h 15 v 15 v 15 h -15 v -15 h -15 v 15 h -15 v -15 v -15 h 15 v -15 h -15 v -15 v -15 h 15 v 15 h 15 h 15 v -15 h -15 v -15 h 15 v -15 h -15 h -15 v 15 h -15 v -15 v -15 h 15 v -15 h -15 v -15 v -15 h 15 v 15 h 15 v -15 h 15 v 15 v 15 h -15 v 15 h 15 h 15 h 15 v -15 h -15 v -15 v -15 h 15 v 15 h 15 v -15 h 15 v 15 v 15 h -15 v 15 h 15 v 15 v 15 h -15 v -15 h -15 h -15 v 15 h 15 v 15 h -15 v 15 h 15 h 15 v -15 h 15 v 15 h 15 v -15 h 15 v 15 h 15 h 15 v -15 h -15 v -15 h 15 v -15 h -15 h -15 v 15 h -15 v -15 v -15 h 15 v -15 h -15 v -15 v -15 h 15 v 15 h 15 v -15 h 15 v 15 v 15 h -15 v 15 h 15 h 15 h 15 v -15 h -15 v -15 v -15 h 15 v 15 h 15 v -15 h 15 v 15 v 15 h -15 v 15 h 15 v 15 v 15 h -15 v -15 h -15 h -15 v 15 h 15 v 15 h -15 v 15 h 15 h 15 v -15 h 15 v 15 v 15 h -15 v 15 h 15 v 15 v 15 h -15 v -15 h -15 v 15 h -15 v -15 v -15 h 15 v -15 h -15 h -15 v 15 h -15 v -15 h -15 h -15 v 15 h 15 v 15 h -15 v 15 h 15 h 15 v -15 h 15 v 15 v 15 v 15 h -15 v -15 h -15 h -15 v 15 h 15 v 15 h -15 v 15 h 15 h 15 v -15 h 15 v 15 h 15 h 15 v -15 h -15 v -15 v -15 h 15 v 15 h 15 v -15 h 15 v 15 v 15 h -15 v 15 h 15 h 15 h 15 v -15 h -15 v -15 v -15 h 15 v 15 h 15 v -15 h 15 v 15 v 15 h -15 v 15 h 15 h 15 v -15 h 15 v 15 h 15 h 15 v -15 h -15 v -15 h 15 v -15 h -15 h -15 v 15 h -15 v -15 v -15 v -15 h 15 v 15 h 15 h 15 v -15 h -15 v -15 h 15 v -15 h -15 h -15 v 15 h -15 v -15 h -15 h -15 v 15 h 15 v 15 v 15 h -15 v -15 h -15 v 15 h -15 v -15 v -15 h 15 v -15 h -15 v -15 v -15 h 15 v 15 h 15 h 15 v -15 h -15 v -15 h 15 v -15 h -15 h -15 v 15 h -15 v -15 v -15 h 15 v -15 h -15 v -15 v -15 h 15 v 15 h 15 v -15 h 15 v 15 v 15 h -15 v 15 h 15 h 15 h 15 v -15 h -15 v -15 v -15 h 15 v 15 h 15 v -15 h 15 v 15 v 15 h -15 v 15 h 15 v 15 v 15 h -15 v -15 h -15 h -15 v 15 h 15 v 15 h -15 v 15 h 15 h 15 v -15 h 15 v 15 h 15 v -15 h 15 v 15 h 15 h 15 v -15 h -15 v -15 h 15 v -15 h -15 h -15 v 15 h -15 v -15 v -15 h 15 v -15 h -15 v -15 v -15 h 15 v 15 h 15 v -15 h 15 v 15 v 15 h -15 v 15 h 15 h 15 h 15 v -15 h -15 v -15 v -15 h 15 v 15 h 15 v -15 h 15 v 15 v 15 h -15 v 15 h 15 v 15 v 15 h -15 v -15 h -15 h -15 v 15 h 15 v 15 h -15 v 15 h 15 h 15 v -15 h 15 v 15 v 15 h -15 v 15 h 15 v 15 v 15 h -15 v -15 h -15 v 15 h -15 v -15 v -15 h 15 v -15 h -15 h -15 v 15 h -15 v -15 h -15 h -15 v 15 h 15 v 15 h -15 v 15 h 15 h 15 v -15 h 15 v 15 v 15 v 15 h -15 v -15 h -15 h -15 v 15 h 15 v 15 h -15 v 15 h 15 h 15 v -15 h 15 v 15 h 15 h 15 v -15 h -15 v -15 v -15 h 15 v 15 h 15 v -15 h 15 v 15 v 15 h -15 v 15 h 15 v 15 v 15 h -15 v -15 h -15 h -15 v 15 h 15 v 15 h -15 v 15 h 15 h 15 v -15 h 15 v 15 v 15 h -15 v 15 h 15 v 15 v 15 h -15 v -15 h -15 v 15 h -15 v -15 v -15 h 15 v -15 h -15 h -15 h -15 v 15 h 15 v 15 v 15 h -15 v -15 h -15 v 15 h -15 v -15 v -15 h 15 v -15 h -15 v -15 v -15 h 15 v 15 h 15 h 15 v -15 h -15 v -15 h 15 v -15 h -15 h -15 v 15 h -15 v -15 h -15 h -15 v 15 h 15 v 15 v 15 h -15 v -15 h -15 v 15 h -15 v -15 v -15 h 15 v -15 h -15 h -15 v 15 h -15 v -15 h -15 h -15 v 15 h 15 v 15 h -15 v 15 h 15 h 15 v -15 h 15 v 15 v 15 v 15 h -15 v -15 h -15 h -15 v 15 h 15 v 15 h -15 v 15 h 15 h 15 v -15 h 15 v 15 h 15 h 15 v -15 h -15 v -15 v -15 h 15 v 15 h 15 v -15 h 15 v 15 v 15 h -15 v 15 h 15 v 15 h -15 v 15 h 15 v 15 v 15 h -15 v -15 h -15 v 15 h -15 v -15 v -15 h 15 v -15 h -15 h -15 v 15 h -15 v -15 h -15 h -15 v 15 h 15 v 15 h -15 v 15 h 15 h 15 v -15 h 15 v 15 v 15 v 15 h -15 v -15 h -15 h -15 v 15 h 15 v 15 h -15 v 15 h 15 h 15 v -15 h 15 v 15 h 15 h 15 v -15 h -15 v -15 v -15 h 15 v 15 h 15 v -15 h 15 v 15 v 15 h -15 v 15 h 15 h 15 v -15 h 15 v 15 h 15 h 15 v -15 h -15 v -15 h 15 v -15 h -15 h -15 v 15 h -15 v -15 v -15 h 15 v -15 h -15 v -15 v -15 h 15 v 15 h 15 v -15 h 15 v 15 v 15 h -15 v 15 h 15 h 15 h 15 v -15 h -15 v -15 v -15 h 15 v 15 h 15 v -15 h 15 v 15 v 15 h -15 v 15 h 15 v 15 v 15 h -15 v -15 h -15 h -15 v 15 h 15 v 15 h -15 v 15 h 15 h 15 v -15 h 15 v 15 h 15 v -15 h 15 v 15 h 15 h 15 v -15 h -15 v -15 h 15 v -15 h -15 h -15 v 15 h -15 v -15 v -15 h 15 v -15 h -15 v -15 v -15 h 15 v 15 h 15 v -15 h 15 v 15 v 15 h -15 v 15 h 15 h 15 h 15 v -15 h -15 v -15 v -15 h 15 v 15 h 15 v -15 h 15 v 15 v 15 h -15 v 15 h 15 v 15 v 15 h -15 v -15 h -15 h -15 v 15 h 15 v 15 h -15 v 15 h 15 h 15 v -15 h 15 v 15 h 15 h 15 v -15 h -15 v -15 v -15 h 15 v 15 h 15 v -15 h 15 v 15 v 15 h -15 v 15 h 15 h 15 v -15 h 15 v 15 h 15 h 15 v -15 h -15 v -15 h 15 v -15 h -15 h -15 v 15 h -15 v -15 v -15 v -15 h 15 v 15 h 15 h 15 v -15 h -15 v -15 h 15 v -15 h -15 h -15 v 15 h -15 v -15 h -15 h -15 v 15 h 15 v 15 v 15 h -15 v -15 h -15 v 15 h -15 v -15 v -15 h 15 v -15 h -15 v -15 h 15 v -15 h -15 v -15 v -15 h 15 v 15 h 15 v -15 h 15 v 15 v 15 h -15 v 15 h 15 h 15 v -15 h 15 v 15 h 15 h 15 v -15 h -15 v -15 h 15 v -15 h -15 h -15 v 15 h -15 v -15 v -15 v -15 h 15 v 15 h 15 h 15 v -15 h -15 v -15 h 15 v -15 h -15 h -15 v 15 h -15 v -15 h -15 h -15 v 15 h 15 v 15 v 15 h -15 v -15 h -15 v 15 h -15 v -15 v -15 h 15 v -15 h -15 h -15 v 15 h -15 v -15 h -15 h -15 v 15 h 15 v 15 h -15 v 15 h 15 h 15 v -15 h 15 v 15 v 15 h -15 v 15 h 15 v 15 v 15 h -15 v -15 h -15 v 15 h -15 v -15 v -15 h 15 v -15 h -15 h -15 h -15 v 15 h 15 v 15 v 15 h -15 v -15 h -15 v 15 h -15 v -15 v -15 h 15 v -15 h -15 v -15 v -15 h 15 v 15 h 15 h 15 v -15 h -15 v -15 h 15 v -15 h -15 h -15 v 15 h -15 v -15 v -15 h 15 v -15 h -15 v -15 v -15 h 15 v 15 h 15 v -15 h 15 v 15 v 15 h -15 v 15 h 15 h 15 v -15 h 15 v 15 h 15 h 15 v -15 h -15 v -15 h 15 v -15 h -15 h -15 v 15 h -15 v -15 v -15 v -15 h 15 v 15 h 15 h 15 v -15 h -15 v -15 h 15 v -15 h -15 h -15 v 15 h -15 v -15 h -15 h -15 v 15 h 15 v 15 v 15 h -15 v -15 h -15 v 15 h -15 v -15 v -15 h 15 v -15 h -15 v -15 v -15 h 15 v 15 h 15 h 15 v -15 h -15 v -15 h 15 v -15 h -15 h -15 v 15 h -15 v -15 v -15 h 15 v -15 h -15 v -15 v -15 h 15 v 15 h 15 v -15 h 15 v 15 v 15 h -15 v 15 h 15 h 15 h 15 v -15 h -15 v -15 v -15 h 15 v 15 h 15 v -15 h 15 v 15 v 15 h -15 v 15 h 15 v 15 v 15 h -15 v -15 h -15 h -15 v 15 h 15 v 15 h -15 v 15 h 15 h 15 v -15 h 15 v 15 h 15 v -15 h 15 v 15 h 15 h 15 v -15 h -15 v -15 h 15 v -15 h -15 h -15 v 15 h -15 v -15 v -15 h 15 v -15 h -15 v -15 v -15 h 15 v 15 h 15 v -15 h 15 v 15 v 15 h -15 v 15 h 15 h 15 h 15 v -15 h -15 v -15 v -15 h 15 v 15 h 15 v -15 h 15 v 15 v 15 h -15 v 15 h 15 v 15 v 15 h -15 v -15 h -15 h -15 v 15 h 15 v 15 h -15 v 15 h 15 h 15 v -15 h 15 v 15 v 15 h -15 v 15 h 15 v 15 v 15 h -15 v -15 h -15 v 15 h -15 v -15 v -15 h 15 v -15 h -15 h -15 v 15 h -15 v -15 h -15 h -15 v 15 h 15 v 15 h -15 v 15 h 15 h 15 v -15 h 15 v 15 v 15 v 15 h -15 v -15 h -15 h -15 v 15 h 15 v 15 h -15 v 15 h 15 h 15 v -15 h 15 v 15 h 15 h 15 v -15 h -15 v -15 v -15 h 15 v 15 h 15 v -15 h 15 v 15 v 15 h -15 v 15 h 15 h 15 h 15 v -15 h -15 v -15 v -15 h 15 v 15 h 15 v -15 h 15 v 15 v 15 h -15 v 15 h 15 h 15 v -15 h 15 v 15 h 15 h 15 v -15 h -15 v -15 h 15 v -15 h -15 h -15 v 15 h -15 v -15 v -15 v -15 h 15 v 15 h 15 h 15 v -15 h -15 v -15 h 15 v -15 h -15 h -15 v 15 h -15 v -15 h -15 h -15 v 15 h 15 v 15 v 15 h -15 v -15 h -15 v 15 h -15 v -15 v -15 h 15 v -15 h -15 v -15 v -15 h 15 v 15 h 15 h 15 v -15 h -15 v -15 h 15 v -15 h -15 h -15 v 15 h -15 v -15 v -15 h 15 v -15 h -15 v -15 v -15 h 15 v 15 h 15 v -15 h 15 v 15 v 15 h -15 v 15 h 15 h 15 h 15 v -15 h -15 v -15 v -15 h 15 v 15 h 15 v -15 h 15 v 15 v 15 h -15 v 15 h 15 v 15 v 15 h -15 v -15 h -15 h -15 v 15 h 15 v 15 h -15 v 15 h 15 h 15 v -15 h 15 v 15 h 15 v -15 h 15 v 15 h 15 h 15 v -15 h -15 v -15 h 15 v -15 h -15 h -15 v 15 h -15 v -15 v -15 h 15 v -15 h -15 v -15 v -15 h 15 v 15 h 15 v -15 h 15 v 15 v 15 h -15 v 15 h 15 h 15 h 15 v -15 h -15 v -15 v -15 h 15 v 15 h 15 v -15 h 15 v 15 v 15 h -15 v 15 h 15 v 15 v 15 h -15 v -15 h -15 h -15 v 15 h 15 v 15 h -15 v 15 h 15 h 15 v -15 h 15 v 15 v 15 h -15 v 15 h 15 v 15 v 15 h -15 v -15 h -15 v 15 h -15 v -15 v -15 h 15 v -15 h -15 h -15 v 15 h -15 v -15 h -15 h -15 v 15 h 15 v 15 h -15 v 15 h 15 h 15 v -15 h 15 v 15 v 15 v 15 h -15 v -15 h -15 h -15 v 15 h 15 v 15 h -15 v 15 h 15 h 15 v -15 h 15 v 15 h 15 h 15 v -15 h -15 v -15 v -15 h 15 v 15 h 15 v -15 h 15 v 15 v 15 h -15 v 15 h 15 v 15 v 15 h -15 v -15 h -15 h -15 v 15 h 15 v 15 h -15 v 15 h 15 h 15 v -15 h 15 v 15 v 15 h -15 v 15 h 15 v 15 v 15 h -15 v -15 h -15 v 15 h -15 v -15 v -15 h 15 v -15 h -15 h -15 h -15 v 15 h 15 v 15 v 15 h -15 v -15 h -15 v 15 h -15 v -15 v -15 h 15 v -15 h -15 v -15 v -15 h 15 v 15 h 15 h 15 v -15 h -15 v -15 h 15 v -15 h -15 h -15 v 15 h -15 v -15 h -15 h -15 v 15 h 15 v 15 v 15 h -15 v -15 h -15 v 15 h -15 v -15 v -15 h 15 v -15 h -15 h -15 v 15 h -15 v -15 h -15 h -15 v 15 h 15 v 15 h -15 v 15 h 15 h 15 v -15 h 15 v 15 v 15 v 15 h -15 v -15 h -15 h -15 v 15 h 15 v 15 h -15 v 15 h 15 h 15 v -15 h 15 v 15 h 15 h 15 v -15 h -15 v -15 v -15 h 15 v 15 h 15 v -15 h 15 v 15 v 15 h -15 v 15 h 15 v 15 h -15 v 15 h 15 v 15 v 15 h -15 v -15 h -15 v 15 h -15 v -15 v -15 h 15 v -15 h -15 h -15 v 15 h -15 v -15 h -15 h -15 v 15 h 15 v 15 h -15 v 15 h 15 h 15 v -15 h 15 v 15 v 15 v 15 h -15 v -15 h -15 h -15 v 15 h 15 v 15 h -15 v 15 h 15 h 15 v -15 h 15 v 15 h 15 h 15 v -15 h -15 v -15 v -15 h 15 v 15 h 15 v -15 h 15 v 15 v 15 h -15 v 15 h 15 h 15 v -15 h 15 v 15 h 15 h 15 v -15 h -15 v -15 h 15 v -15 h -15 h -15 v 15 h -15 v -15 v -15 h 15 v -15 h -15 v -15 v -15 h 15 v 15 h 15 v -15 h 15 v 15 v 15 h -15 v 15 h 15 h 15 h 15 v -15 h -15 v -15 v -15 h 15 v 15 h 15 v -15 h 15 v 15 v 15 h -15 v 15 h 15 v 15 v 15 h -15 v -15 h -15 h -15 v 15 h 15 v 15 h -15 v 15 h 15 h 15 v -15 h 15 v 15 v 15 h -15 v 15 h 15 v 15 v 15 h -15 v -15 h -15 v 15 h -15 v -15 v -15 h 15 v -15 h -15 h -15 v 15 h -15 v -15 h -15 h -15 v 15 h 15 v 15 h -15 v 15 h 15 h 15 v -15 h 15 v 15 v 15 v 15 h -15 v -15 h -15 h -15 v 15 h 15 v 15 h -15 v 15 h 15 h 15 v -15 h 15 v 15 h 15 h 15 v -15 h -15 v -15 v -15 h 15 v 15 h 15 v -15 h 15 v 15 v 15 h -15 v 15 h 15 v 15 v 15 h -15 v -15 h -15 h -15 v 15 h 15 v 15 h -15 v 15 h 15 h 15 v -15 h 15 v 15 v 15 h -15 v 15 h 15 v 15 v 15 h -15 v -15 h -15 v 15 h -15 v -15 v -15 h 15 v -15 h -15 h -15 h -15 v 15 h 15 v 15 v 15 h -15 v -15 h -15 v 15 h -15 v -15 v -15 h 15 v -15 h -15 v -15 v -15 h 15 v 15 h 15 h 15 v -15 h -15 v -15 h 15 v -15 h -15 h -15 v 15 h -15 v -15 h -15 v 15 h -15 v -15 h -15 h -15 v 15 h 15 v 15 h -15 v 15 h 15 h 15 v -15 h 15 v 15 v 15 h -15 v 15 h 15 v 15 v 15 h -15 v -15 h -15 v 15 h -15 v -15 v -15 h 15 v -15 h -15 h -15 h -15 v 15 h 15 v 15 v 15 h -15 v -15 h -15 v 15 h -15 v -15 v -15 h 15 v -15 h -15 v -15 v -15 h 15 v 15 h 15 h 15 v -15 h -15 v -15 h 15 v -15 h -15 h -15 v 15 h -15 v -15 v -15 h 15 v -15 h -15 v -15 v -15 h 15 v 15 h 15 v -15 h 15 v 15 v 15 h -15 v 15 h 15 h 15 v -15 h 15 v 15 h 15 h 15 v -15 h -15 v -15 h 15 v -15 h -15 h -15 v 15 h -15 v -15 v -15 v -15 h 15 v 15 h 15 h 15 v -15 h -15 v -15 h 15 v -15 h -15 h -15 v 15 h -15 v -15 h -15 h -15 v 15 h 15 v 15 v 15 h -15 v -15 h -15 v 15 h -15 v -15 v -15 h 15 v -15 h -15 h -15 v 15 h -15 v -15 h -15 h -15 v 15 h 15 v 15 h -15 v 15 h 15 h 15 v -15 h 15 v 15 v 15 h -15 v 15 h 15 v 15 v 15 h -15 v -15 h -15 v 15 h -15 v -15 v -15 h 15 v -15 h -15 h -15 h -15 v 15 h 15 v 15 v 15 h -15 v -15 h -15 v 15 h -15 v -15 v -15 h 15 v -15 h -15 v -15 v -15 h 15 v 15 h 15 h 15 v -15 h -15 v -15 h 15 v -15 h -15 h -15 v 15 h -15 v -15 h -15 h -15 v 15 h 15 v 15 v 15 h -15 v -15 h -15 v 15 h -15 v -15 v -15 h 15 v -15 h -15 h -15 v 15 h -15 v -15 h -15 h -15 v 15 h 15 v 15 h -15 v 15 h 15 h 15 v -15 h 15 v 15 v 15 v 15 h -15 v -15 h -15 h -15 v 15 h 15 v 15 h -15 v 15 h 15 h 15 v -15 h 15 v 15 h 15 h 15 v -15 h -15 v -15 v -15 h 15 v 15 h 15 v -15 h 15 v 15 v 15 h -15 v 15 h 15 v 15 h -15 v 15 h 15 v 15 v 15 h -15 v -15 h -15 v 15 h -15 v -15 v -15 h 15 v -15 h -15 h -15 v 15 h -15 v -15 h -15 h -15 v 15 h 15 v 15 h -15 v 15 h 15 h 15 v -15 h 15 v 15 v 15 v 15 h -15 v -15 h -15 h -15 v 15 h 15 v 15 h -15 v 15 h 15 h 15 v -15 h 15 v 15 h 15 h 15 v -15 h -15 v -15 v -15 h 15 v 15 h 15 v -15 h 15 v 15 v 15 h -15 v 15 h 15 h 15 v -15 h 15 v 15 h 15 h 15 v -15 h -15 v -15 h 15 v -15 h -15 h -15 v 15 h -15 v -15 v -15 h 15 v -15 h -15 v -15 v -15 h 15 v 15 h 15 v -15 h 15 v 15 v 15 h -15 v 15 h 15 h 15 h 15 v -15 h -15 v -15 v -15 h 15 v 15 h 15 v -15 h 15 v 15 v 15 h -15 v 15 h 15 v 15 v 15 h -15 v -15 h -15 h -15 v 15 h 15 v 15 h -15 v 15 h 15 h 15 v -15 h 15 v 15 v 15 v 15 h -15 v -15 h -15 h -15 v 15 h 15 v 15 h -15 v 15 h 15 h 15 v -15 h 15 v 15 v 15 h -15 v 15 h 15 v 15 v 15 h -15 v -15 h -15 v 15 h -15 v -15 v -15 h 15 v -15 h -15 h -15 h -15 v 15 h 15 v 15 v 15 h -15 v -15 h -15 v 15 h -15 v -15 v -15 h 15 v -15 h -15 v -15 v -15 h 15 v 15 h 15 h 15 v -15 h -15 v -15 h 15 v -15 h -15 h -15 v 15 h -15 v -15 h -15 h -15 v 15 h 15 v 15 v 15 h -15 v -15 h -15 v 15 h -15 v -15 v -15 h 15 v -15 h -15 h -15 v 15 h -15 v -15 h -15 h -15 v 15 h 15 v 15 h -15 v 15 h 15 h 15 v -15 h 15 v 15 v 15 v 15 h -15 v -15 h -15 h -15 v 15 h 15 v 15 h -15 v 15 h 15 h 15 v -15 h 15 v 15 h 15 h 15 v -15 h -15 v -15 v -15 h 15 v 15 h 15 v -15 h 15 v 15 v 15 h -15 v 15 h 15 v 15 h -15 v 15 h 15 v 15 v 15 h -15 v -15 h -15 v 15 h -15 v -15 v -15 h 15 v -15 h -15 h -15 v 15 h -15 v -15 h -15 h -15 v 15 h 15 v 15 h -15 v 15 h 15 h 15 v -15 h 15 v 15 v 15 v 15 h -15 v -15 h -15 h -15 v 15 h 15 v 15 h -15 v 15 h 15 h 15 v -15 h 15 v 15 h 15 h 15 v -15 h -15 v -15 v -15 h 15 v 15 h 15 v -15 h 15 v 15 v 15 h -15 v 15 h 15 h 15 v -15 h 15 v 15 h 15 h 15 v -15 h -15 v -15 h 15 v -15 h -15 h -15 v 15 h -15 v -15 v -15 h 15 v -15 h -15 v -15 v -15 h 15 v 15 h 15 v -15 h 15 v 15 v 15 h -15 v 15 h 15 h 15 h 15 v -15 h -15 v -15 v -15 h 15 v 15 h 15 v -15 h 15 v 15 v 15 h -15 v 15 h 15 v 15 v 15 h -15 v -15 h -15 h -15 v 15 h 15 v 15 h -15 v 15 h 15 h 15 v -15 h 15 v 15 h 15 h 15 v -15 h -15 v -15 v -15 h 15 v 15 h 15 v -15 h 15 v 15 v 15 h -15 v 15 h 15 h 15 v -15 h 15 v 15 h 15 h 15 v -15 h -15 v -15 h 15 v -15 h -15 h -15 v 15 h -15 v -15 v -15 v -15 h 15 v 15 h 15 h 15 v -15 h -15 v -15 h 15 v -15 h -15 h -15 v 15 h -15 v -15 h -15 h -15 v 15 h 15 v 15 v 15 h -15 v -15 h -15 v 15 h -15 v -15 v -15 h 15 v -15 h -15 v -15 v -15 h 15 v 15 h 15 h 15 v -15 h -15 v -15 h 15 v -15 h -15 h -15 v 15 h -15 v -15 v -15 h 15 v -15 h -15 v -15 v -15 h 15 v 15 h 15 v -15 h 15 v 15 v 15 h -15 v 15 h 15 h 15 h 15 v -15 h -15 v -15 v -15 h 15 v 15 h 15 v -15 h 15 v 15 v 15 h -15 v 15 h 15 v 15 v 15 h -15 v -15 h -15 h -15 v 15 h 15 v 15 h -15 v 15 h 15 h 15 v -15 h 15 v 15 h 15 v -15 h 15 v 15 h 15 h 15 v -15 h -15 v -15 h 15 v -15 h -15 h -15 v 15 h -15 v -15 v -15 h 15 v -15 h -15 v -15 v -15 h 15 v 15 h 15 v -15 h 15 v 15 v 15 h -15 v 15 h 15 h 15 h 15 v -15 h -15 v -15 v -15 h 15 v 15 h 15 v -15 h 15 v 15 v 15 h -15 v 15 h 15 v 15 v 15 h -15 v -15 h -15 h -15 v 15 h 15 v 15 h -15 v 15 h 15 h 15 v -15 h 15 v 15 v 15 h -15 v 15 h 15 v 15 v 15 h -15 v -15 h -15 v 15 h -15 v -15 v -15 h 15 v -15 h -15 h -15 v 15 h -15 v -15 h -15 h -15 v 15 h 15 v 15 h -15 v 15 h 15 h 15 v -15 h 15 v 15 v 15 v 15 h -15 v -15 h -15 h -15 v 15 h 15 v 15 h -15 v 15 h 15 h 15 v -15 h 15 v 15 h 15 h 15 v -15 h -15 v -15 v -15 h 15 v 15 h 15 v -15 h 15 v 15 v 15 h -15 v 15 h 15 "></path></g></svg>