<svg width="800" height="600" viewBox="-50 1 50 0"><g stroke="black" fill="white"><path d="M -50 7505 L -49 7208 L -48 6917 L -47 6632 L -46 6353 L -45 6080 L -44 5813 L -43 5552 L -42 5297 L -41 5048 L -40 4805 L -39 4568 L -38 4337 L -37 4112 L -36 3893 L -35 3680 L -34 3473 L -33 3272 L -32 3077 L -31 2888 L -30 2705 L -29 2528 L -28 2357 L -27 2192 L -26 2033 L -25 1880 L -24 1733 L -23 1592 L -22 1457 L -21 1328 L -20 1205 L -19 1088 L -18 977 L -17 872 L -16 773 L -15 680 L -14 593 L -13 512 L -12 437 L -11 368 L -10 305 L -9 248 L -8 197 L -7 152 L -6 113 L -5 80 L -4 53 L -3 32 L -2 17 L -1 8 L 0 5 L 1 8 L 2 17 L 3 32 L 4 53 L 5 80 L 6 113 L 7 152 L 8 197 L 9 248 L 10 305 L 11 368 L 12 437 L 13 512 L 14 593 L 15 680 L 16 773 L 17 872 L 18 977 L 19 1088 L 20 1205 L 21 1328 L 22 1457 L 23 1592 L 24 1733 L 25 1880 L 26 2033 L 27 2192 L 28 2357 L 29 2528 L 30 2705 L 31 2888 L 32 3077 L 33 3272 L 34 3473 L 35 3680 L 36 3893 L 37 4112 L 38 4337 L 39 4568 L 40 4805 L 41 5048 L 42 5297 L 43 5552 L 44 5813 L 45 6080 L 46 6353 L 47 6632 L 48 6917 L 49 7208 L 50 7505"></path></g></svg>