<svg width="500" height="500" viewBox="0 0 110 110"><g stroke="black" fill="white" stroke-width="0.3"><path d="M 2 2 h 100 v 99 h -98 v -97 h 96 v 95 h -94 v -93 h 92 v 91 h -90 v -89 h 88 v 87 h -86 v -85 h 84 v 83 h -82 v -81 h 80 v 79 h -78 v -77 h 76 v 75 h -74 v -73 h 72 v 71 h -70 v -69 h 68 v 67 h -66 v -65 h 64 v 63 h -62 v -61 h 60 v 59 h -58 v -57 h 56 v 55 h -54 v -53 h 52 v 51 h -50 v -49 h 48 v 47 h -46 v -45 h 44 v 43 h -42 v -41 h 40 v 39 h -38 v -37 h 36 v 35 h -34 v -33 h 32 v 31 h -30 v -29 h 28 v 27 h -26 v -25 h 24 v 23 h -22 v -21 h 20 v 19 h -18 v -17 h 16 v 15 h -14 v -13 h 12 v 11 h -10 v -9 h 8 v 7 h -6 v -5 h 4 v 3 h -2 v -1 "></path></g></svg>