<?xml version="1.0" encoding="iso-8859-1"?>
<!DOCTYPE svg PUBLIC "-//W3C//DTD SVG 1.1//EN" "http://www.w3.org/Graphics/SVG/1.1/DTD/svg11.dtd">
<svg width="540" height="540"><g><line x1="40" y1="540" x2="40" stroke="black" stroke-width="1px" /> <line x1="30" y1="10" x2="40" y2="0" stroke="black" stroke-width="1px" /> <line x1="50" y1="10" x2="40" y2="0" stroke="black" stroke-width="1px" /> <text font-family="times-roman" font-size="15" stroke="blue" color="blue" fill="blue" x="10" y="15">1</text> <text font-family="times-roman" font-size="15" stroke="blue" color="blue" fill="blue" x="10" y="510">-1</text> <line x1="0" y1="250.0" x2="540" y2="250.0" stroke="black" stroke-width="1px" /> <line x1="530" y1="240.0" x2="540" y2="250.0" stroke="black" stroke-width="1px" /> <line x1="530" y1="260.0" x2="540" y2="250.0" stroke="black" stroke-width="1px" /> <text font-family="times-roman" font-size="15" stroke="blue" color="blue" fill="blue" x="530" y="275.0">1</text> <path d="M 40.0 343.75 L 40.5 343.67857142857144 L 41.0 343.6071428571429 L 41.5 343.5357142857143 L 42.0 343.4642857142857 L 42.5 343.39285714285717 L 43.0 343.32142857142856 L 43.5 343.25 L 44.0 343.17857142857144 L 44.5 343.10714285714283 L 45.0 343.0357142857143 L 45.5 342.9642857142857 L 46.0 342.8928571428571 L 46.5 342.82142857142856 L 47.0 342.75 L 47.5 342.67857142857144 L 48.0 342.6071428571429 L 48.5 342.5357142857143 L 49.0 342.4642857142857 L 49.5 342.3928571428571 L 50.0 342.32142857142856 L 50.5 342.25 L 51.0 342.17857142857144 L 51.5 342.1071428571429 L 52.0 342.0357142857143 L 52.5 341.9642857142857 L 53.0 341.8928571428571 L 53.5 341.82142857142856 L 54.0 341.75 L 54.5 341.67857142857144 L 55.0 341.6071428571429 L 55.5 341.5357142857143 L 56.0 341.4642857142857 L 56.5 341.3928571428571 L 57.0 341.32142857142856 L 57.5 341.25 L 58.0 341.17857142857144 L 58.5 341.1071428571429 L 59.0 341.0357142857143 L 59.5 340.9642857142857 L 60.0 340.89285714285717 L 60.5 340.82142857142856 L 61.0 340.75 L 61.5 340.67857142857144 L 62.0 340.6071428571429 L 62.5 340.5357142857143 L 63.0 340.4642857142857 L 63.5 340.39285714285717 L 64.0 340.32142857142856 L 64.5 340.25 L 65.0 340.17857142857144 L 65.5 340.1071428571429 L 66.0 340.0357142857143 L 66.5 339.9642857142857 L 67.0 339.8928571428571 L 67.5 339.82142857142856 L 68.0 339.75 L 68.5 339.67857142857144 L 69.0 339.6071428571429 L 69.5 339.5357142857143 L 70.0 339.4642857142857 L 70.5 339.3928571428571 L 71.0 339.32142857142856 L 71.5 339.25 L 72.0 339.17857142857144 L 72.5 339.1071428571429 L 73.0 339.0357142857143 L 73.5 338.9642857142857 L 74.0 338.8928571428571 L 74.5 338.82142857142856 L 75.0 338.75 L 75.5 338.67857142857144 L 76.0 338.6071428571429 L 76.5 338.53571428571433 L 77.0 338.4642857142857 L 77.5 338.39285714285717 L 78.0 338.32142857142856 L 78.5 338.25 L 79.0 338.17857142857144 L 79.5 338.1071428571429 L 80.0 338.0357142857143 L 80.5 337.9642857142857 L 81.0 337.89285714285717 L 81.5 337.82142857142856 L 82.0 337.75 L 82.5 337.67857142857144 L 83.0 337.6071428571429 L 83.5 337.5357142857143 L 84.0 337.4642857142857 L 84.5 337.39285714285717 L 85.0 337.32142857142856 L 85.5 337.25 L 86.0 337.17857142857144 L 86.5 337.1071428571429 L 87.0 337.0357142857143 L 87.5 336.9642857142857 L 88.0 336.8928571428571 L 88.5 336.82142857142856 L 89.0 336.75 L 89.5 336.67857142857144 L 90.0 336.6071428571429 L 90.5 336.5357142857143 L 91.0 336.4642857142857 L 91.5 336.3928571428571 L 92.0 336.32142857142856 L 92.5 336.25 L 93.0 336.17857142857144 L 93.5 336.1071428571429 L 94.0 336.03571428571433 L 94.5 335.9642857142857 L 95.0 335.89285714285717 L 95.5 335.82142857142856 L 96.0 335.75 L 96.5 335.67857142857144 L 97.0 335.6071428571429 L 97.5 335.5357142857143 L 98.0 335.4642857142857 L 98.5 335.39285714285717 L 99.0 335.32142857142856 L 99.5 335.25 L 100.0 335.17857142857144 L 100.5 335.1071428571429 L 101.0 335.0357142857143 L 101.5 334.9642857142857 L 102.0 334.89285714285717 L 102.5 334.82142857142856 L 103.0 334.75 L 103.5 334.67857142857144 L 104.0 334.6071428571429 L 104.5 334.5357142857143 L 105.0 334.4642857142857 L 105.5 334.39285714285717 L 106.0 334.32142857142856 L 106.5 334.25 L 107.0 334.17857142857144 L 107.5 334.1071428571429 L 108.0 334.0357142857143 L 108.5 333.9642857142857 L 109.0 333.8928571428571 L 109.5 333.82142857142856 L 110.0 333.75 L 110.5 333.67857142857144 L 111.0 333.6071428571429 L 111.5 333.53571428571433 L 112.0 333.4642857142857 L 112.5 333.39285714285717 L 113.0 333.32142857142856 L 113.5 333.25 L 114.0 333.17857142857144 L 114.5 333.1071428571429 L 115.0 333.03571428571433 L 115.5 332.9642857142857 L 116.0 332.89285714285717 L 116.5 332.82142857142856 L 117.0 332.75 L 117.5 332.67857142857144 L 118.0 332.6071428571429 L 118.5 332.5357142857143 L 119.0 332.4642857142857 L 119.5 332.39285714285717 L 120.0 332.32142857142856 L 120.5 332.25 L 121.0 332.17857142857144 L 121.5 332.1071428571429 L 122.0 332.0357142857143 L 122.5 331.9642857142857 L 123.0 331.89285714285717 L 123.5 331.82142857142856 L 124.0 331.75 L 124.5 331.67857142857144 L 125.0 331.6071428571429 L 125.5 331.5357142857143 L 126.0 331.4642857142857 L 126.5 331.3928571428571 L 127.0 331.32142857142856 L 127.5 331.25 L 128.0 331.17857142857144 L 128.5 331.1071428571429 L 129.0 331.03571428571433 L 129.5 330.9642857142857 L 130.0 330.89285714285717 L 130.5 330.82142857142856 L 131.0 330.75 L 131.5 330.67857142857144 L 132.0 330.6071428571429 L 132.5 330.53571428571433 L 133.0 330.4642857142857 L 133.5 330.39285714285717 L 134.0 330.32142857142856 L 134.5 330.25 L 135.0 330.17857142857144 L 135.5 330.1071428571429 L 136.0 330.03571428571433 L 136.5 329.9642857142857 L 137.0 329.89285714285717 L 137.5 329.82142857142856 L 138.0 329.75 L 138.5 329.67857142857144 L 139.0 329.6071428571429 L 139.5 329.5357142857143 L 140.0 329.4642857142857 L 140.5 329.39285714285717 L 141.0 329.32142857142856 L 141.5 329.25 L 142.0 329.17857142857144 L 142.5 329.1071428571429 L 143.0 329.0357142857143 L 143.5 328.9642857142857 L 144.0 328.89285714285717 L 144.5 328.82142857142856 L 145.0 328.75 L 145.5 328.67857142857144 L 146.0 328.6071428571429 L 146.5 328.53571428571433 L 147.0 328.4642857142857 L 147.5 328.39285714285717 L 148.0 328.32142857142856 L 148.5 328.25 L 149.0 328.17857142857144 L 149.5 328.1071428571429 L 150.0 328.0357142857143 L 150.5 327.9642857142857 L 151.0 327.8928571428571 L 151.5 327.82142857142856 L 152.0 327.75 L 152.5 327.67857142857144 L 153.0 327.6071428571429 L 153.5 327.5357142857143 L 154.0 327.46428571428567 L 154.5 327.3928571428571 L 155.0 327.32142857142856 L 155.5 327.25 L 156.0 327.17857142857144 L 156.5 327.1071428571429 L 157.0 327.0357142857143 L 157.5 326.96428571428567 L 158.0 326.8928571428571 L 158.5 326.82142857142856 L 159.0 326.75 L 159.5 326.67857142857144 L 160.0 326.6071428571429 L 160.5 326.5357142857143 L 161.0 326.46428571428567 L 161.5 326.3928571428571 L 162.0 326.32142857142856 L 162.5 326.25 L 163.0 326.17857142857144 L 163.5 326.1071428571429 L 164.0 326.0357142857143 L 164.5 325.96428571428567 L 165.0 325.8928571428571 L 165.5 325.82142857142856 L 166.0 325.75 L 166.5 325.67857142857144 L 167.0 325.6071428571429 L 167.5 325.5357142857143 L 168.0 325.46428571428567 L 168.5 325.3928571428571 L 169.0 325.32142857142856 L 169.5 325.25 L 170.0 325.17857142857144 L 170.5 325.1071428571429 L 171.0 325.0357142857143 L 171.5 324.96428571428567 L 172.0 324.8928571428571 L 172.5 324.82142857142856 L 173.0 324.75 L 173.5 324.67857142857144 L 174.0 324.6071428571429 L 174.5 324.5357142857143 L 175.0 324.46428571428567 L 175.5 324.3928571428571 L 176.0 324.32142857142856 L 176.5 324.25 L 177.0 324.17857142857144 L 177.5 324.1071428571429 L 178.0 324.0357142857143 L 178.5 323.96428571428567 L 179.0 323.8928571428571 L 179.5 323.82142857142856 L 180.0 323.75 L 180.5 323.67857142857144 L 181.0 323.6071428571429 L 181.5 323.5357142857143 L 182.0 323.46428571428567 L 182.5 323.3928571428571 L 183.0 323.32142857142856 L 183.5 323.25 L 184.0 323.17857142857144 L 184.5 323.1071428571429 L 185.0 323.0357142857143 L 185.5 322.96428571428567 L 186.0 322.8928571428571 L 186.5 322.82142857142856 L 187.0 322.75 L 187.5 322.67857142857144 L 188.0 322.6071428571429 L 188.5 322.5357142857143 L 189.0 322.46428571428567 L 189.5 322.3928571428571 L 190.0 322.32142857142856 L 190.5 322.25 L 191.0 322.17857142857144 L 191.5 322.1071428571429 L 192.0 322.0357142857143 L 192.5 321.96428571428567 L 193.0 321.8928571428571 L 193.5 321.82142857142856 L 194.0 321.75 L 194.5 321.67857142857144 L 195.0 321.6071428571429 L 195.5 321.5357142857143 L 196.0 321.46428571428567 L 196.5 321.3928571428571 L 197.0 321.32142857142856 L 197.5 321.25 L 198.0 321.17857142857144 L 198.5 321.1071428571429 L 199.0 321.0357142857143 L 199.5 320.96428571428567 L 200.0 320.8928571428571 L 200.5 320.82142857142856 L 201.0 320.75 L 201.5 320.67857142857144 L 202.0 320.6071428571429 L 202.5 320.5357142857143 L 203.0 320.46428571428567 L 203.5 320.3928571428571 L 204.0 320.32142857142856 L 204.5 320.25 L 205.0 320.17857142857144 L 205.5 320.1071428571429 L 206.0 320.0357142857143 L 206.5 319.96428571428567 L 207.0 319.8928571428571 L 207.5 319.82142857142856 L 208.0 319.75 L 208.5 319.67857142857144 L 209.0 319.6071428571429 L 209.5 319.5357142857143 L 210.0 319.46428571428567 L 210.5 319.3928571428571 L 211.0 319.32142857142856 L 211.5 319.25 L 212.0 319.17857142857144 L 212.5 319.1071428571429 L 213.0 319.0357142857143 L 213.5 318.96428571428567 L 214.0 318.8928571428571 L 214.5 318.82142857142856 L 215.0 318.75 L 215.5 318.55357142857144 L 216.0 318.3571428571429 L 216.5 318.16071428571433 L 217.0 317.96428571428567 L 217.5 317.76785714285717 L 218.0 317.57142857142856 L 218.5 317.375 L 219.0 317.17857142857144 L 219.5 316.9821428571429 L 220.0 316.7857142857143 L 220.5 316.5892857142857 L 221.0 316.3928571428571 L 221.5 316.19642857142856 L 222.0 316.0 L 222.5 315.80357142857144 L 223.0 315.6071428571429 L 223.5 315.4107142857143 L 224.0 315.2142857142857 L 224.5 315.0178571428571 L 225.0 314.82142857142856 L 225.5 314.625 L 226.0 314.42857142857144 L 226.5 314.2321428571429 L 227.0 314.0357142857143 L 227.5 313.8392857142857 L 228.0 313.6428571428571 L 228.5 313.44642857142856 L 229.0 313.25 L 229.5 313.05357142857144 L 230.0 312.8571428571429 L 230.5 312.6607142857143 L 231.0 312.46428571428567 L 231.5 312.2678571428571 L 232.0 312.07142857142856 L 232.5 311.875 L 233.0 311.67857142857144 L 233.5 311.48214285714283 L 234.0 311.2857142857143 L 234.5 311.08928571428567 L 235.0 310.8928571428571 L 235.5 310.69642857142856 L 236.0 310.5 L 236.5 310.30357142857144 L 237.0 310.1071428571429 L 237.5 309.9107142857143 L 238.0 309.7142857142857 L 238.5 309.5178571428571 L 239.0 309.32142857142856 L 239.5 309.125 L 240.0 308.92857142857144 L 240.5 308.73214285714283 L 241.0 308.53571428571433 L 241.5 308.33928571428567 L 242.0 308.14285714285717 L 242.5 307.94642857142856 L 243.0 307.75 L 243.5 307.55357142857144 L 244.0 307.3571428571429 L 244.5 307.1607142857143 L 245.0 306.9642857142857 L 245.5 306.7678571428571 L 246.0 306.57142857142856 L 246.5 306.375 L 247.0 306.17857142857144 L 247.5 305.9821428571429 L 248.0 305.7857142857143 L 248.5 305.5892857142857 L 249.0 305.3928571428571 L 249.5 305.19642857142856 L 250.0 305.0 L 250.5 304.80357142857144 L 251.0 304.6071428571429 L 251.5 304.4107142857143 L 252.0 304.2142857142857 L 252.5 304.0178571428571 L 253.0 303.82142857142856 L 253.5 303.625 L 254.0 303.42857142857144 L 254.5 303.23214285714283 L 255.0 303.03571428571433 L 255.5 302.83928571428567 L 256.0 302.64285714285717 L 256.5 302.44642857142856 L 257.0 302.25 L 257.5 302.05357142857144 L 258.0 301.8571428571429 L 258.5 301.6607142857143 L 259.0 301.4642857142857 L 259.5 301.2678571428571 L 260.0 301.07142857142856 L 260.5 300.875 L 261.0 300.67857142857144 L 261.5 300.4821428571429 L 262.0 300.2857142857143 L 262.5 300.0892857142857 L 263.0 299.8928571428571 L 263.5 299.69642857142856 L 264.0 299.5 L 264.5 299.30357142857144 L 265.0 299.1071428571429 L 265.5 298.9107142857143 L 266.0 298.7142857142857 L 266.5 298.5178571428571 L 267.0 298.32142857142856 L 267.5 298.125 L 268.0 297.92857142857144 L 268.5 297.7321428571429 L 269.0 297.53571428571433 L 269.5 297.33928571428567 L 270.0 297.14285714285717 L 270.5 296.94642857142856 L 271.0 296.75 L 271.5 296.55357142857144 L 272.0 296.35714285714283 L 272.5 296.1607142857143 L 273.0 295.96428571428567 L 273.5 295.7678571428571 L 274.0 295.57142857142856 L 274.5 295.375 L 275.0 295.17857142857144 L 275.5 294.9821428571429 L 276.0 294.7857142857143 L 276.5 294.5892857142857 L 277.0 294.3928571428571 L 277.5 294.19642857142856 L 278.0 294.0 L 278.5 293.80357142857144 L 279.0 293.60714285714283 L 279.5 293.41071428571433 L 280.0 293.21428571428567 L 280.5 293.01785714285717 L 281.0 292.82142857142856 L 281.5 292.625 L 282.0 292.42857142857144 L 282.5 292.2321428571429 L 283.0 292.0357142857143 L 283.5 291.8392857142857 L 284.0 291.6428571428571 L 284.5 291.44642857142856 L 285.0 291.25 L 285.5 291.05357142857144 L 286.0 290.8571428571429 L 286.5 290.6607142857143 L 287.0 290.4642857142857 L 287.5 290.2678571428571 L 288.0 290.07142857142856 L 288.5 289.875 L 289.0 289.67857142857144 L 289.5 289.4821428571429 L 290.0 289.2857142857143 L 290.5 289.0892857142857 L 291.0 288.8928571428571 L 291.5 288.69642857142856 L 292.0 288.5 L 292.5 288.30357142857144 L 293.0 288.1071428571429 L 293.5 287.91071428571433 L 294.0 287.71428571428567 L 294.5 287.51785714285717 L 295.0 287.32142857142856 L 295.5 287.125 L 296.0 286.92857142857144 L 296.5 286.7321428571429 L 297.0 286.5357142857143 L 297.5 286.3392857142857 L 298.0 286.1428571428571 L 298.5 285.94642857142856 L 299.0 285.75 L 299.5 285.55357142857144 L 300.0 285.3571428571429 L 300.5 285.16071428571433 L 301.0 284.9642857142857 L 301.5 284.7678571428571 L 302.0 284.57142857142856 L 302.5 284.375 L 303.0 284.17857142857144 L 303.5 283.9821428571429 L 304.0 283.7857142857143 L 304.5 283.5892857142857 L 305.0 283.3928571428571 L 305.5 283.19642857142856 L 306.0 283.0 L 306.5 282.80357142857144 L 307.0 282.6071428571429 L 307.5 282.41071428571433 L 308.0 282.21428571428567 L 308.5 282.01785714285717 L 309.0 281.82142857142856 L 309.5 281.625 L 310.0 281.42857142857144 L 310.5 281.2321428571429 L 311.0 281.0357142857143 L 311.5 280.83928571428567 L 312.0 280.6428571428571 L 312.5 280.44642857142856 L 313.0 280.25 L 313.5 280.05357142857144 L 314.0 279.8571428571429 L 314.5 279.6607142857143 L 315.0 279.4642857142857 L 315.5 279.2678571428571 L 316.0 279.07142857142856 L 316.5 278.875 L 317.0 278.67857142857144 L 317.5 278.48214285714283 L 318.0 278.2857142857143 L 318.5 278.08928571428567 L 319.0 277.8928571428571 L 319.5 277.69642857142856 L 320.0 277.5 L 320.5 277.30357142857144 L 321.0 277.1071428571429 L 321.5 276.9107142857143 L 322.0 276.7142857142857 L 322.5 276.5178571428571 L 323.0 276.32142857142856 L 323.5 276.125 L 324.0 275.92857142857144 L 324.5 275.7321428571429 L 325.0 275.5357142857143 L 325.5 275.3392857142857 L 326.0 275.1428571428571 L 326.5 274.94642857142856 L 327.0 274.75 L 327.5 274.55357142857144 L 328.0 274.3571428571429 L 328.5 274.1607142857143 L 329.0 273.9642857142857 L 329.5 273.7678571428571 L 330.0 273.57142857142856 L 330.5 273.375 L 331.0 273.17857142857144 L 331.5 272.9821428571429 L 332.0 272.78571428571433 L 332.5 272.58928571428567 L 333.0 272.39285714285717 L 333.5 272.19642857142856 L 334.0 272.0 L 334.5 271.80357142857144 L 335.0 271.6071428571429 L 335.5 271.4107142857143 L 336.0 271.2142857142857 L 336.5 271.0178571428571 L 337.0 270.82142857142856 L 337.5 270.625 L 338.0 270.42857142857144 L 338.5 270.2321428571429 L 339.0 270.03571428571433 L 339.5 269.8392857142857 L 340.0 269.6428571428571 L 340.5 269.44642857142856 L 341.0 269.25 L 341.5 269.05357142857144 L 342.0 268.8571428571429 L 342.5 268.6607142857143 L 343.0 268.4642857142857 L 343.5 268.2678571428571 L 344.0 268.07142857142856 L 344.5 267.875 L 345.0 267.67857142857144 L 345.5 267.4821428571429 L 346.0 267.28571428571433 L 346.5 267.0892857142857 L 347.0 266.89285714285717 L 347.5 266.69642857142856 L 348.0 266.5 L 348.5 266.30357142857144 L 349.0 266.1071428571429 L 349.5 265.9107142857143 L 350.0 265.7142857142857 L 350.5 265.5178571428571 L 351.0 265.32142857142856 L 351.5 265.125 L 352.0 264.92857142857144 L 352.5 264.7321428571429 L 353.0 264.5357142857143 L 353.5 264.3392857142857 L 354.0 264.1428571428571 L 354.5 263.94642857142856 L 355.0 263.75 L 355.5 263.55357142857144 L 356.0 263.35714285714283 L 356.5 263.1607142857143 L 357.0 262.96428571428567 L 357.5 262.7678571428571 L 358.0 262.57142857142856 L 358.5 262.375 L 359.0 262.17857142857144 L 359.5 261.9821428571429 L 360.0 261.7857142857143 L 360.5 261.5892857142857 L 361.0 261.3928571428571 L 361.5 261.19642857142856 L 362.0 261.0 L 362.5 260.80357142857144 L 363.0 260.6071428571429 L 363.5 260.4107142857143 L 364.0 260.21428571428567 L 364.5 260.0178571428571 L 365.0 259.82142857142856 L 365.5 259.625 L 366.0 259.42857142857144 L 366.5 259.2321428571429 L 367.0 259.0357142857143 L 367.5 258.8392857142857 L 368.0 258.6428571428571 L 368.5 258.44642857142856 L 369.0 258.25 L 369.5 258.05357142857144 L 370.0 257.8571428571429 L 370.5 257.66071428571433 L 371.0 257.46428571428567 L 371.5 257.2678571428571 L 372.0 257.07142857142856 L 372.5 256.875 L 373.0 256.67857142857144 L 373.5 256.4821428571429 L 374.0 256.2857142857143 L 374.5 256.0892857142857 L 375.0 255.89285714285714 L 375.5 255.69642857142858 L 376.0 255.5 L 376.5 255.30357142857144 L 377.0 255.10714285714286 L 377.5 254.9107142857143 L 378.0 254.71428571428572 L 378.5 254.51785714285714 L 379.0 254.32142857142856 L 379.5 254.125 L 380.0 253.92857142857142 L 380.5 253.73214285714286 L 381.0 253.53571428571428 L 381.5 253.33928571428572 L 382.0 253.14285714285714 L 382.5 252.94642857142858 L 383.0 252.75 L 383.5 252.55357142857144 L 384.0 252.35714285714286 L 384.5 252.1607142857143 L 385.0 251.96428571428572 L 385.5 251.76785714285717 L 386.0 251.57142857142858 L 386.5 251.375 L 387.0 251.17857142857142 L 387.5 250.98214285714286 L 388.0 250.78571428571428 L 388.5 250.58928571428572 L 389.0 250.39285714285714 L 389.5 250.19642857142858 L 390.0 250.0 L 390.5 249.47916666666663 L 391.0 248.95833333333334 L 391.5 248.43749999999997 L 392.0 247.91666666666669 L 392.5 247.39583333333331 L 393.0 246.875 L 393.5 246.35416666666666 L 394.0 245.83333333333334 L 394.5 245.3125 L 395.0 244.79166666666669 L 395.5 244.27083333333331 L 396.0 243.75 L 396.5 243.22916666666669 L 397.0 242.70833333333337 L 397.5 242.1875 L 398.0 241.66666666666663 L 398.5 241.14583333333331 L 399.0 240.625 L 399.5 240.10416666666669 L 400.0 239.58333333333331 L 400.5 239.0625 L 401.0 238.54166666666663 L 401.5 238.02083333333337 L 402.0 237.5 L 402.5 236.97916666666669 L 403.0 236.45833333333331 L 403.5 235.9375 L 404.0 235.41666666666669 L 404.5 234.89583333333337 L 405.0 234.375 L 405.5 233.85416666666669 L 406.0 233.33333333333331 L 406.5 232.8125 L 407.0 232.29166666666669 L 407.5 231.77083333333331 L 408.0 231.25 L 408.5 230.72916666666663 L 409.0 230.20833333333337 L 409.5 229.6875 L 410.0 229.16666666666669 L 410.5 228.64583333333331 L 411.0 228.125 L 411.5 227.60416666666669 L 412.0 227.08333333333331 L 412.5 226.5625 L 413.0 226.04166666666669 L 413.5 225.52083333333331 L 414.0 225.0 L 414.5 224.47916666666669 L 415.0 223.95833333333331 L 415.5 223.4375 L 416.0 222.91666666666663 L 416.5 222.39583333333337 L 417.0 221.875 L 417.5 221.35416666666669 L 418.0 220.83333333333331 L 418.5 220.3125 L 419.0 219.79166666666669 L 419.5 219.27083333333337 L 420.0 218.75 L 420.5 218.4375 L 421.0 218.125 L 421.5 217.8125 L 422.0 217.5 L 422.5 217.1875 L 423.0 216.875 L 423.5 216.5625 L 424.0 216.25 L 424.5 215.9375 L 425.0 215.625 L 425.5 215.3125 L 426.0 214.99999999999994 L 426.5 214.6875 L 427.0 214.375 L 427.5 214.0625 L 428.0 213.75 L 428.5 213.4375 L 429.0 213.125 L 429.5 212.8125 L 430.0 212.5 L 430.5 212.1875 L 431.0 211.875 L 431.5 211.5625 L 432.0 211.25 L 432.5 210.9375 L 433.0 210.625 L 433.5 210.3125 L 434.0 210.0 L 434.5 209.6875 L 435.0 209.375 L 435.5 209.0625 L 436.0 208.75 L 436.5 208.4375 L 437.0 208.125 L 437.5 207.8125 L 438.0 207.5 L 438.5 207.18749999999994 L 439.0 206.875 L 439.5 206.5625 L 440.0 206.25 L 440.5 206.375 L 441.0 206.5 L 441.5 206.625 L 442.0 206.75 L 442.5 206.875 L 443.0 207.0 L 443.5 207.125 L 444.0 207.25 L 444.5 207.375 L 445.0 207.5 L 445.5 207.625 L 446.0 207.75 L 446.5 207.875 L 447.0 208.0 L 447.5 208.125 L 448.0 208.25 L 448.5 208.375 L 449.0 208.5 L 449.5 208.625 L 450.0 208.75 L 450.5 208.87500000000006 L 451.0 209.0 L 451.5 209.125 L 452.0 209.25 L 452.5 209.375 L 453.0 209.5 L 453.5 209.625 L 454.0 209.75 L 454.5 209.87500000000006 L 455.0 210.0 L 455.5 210.125 L 456.0 210.25 L 456.5 210.375 L 457.0 210.5 L 457.5 210.625 L 458.0 210.75 L 458.5 210.875 L 459.0 211.0 L 459.5 211.125 L 460.0 211.25 L 460.5 211.375 L 461.0 211.5 L 461.5 211.625 L 462.0 211.75 L 462.5 211.875 L 463.0 212.0 L 463.5 212.125 L 464.0 212.25 L 464.5 212.375 L 465.0 212.5 L 465.5 212.875 L 466.0 213.25 L 466.5 213.625 L 467.0 214.0 L 467.5 214.375 L 468.0 214.75 L 468.5 215.125 L 469.0 215.5 L 469.5 215.875 L 470.0 216.25 L 470.5 216.625 L 471.0 216.99999999999994 L 471.5 217.375 L 472.0 217.75 L 472.5 218.125 L 473.0 218.5 L 473.5 218.875 L 474.0 219.25 L 474.5 219.625 L 475.0 220.0 L 475.5 220.375 L 476.0 220.75 L 476.5 221.125 L 477.0 221.5 L 477.5 221.875 L 478.0 222.25 L 478.5 222.625 L 479.0 223.0 L 479.5 223.375 L 480.0 223.75 L 480.5 224.125 L 481.0 224.5 L 481.5 224.875 L 482.0 225.25 L 482.5 225.625 L 483.0 226.0 L 483.5 226.375 L 484.0 226.75 L 484.5 227.125 L 485.0 227.5 L 485.5 227.875 L 486.0 228.25 L 486.5 228.625 L 487.0 229.0 L 487.5 229.375 L 488.0 229.75 L 488.5 230.125 L 489.0 230.5 L 489.5 230.875 L 490.0 231.25 L 490.5 231.4375 L 491.0 231.625 L 491.5 231.8125 L 492.0 232.0 L 492.5 232.1875 L 493.0 232.375 L 493.5 232.5625 L 494.0 232.75 L 494.5 232.9375 L 495.0 233.125 L 495.5 233.3125 L 496.0 233.5 L 496.5 233.6875 L 497.0 233.875 L 497.5 234.0625 L 498.0 234.25 L 498.5 234.4375 L 499.0 234.625 L 499.5 234.8125 L 500.0 235.0 L 500.5 235.1875 L 501.0 235.375 L 501.5 235.5625 L 502.0 235.75 L 502.5 235.9375 L 503.0 236.125 L 503.5 236.3125 L 504.0 236.5 L 504.5 236.6875 L 505.0 236.875 L 505.5 237.0625 L 506.0 237.25 L 506.5 237.4375 L 507.0 237.625 L 507.5 237.8125 L 508.0 238.0 L 508.5 238.1875 L 509.0 238.375 L 509.5 238.5625 L 510.0 238.75 L 510.5 238.9375 L 511.0 239.125 L 511.5 239.3125 L 512.0 239.5 L 512.5 239.6875 L 513.0 239.875 L 513.5 240.0625 L 514.0 240.25 L 514.5 240.4375 L 515.0 240.625 L 515.5 240.8125 L 516.0 241.0 L 516.5 241.1875 L 517.0 241.375 L 517.5 241.5625 L 518.0 241.75 L 518.5 241.9375 L 519.0 242.125 L 519.5 242.3125 L 520.0 242.5 L 520.5 242.6875 L 521.0 242.875 L 521.5 243.0625 L 522.0 243.25 L 522.5 243.4375 L 523.0 243.625 L 523.5 243.8125 L 524.0 244.0 L 524.5 244.1875 L 525.0 244.375 L 525.5 244.56250000000003 L 526.0 244.75000000000003 L 526.5 244.93749999999997 L 527.0 245.12499999999997 L 527.5 245.3125 L 528.0 245.5 L 528.5 245.6875 L 529.0 245.875 L 529.5 246.06250000000003 L 530.0 246.25000000000003 L 530.5 246.43749999999997 L 531.0 246.62499999999997 L 531.5 246.8125 L 532.0 247.0 L 532.5 247.1875 L 533.0 247.375 L 533.5 247.56250000000003 L 534.0 247.75000000000003 L 534.5 247.93749999999997 L 535.0 248.12499999999997 L 535.5 248.3125 L 536.0 248.5 L 536.5 248.6875 L 537.0 248.875 L 537.5 249.06250000000003 L 538.0 249.25000000000003 L 538.5 249.43749999999997 L 539.0 249.625 L 539.5 249.8125 L 540.0 250.0 " stroke="red" stroke-width="2px" fill="none" /></g></svg>