<?xml version="1.0" encoding="iso-8859-1"?>
<!DOCTYPE svg PUBLIC "-//W3C//DTD SVG 1.1//EN" "http://www.w3.org/Graphics/SVG/1.1/DTD/svg11.dtd">
<svg width="540" height="540"><g><line x1="40" y1="540" x2="40" stroke="black" stroke-width="1px" /> <line x1="30" y1="10" x2="40" y2="0" stroke="black" stroke-width="1px" /> <line x1="50" y1="10" x2="40" y2="0" stroke="black" stroke-width="1px" /> <text font-family="times-roman" font-size="15" stroke="blue" color="blue" fill="blue" x="10" y="15">1</text> <text font-family="times-roman" font-size="15" stroke="blue" color="blue" fill="blue" x="10" y="510">-1</text> <line x1="0" y1="250.0" x2="540" y2="250.0" stroke="black" stroke-width="1px" /> <line x1="530" y1="240.0" x2="540" y2="250.0" stroke="black" stroke-width="1px" /> <line x1="530" y1="260.0" x2="540" y2="250.0" stroke="black" stroke-width="1px" /> <text font-family="times-roman" font-size="15" stroke="blue" color="blue" fill="blue" x="530" y="275.0">1</text> <path d="M 40.0 312.5 L 40.5 312.45000000000005 L 41.0 312.4 L 41.5 312.35 L 42.0 312.29999999999995 L 42.5 312.25 L 43.0 312.20000000000005 L 43.5 312.15 L 44.0 312.1 L 44.5 312.04999999999995 L 45.0 312.0 L 45.5 311.95000000000005 L 46.0 311.9 L 46.5 311.85 L 47.0 311.79999999999995 L 47.5 311.75 L 48.0 311.70000000000005 L 48.5 311.65 L 49.0 311.6 L 49.5 311.54999999999995 L 50.0 311.5 L 50.5 311.45000000000005 L 51.0 311.4 L 51.5 311.35 L 52.0 311.29999999999995 L 52.5 311.25 L 53.0 311.20000000000005 L 53.5 311.15 L 54.0 311.1 L 54.5 311.04999999999995 L 55.0 311.0 L 55.5 310.95000000000005 L 56.0 310.9 L 56.5 310.85 L 57.0 310.79999999999995 L 57.5 310.75 L 58.0 310.70000000000005 L 58.5 310.65 L 59.0 310.6 L 59.5 310.54999999999995 L 60.0 310.5 L 60.5 310.45000000000005 L 61.0 310.4 L 61.5 310.35 L 62.0 310.29999999999995 L 62.5 310.25 L 63.0 310.20000000000005 L 63.5 310.15 L 64.0 310.1 L 64.5 310.04999999999995 L 65.0 310.0 L 65.5 309.95000000000005 L 66.0 309.9 L 66.5 309.85 L 67.0 309.79999999999995 L 67.5 309.75 L 68.0 309.70000000000005 L 68.5 309.65 L 69.0 309.6 L 69.5 309.54999999999995 L 70.0 309.5 L 70.5 309.45 L 71.0 309.4 L 71.5 309.35 L 72.0 309.29999999999995 L 72.5 309.25 L 73.0 309.2 L 73.5 309.15 L 74.0 309.1 L 74.5 309.04999999999995 L 75.0 309.0 L 75.5 308.95 L 76.0 308.9 L 76.5 308.85 L 77.0 308.79999999999995 L 77.5 308.75 L 78.0 308.7 L 78.5 308.65 L 79.0 308.6 L 79.5 308.54999999999995 L 80.0 308.5 L 80.5 308.45 L 81.0 308.4 L 81.5 308.35 L 82.0 308.29999999999995 L 82.5 308.25 L 83.0 308.2 L 83.5 308.15 L 84.0 308.1 L 84.5 308.04999999999995 L 85.0 308.0 L 85.5 307.95 L 86.0 307.9 L 86.5 307.85 L 87.0 307.79999999999995 L 87.5 307.75 L 88.0 307.7 L 88.5 307.65 L 89.0 307.6 L 89.5 307.54999999999995 L 90.0 307.5 L 90.5 307.45 L 91.0 307.4 L 91.5 307.35 L 92.0 307.29999999999995 L 92.5 307.25 L 93.0 307.2 L 93.5 307.15 L 94.0 307.1 L 94.5 307.04999999999995 L 95.0 307.0 L 95.5 306.95 L 96.0 306.9 L 96.5 306.85 L 97.0 306.8 L 97.5 306.75 L 98.0 306.7 L 98.5 306.65 L 99.0 306.6 L 99.5 306.54999999999995 L 100.0 306.5 L 100.5 306.45 L 101.0 306.4 L 101.5 306.35 L 102.0 306.3 L 102.5 306.25 L 103.0 306.2 L 103.5 306.15 L 104.0 306.1 L 104.5 306.04999999999995 L 105.0 306.0 L 105.5 305.95 L 106.0 305.9 L 106.5 305.85 L 107.0 305.8 L 107.5 305.75 L 108.0 305.7 L 108.5 305.65 L 109.0 305.6 L 109.5 305.54999999999995 L 110.0 305.5 L 110.5 305.45 L 111.0 305.4 L 111.5 305.35 L 112.0 305.3 L 112.5 305.25 L 113.0 305.2 L 113.5 305.15 L 114.0 305.1 L 114.5 305.04999999999995 L 115.0 305.0 L 115.5 304.95 L 116.0 304.9 L 116.5 304.85 L 117.0 304.8 L 117.5 304.75 L 118.0 304.7 L 118.5 304.65 L 119.0 304.6 L 119.5 304.54999999999995 L 120.0 304.5 L 120.5 304.45 L 121.0 304.4 L 121.5 304.35 L 122.0 304.3 L 122.5 304.25 L 123.0 304.2 L 123.5 304.15 L 124.0 304.1 L 124.5 304.04999999999995 L 125.0 304.0 L 125.5 303.95 L 126.0 303.9 L 126.5 303.85 L 127.0 303.8 L 127.5 303.75 L 128.0 303.7 L 128.5 303.65 L 129.0 303.6 L 129.5 303.54999999999995 L 130.0 303.5 L 130.5 303.45 L 131.0 303.4 L 131.5 303.35 L 132.0 303.3 L 132.5 303.25 L 133.0 303.2 L 133.5 303.15 L 134.0 303.1 L 134.5 303.04999999999995 L 135.0 303.0 L 135.5 302.95 L 136.0 302.9 L 136.5 302.85 L 137.0 302.8 L 137.5 302.75 L 138.0 302.7 L 138.5 302.65 L 139.0 302.6 L 139.5 302.54999999999995 L 140.0 302.5 L 140.5 302.45 L 141.0 302.4 L 141.5 302.35 L 142.0 302.3 L 142.5 302.25 L 143.0 302.2 L 143.5 302.15 L 144.0 302.1 L 144.5 302.04999999999995 L 145.0 302.0 L 145.5 301.95 L 146.0 301.9 L 146.5 301.85 L 147.0 301.8 L 147.5 301.75 L 148.0 301.7 L 148.5 301.65 L 149.0 301.6 L 149.5 301.54999999999995 L 150.0 301.5 L 150.5 301.45 L 151.0 301.4 L 151.5 301.35 L 152.0 301.3 L 152.5 301.25 L 153.0 301.2 L 153.5 301.15 L 154.0 301.1 L 154.5 301.04999999999995 L 155.0 301.0 L 155.5 300.95 L 156.0 300.9 L 156.5 300.85 L 157.0 300.8 L 157.5 300.75 L 158.0 300.7 L 158.5 300.65 L 159.0 300.6 L 159.5 300.54999999999995 L 160.0 300.5 L 160.5 300.45 L 161.0 300.4 L 161.5 300.35 L 162.0 300.3 L 162.5 300.25 L 163.0 300.2 L 163.5 300.15 L 164.0 300.1 L 164.5 300.04999999999995 L 165.0 300.0 L 165.5 299.95 L 166.0 299.9 L 166.5 299.85 L 167.0 299.8 L 167.5 299.75 L 168.0 299.7 L 168.5 299.65 L 169.0 299.6 L 169.5 299.54999999999995 L 170.0 299.5 L 170.5 299.45 L 171.0 299.4 L 171.5 299.35 L 172.0 299.3 L 172.5 299.25 L 173.0 299.2 L 173.5 299.15 L 174.0 299.1 L 174.5 299.05 L 175.0 299.0 L 175.5 298.95 L 176.0 298.9 L 176.5 298.85 L 177.0 298.8 L 177.5 298.75 L 178.0 298.7 L 178.5 298.65 L 179.0 298.6 L 179.5 298.55 L 180.0 298.5 L 180.5 298.45 L 181.0 298.4 L 181.5 298.35 L 182.0 298.3 L 182.5 298.25 L 183.0 298.2 L 183.5 298.15 L 184.0 298.1 L 184.5 298.05 L 185.0 298.0 L 185.5 297.95 L 186.0 297.9 L 186.5 297.85 L 187.0 297.8 L 187.5 297.75 L 188.0 297.7 L 188.5 297.65 L 189.0 297.6 L 189.5 297.55 L 190.0 297.5 L 190.5 297.45 L 191.0 297.4 L 191.5 297.35 L 192.0 297.3 L 192.5 297.25 L 193.0 297.2 L 193.5 297.15 L 194.0 297.1 L 194.5 297.05 L 195.0 297.0 L 195.5 296.95 L 196.0 296.9 L 196.5 296.85 L 197.0 296.8 L 197.5 296.75 L 198.0 296.7 L 198.5 296.65 L 199.0 296.6 L 199.5 296.55 L 200.0 296.5 L 200.5 296.45 L 201.0 296.4 L 201.5 296.35 L 202.0 296.3 L 202.5 296.25 L 203.0 296.2 L 203.5 296.15 L 204.0 296.1 L 204.5 296.05 L 205.0 296.0 L 205.5 295.95 L 206.0 295.9 L 206.5 295.85 L 207.0 295.8 L 207.5 295.75 L 208.0 295.7 L 208.5 295.65 L 209.0 295.6 L 209.5 295.55 L 210.0 295.5 L 210.5 295.45 L 211.0 295.4 L 211.5 295.35 L 212.0 295.3 L 212.5 295.25 L 213.0 295.2 L 213.5 295.15 L 214.0 295.1 L 214.5 295.05 L 215.0 295.0 L 215.5 294.95 L 216.0 294.9 L 216.5 294.85 L 217.0 294.8 L 217.5 294.75 L 218.0 294.7 L 218.5 294.65 L 219.0 294.6 L 219.5 294.55 L 220.0 294.5 L 220.5 294.45 L 221.0 294.4 L 221.5 294.35 L 222.0 294.3 L 222.5 294.25 L 223.0 294.20000000000005 L 223.5 294.15 L 224.0 294.1 L 224.5 294.05 L 225.0 294.0 L 225.5 293.95 L 226.0 293.9 L 226.5 293.85 L 227.0 293.8 L 227.5 293.75 L 228.0 293.70000000000005 L 228.5 293.65 L 229.0 293.6 L 229.5 293.55 L 230.0 293.5 L 230.5 293.45 L 231.0 293.4 L 231.5 293.35 L 232.0 293.3 L 232.5 293.25 L 233.0 293.20000000000005 L 233.5 293.15 L 234.0 293.1 L 234.5 293.05 L 235.0 293.0 L 235.5 292.95 L 236.0 292.9 L 236.5 292.85 L 237.0 292.8 L 237.5 292.75 L 238.0 292.70000000000005 L 238.5 292.65 L 239.0 292.6 L 239.5 292.55 L 240.0 292.5 L 240.5 292.45 L 241.0 292.4 L 241.5 292.35 L 242.0 292.3 L 242.5 292.25 L 243.0 292.20000000000005 L 243.5 292.15 L 244.0 292.1 L 244.5 292.05 L 245.0 292.0 L 245.5 291.95 L 246.0 291.9 L 246.5 291.85 L 247.0 291.8 L 247.5 291.75 L 248.0 291.70000000000005 L 248.5 291.65 L 249.0 291.6 L 249.5 291.55 L 250.0 291.5 L 250.5 291.45 L 251.0 291.4 L 251.5 291.35 L 252.0 291.3 L 252.5 291.25 L 253.0 291.20000000000005 L 253.5 291.15 L 254.0 291.1 L 254.5 291.05 L 255.0 291.0 L 255.5 290.95 L 256.0 290.9 L 256.5 290.85 L 257.0 290.8 L 257.5 290.75 L 258.0 290.70000000000005 L 258.5 290.65 L 259.0 290.6 L 259.5 290.55 L 260.0 290.5 L 260.5 290.45 L 261.0 290.4 L 261.5 290.35 L 262.0 290.3 L 262.5 290.25 L 263.0 290.20000000000005 L 263.5 290.15 L 264.0 290.1 L 264.5 290.05 L 265.0 290.0 L 265.5 289.95 L 266.0 289.9 L 266.5 289.85 L 267.0 289.8 L 267.5 289.75 L 268.0 289.70000000000005 L 268.5 289.65 L 269.0 289.6 L 269.5 289.55 L 270.0 289.5 L 270.5 289.45 L 271.0 289.4 L 271.5 289.35 L 272.0 289.3 L 272.5 289.25 L 273.0 289.20000000000005 L 273.5 289.15 L 274.0 289.1 L 274.5 289.05 L 275.0 289.0 L 275.5 288.95 L 276.0 288.9 L 276.5 288.85 L 277.0 288.8 L 277.5 288.75 L 278.0 288.70000000000005 L 278.5 288.65 L 279.0 288.6 L 279.5 288.55 L 280.0 288.5 L 280.5 288.45 L 281.0 288.4 L 281.5 288.35 L 282.0 288.3 L 282.5 288.25 L 283.0 288.20000000000005 L 283.5 288.15 L 284.0 288.1 L 284.5 288.05 L 285.0 288.0 L 285.5 287.95 L 286.0 287.9 L 286.5 287.85 L 287.0 287.8 L 287.5 287.75 L 288.0 287.70000000000005 L 288.5 287.65 L 289.0 287.6 L 289.5 287.55 L 290.0 287.5 L 290.5 287.42499999999995 L 291.0 287.35 L 291.5 287.275 L 292.0 287.20000000000005 L 292.5 287.125 L 293.0 287.05 L 293.5 286.975 L 294.0 286.9 L 294.5 286.825 L 295.0 286.75 L 295.5 286.675 L 296.0 286.6 L 296.5 286.525 L 297.0 286.45000000000005 L 297.5 286.375 L 298.0 286.3 L 298.5 286.225 L 299.0 286.15 L 299.5 286.075 L 300.0 286.0 L 300.5 285.92499999999995 L 301.0 285.85 L 301.5 285.775 L 302.0 285.70000000000005 L 302.5 285.625 L 303.0 285.55 L 303.5 285.475 L 304.0 285.4 L 304.5 285.325 L 305.0 285.25 L 305.5 285.175 L 306.0 285.1 L 306.5 285.025 L 307.0 284.95000000000005 L 307.5 284.875 L 308.0 284.8 L 308.5 284.725 L 309.0 284.65 L 309.5 284.575 L 310.0 284.5 L 310.5 284.42499999999995 L 311.0 284.35 L 311.5 284.275 L 312.0 284.20000000000005 L 312.5 284.125 L 313.0 284.04999999999995 L 313.5 283.975 L 314.0 283.9 L 314.5 283.825 L 315.0 283.75 L 315.5 283.675 L 316.0 283.6 L 316.5 283.525 L 317.0 283.45000000000005 L 317.5 283.375 L 318.0 283.29999999999995 L 318.5 283.225 L 319.0 283.15 L 319.5 283.075 L 320.0 283.0 L 320.5 282.925 L 321.0 282.85 L 321.5 282.775 L 322.0 282.70000000000005 L 322.5 282.625 L 323.0 282.54999999999995 L 323.5 282.475 L 324.0 282.4 L 324.5 282.325 L 325.0 282.25 L 325.5 282.175 L 326.0 282.1 L 326.5 282.025 L 327.0 281.95000000000005 L 327.5 281.875 L 328.0 281.79999999999995 L 328.5 281.725 L 329.0 281.65 L 329.5 281.575 L 330.0 281.5 L 330.5 281.425 L 331.0 281.35 L 331.5 281.275 L 332.0 281.20000000000005 L 332.5 281.125 L 333.0 281.04999999999995 L 333.5 280.975 L 334.0 280.9 L 334.5 280.825 L 335.0 280.75 L 335.5 280.675 L 336.0 280.6 L 336.5 280.525 L 337.0 280.45000000000005 L 337.5 280.375 L 338.0 280.29999999999995 L 338.5 280.225 L 339.0 280.15 L 339.5 280.075 L 340.0 280.0 L 340.5 279.925 L 341.0 279.85 L 341.5 279.775 L 342.0 279.70000000000005 L 342.5 279.625 L 343.0 279.54999999999995 L 343.5 279.475 L 344.0 279.4 L 344.5 279.325 L 345.0 279.25 L 345.5 279.175 L 346.0 279.1 L 346.5 279.025 L 347.0 278.95000000000005 L 347.5 278.875 L 348.0 278.79999999999995 L 348.5 278.725 L 349.0 278.65 L 349.5 278.575 L 350.0 278.5 L 350.5 278.425 L 351.0 278.35 L 351.5 278.275 L 352.0 278.2 L 352.5 278.125 L 353.0 278.04999999999995 L 353.5 277.975 L 354.0 277.9 L 354.5 277.825 L 355.0 277.75 L 355.5 277.675 L 356.0 277.6 L 356.5 277.525 L 357.0 277.45 L 357.5 277.375 L 358.0 277.29999999999995 L 358.5 277.225 L 359.0 277.15 L 359.5 277.075 L 360.0 277.0 L 360.5 276.925 L 361.0 276.85 L 361.5 276.775 L 362.0 276.7 L 362.5 276.625 L 363.0 276.54999999999995 L 363.5 276.475 L 364.0 276.4 L 364.5 276.325 L 365.0 276.25 L 365.5 276.175 L 366.0 276.1 L 366.5 276.025 L 367.0 275.95 L 367.5 275.875 L 368.0 275.79999999999995 L 368.5 275.725 L 369.0 275.65 L 369.5 275.57500000000005 L 370.0 275.5 L 370.5 275.425 L 371.0 275.35 L 371.5 275.275 L 372.0 275.2 L 372.5 275.125 L 373.0 275.04999999999995 L 373.5 274.975 L 374.0 274.9 L 374.5 274.825 L 375.0 274.75 L 375.5 274.675 L 376.0 274.6 L 376.5 274.525 L 377.0 274.45 L 377.5 274.375 L 378.0 274.29999999999995 L 378.5 274.225 L 379.0 274.15 L 379.5 274.07500000000005 L 380.0 274.0 L 380.5 273.925 L 381.0 273.85 L 381.5 273.775 L 382.0 273.7 L 382.5 273.625 L 383.0 273.55 L 383.5 273.475 L 384.0 273.4 L 384.5 273.325 L 385.0 273.25 L 385.5 273.175 L 386.0 273.1 L 386.5 273.025 L 387.0 272.95 L 387.5 272.875 L 388.0 272.79999999999995 L 388.5 272.725 L 389.0 272.65 L 389.5 272.57500000000005 L 390.0 272.5 L 390.5 272.425 L 391.0 272.35 L 391.5 272.275 L 392.0 272.2 L 392.5 272.125 L 393.0 272.05 L 393.5 271.975 L 394.0 271.9 L 394.5 271.82500000000005 L 395.0 271.75 L 395.5 271.675 L 396.0 271.6 L 396.5 271.525 L 397.0 271.45 L 397.5 271.375 L 398.0 271.29999999999995 L 398.5 271.225 L 399.0 271.15 L 399.5 271.07500000000005 L 400.0 271.0 L 400.5 270.925 L 401.0 270.85 L 401.5 270.775 L 402.0 270.7 L 402.5 270.625 L 403.0 270.55 L 403.5 270.475 L 404.0 270.4 L 404.5 270.32500000000005 L 405.0 270.25 L 405.5 270.175 L 406.0 270.1 L 406.5 270.025 L 407.0 269.95 L 407.5 269.875 L 408.0 269.8 L 408.5 269.725 L 409.0 269.65 L 409.5 269.57500000000005 L 410.0 269.5 L 410.5 269.425 L 411.0 269.35 L 411.5 269.275 L 412.0 269.2 L 412.5 269.125 L 413.0 269.05 L 413.5 268.975 L 414.0 268.9 L 414.5 268.82500000000005 L 415.0 268.75 L 415.5 268.625 L 416.0 268.5 L 416.5 268.375 L 417.0 268.25 L 417.5 268.125 L 418.0 268.0 L 418.5 267.875 L 419.0 267.75 L 419.5 267.625 L 420.0 267.5 L 420.5 267.375 L 421.0 267.25 L 421.5 267.125 L 422.0 267.0 L 422.5 266.875 L 423.0 266.75 L 423.5 266.625 L 424.0 266.5 L 424.5 266.375 L 425.0 266.25 L 425.5 266.125 L 426.0 266.0 L 426.5 265.875 L 427.0 265.75 L 427.5 265.625 L 428.0 265.5 L 428.5 265.375 L 429.0 265.25 L 429.5 265.125 L 430.0 265.0 L 430.5 264.875 L 431.0 264.75 L 431.5 264.625 L 432.0 264.5 L 432.5 264.375 L 433.0 264.25 L 433.5 264.125 L 434.0 264.0 L 434.5 263.875 L 435.0 263.75 L 435.5 263.625 L 436.0 263.5 L 436.5 263.375 L 437.0 263.25 L 437.5 263.125 L 438.0 263.0 L 438.5 262.875 L 439.0 262.75 L 439.5 262.625 L 440.0 262.5 L 440.5 262.4 L 441.0 262.3 L 441.5 262.2 L 442.0 262.1 L 442.5 262.0 L 443.0 261.9 L 443.5 261.8 L 444.0 261.7 L 444.5 261.6 L 445.0 261.5 L 445.5 261.4 L 446.0 261.3 L 446.5 261.2 L 447.0 261.1 L 447.5 261.0 L 448.0 260.9 L 448.5 260.8 L 449.0 260.7 L 449.5 260.6 L 450.0 260.5 L 450.5 260.4 L 451.0 260.3 L 451.5 260.2 L 452.0 260.1 L 452.5 260.0 L 453.0 259.9 L 453.5 259.8 L 454.0 259.7 L 454.5 259.6 L 455.0 259.5 L 455.5 259.4 L 456.0 259.3 L 456.5 259.2 L 457.0 259.1 L 457.5 259.0 L 458.0 258.9 L 458.5 258.8 L 459.0 258.7 L 459.5 258.6 L 460.0 258.5 L 460.5 258.4 L 461.0 258.3 L 461.5 258.20000000000005 L 462.0 258.1 L 462.5 258.0 L 463.0 257.9 L 463.5 257.8 L 464.0 257.70000000000005 L 464.5 257.6 L 465.0 257.5 L 465.5 257.4 L 466.0 257.3 L 466.5 257.20000000000005 L 467.0 257.1 L 467.5 257.0 L 468.0 256.9 L 468.5 256.8 L 469.0 256.70000000000005 L 469.5 256.6 L 470.0 256.5 L 470.5 256.4 L 471.0 256.3 L 471.5 256.20000000000005 L 472.0 256.1 L 472.5 256.0 L 473.0 255.89999999999998 L 473.5 255.8 L 474.0 255.70000000000002 L 474.5 255.6 L 475.0 255.5 L 475.5 255.39999999999998 L 476.0 255.3 L 476.5 255.20000000000002 L 477.0 255.1 L 477.5 255.0 L 478.0 254.89999999999998 L 478.5 254.8 L 479.0 254.70000000000002 L 479.5 254.6 L 480.0 254.5 L 480.5 254.39999999999998 L 481.0 254.3 L 481.5 254.20000000000002 L 482.0 254.1 L 482.5 254.0 L 483.0 253.89999999999998 L 483.5 253.8 L 484.0 253.70000000000002 L 484.5 253.6 L 485.0 253.5 L 485.5 253.39999999999998 L 486.0 253.3 L 486.5 253.20000000000002 L 487.0 253.1 L 487.5 253.0 L 488.0 252.9 L 488.5 252.79999999999998 L 489.0 252.70000000000002 L 489.5 252.6 L 490.0 252.5 L 490.5 252.475 L 491.0 252.45000000000002 L 491.5 252.425 L 492.0 252.4 L 492.5 252.375 L 493.0 252.35 L 493.5 252.325 L 494.0 252.29999999999998 L 494.5 252.275 L 495.0 252.25 L 495.5 252.225 L 496.0 252.20000000000002 L 496.5 252.175 L 497.0 252.15 L 497.5 252.125 L 498.0 252.1 L 498.5 252.075 L 499.0 252.04999999999998 L 499.5 252.025 L 500.0 252.0 L 500.5 251.975 L 501.0 251.95000000000002 L 501.5 251.925 L 502.0 251.9 L 502.5 251.875 L 503.0 251.85 L 503.5 251.825 L 504.0 251.79999999999998 L 504.5 251.775 L 505.0 251.75 L 505.5 251.725 L 506.0 251.70000000000002 L 506.5 251.675 L 507.0 251.65 L 507.5 251.625 L 508.0 251.6 L 508.5 251.575 L 509.0 251.54999999999998 L 509.5 251.525 L 510.0 251.5 L 510.5 251.475 L 511.0 251.45000000000002 L 511.5 251.425 L 512.0 251.4 L 512.5 251.375 L 513.0 251.35 L 513.5 251.325 L 514.0 251.29999999999998 L 514.5 251.275 L 515.0 251.25 L 515.5 251.225 L 516.0 251.20000000000002 L 516.5 251.175 L 517.0 251.15 L 517.5 251.125 L 518.0 251.1 L 518.5 251.075 L 519.0 251.04999999999998 L 519.5 251.025 L 520.0 251.0 L 520.5 250.975 L 521.0 250.95000000000002 L 521.5 250.925 L 522.0 250.9 L 522.5 250.875 L 523.0 250.85 L 523.5 250.825 L 524.0 250.79999999999998 L 524.5 250.775 L 525.0 250.75 L 525.5 250.725 L 526.0 250.70000000000002 L 526.5 250.675 L 527.0 250.65 L 527.5 250.625 L 528.0 250.6 L 528.5 250.575 L 529.0 250.54999999999998 L 529.5 250.525 L 530.0 250.5 L 530.5 250.475 L 531.0 250.45000000000002 L 531.5 250.425 L 532.0 250.4 L 532.5 250.375 L 533.0 250.35 L 533.5 250.325 L 534.0 250.29999999999998 L 534.5 250.275 L 535.0 250.25 L 535.5 250.225 L 536.0 250.20000000000002 L 536.5 250.175 L 537.0 250.15 L 537.5 250.125 L 538.0 250.1 L 538.5 250.075 L 539.0 250.04999999999998 L 539.5 250.025 L 540.0 250.0 " stroke="red" stroke-width="2px" fill="none" /></g></svg>