<?xml version="1.0" encoding="iso-8859-1"?>
<!DOCTYPE svg PUBLIC "-//W3C//DTD SVG 1.1//EN" "http://www.w3.org/Graphics/SVG/1.1/DTD/svg11.dtd">
<svg width="540" height="540"><g><line x1="40" y1="540" x2="40" stroke="black" stroke-width="1px" /> <line x1="30" y1="10" x2="40" y2="0" stroke="black" stroke-width="1px" /> <line x1="50" y1="10" x2="40" y2="0" stroke="black" stroke-width="1px" /> <text font-family="times-roman" font-size="15" stroke="blue" color="blue" fill="blue" x="10" y="15">0.3</text> <text font-family="times-roman" font-size="15" stroke="blue" color="blue" fill="blue" x="10" y="510">-0.3</text> <line x1="0" y1="250.0" x2="540" y2="250.0" stroke="black" stroke-width="1px" /> <line x1="530" y1="240.0" x2="540" y2="250.0" stroke="black" stroke-width="1px" /> <line x1="530" y1="260.0" x2="540" y2="250.0" stroke="black" stroke-width="1px" /> <text font-family="times-roman" font-size="15" stroke="blue" color="blue" fill="blue" x="530" y="275.0">1</text> <path d="M 40.0 250.0 L 40.5 252.27272727272728 L 41.0 254.54545454545453 L 41.5 256.8181818181818 L 42.0 259.0909090909091 L 42.5 261.3636363636364 L 43.0 263.6363636363636 L 43.5 265.90909090909093 L 44.0 268.18181818181813 L 44.5 270.45454545454544 L 45.0 272.72727272727275 L 45.5 275.0 L 46.0 277.27272727272725 L 46.5 279.5454545454545 L 47.0 281.81818181818187 L 47.5 284.0909090909091 L 48.0 286.3636363636364 L 48.5 288.6363636363636 L 49.0 290.9090909090909 L 49.5 293.1818181818182 L 50.0 295.4545454545455 L 50.5 297.7272727272727 L 51.0 300.0 L 51.5 302.27272727272725 L 52.0 304.54545454545456 L 52.5 306.8181818181818 L 53.0 309.0909090909091 L 53.5 311.3636363636364 L 54.0 313.6363636363636 L 54.5 315.9090909090909 L 55.0 318.1818181818182 L 55.5 320.45454545454544 L 56.0 322.72727272727275 L 56.5 325.0 L 57.0 320.45454545454544 L 57.5 315.9090909090909 L 58.0 311.3636363636364 L 58.5 306.8181818181818 L 59.0 302.27272727272725 L 59.5 297.7272727272727 L 60.0 293.1818181818182 L 60.5 288.6363636363636 L 61.0 284.0909090909091 L 61.5 279.5454545454545 L 62.0 275.0 L 62.5 270.45454545454544 L 63.0 265.90909090909093 L 63.5 261.3636363636364 L 64.0 256.8181818181818 L 64.5 252.27272727272728 L 65.0 247.7272727272727 L 65.5 243.1818181818182 L 66.0 238.63636363636363 L 66.5 234.09090909090907 L 67.0 229.54545454545456 L 67.5 225.00000000000006 L 68.0 220.45454545454544 L 68.5 215.90909090909093 L 69.0 211.36363636363637 L 69.5 206.8181818181818 L 70.0 202.27272727272725 L 70.5 197.7272727272727 L 71.0 193.1818181818182 L 71.5 188.63636363636363 L 72.0 184.09090909090907 L 72.5 179.54545454545456 L 73.0 175.0 L 73.5 177.20588235294116 L 74.0 179.41176470588232 L 74.5 181.61764705882348 L 75.0 183.8235294117647 L 75.5 186.0294117647059 L 76.0 188.23529411764707 L 76.5 190.44117647058823 L 77.0 192.6470588235294 L 77.5 194.8529411764706 L 78.0 197.0588235294117 L 78.5 199.26470588235293 L 79.0 201.47058823529414 L 79.5 203.6764705882353 L 80.0 205.88235294117646 L 80.5 208.08823529411762 L 81.0 210.29411764705878 L 81.5 212.5 L 82.0 214.70588235294122 L 82.5 216.91176470588232 L 83.0 219.11764705882354 L 83.5 221.3235294117647 L 84.0 223.52941176470586 L 84.5 225.73529411764702 L 85.0 227.94117647058818 L 85.5 230.14705882352945 L 86.0 232.3529411764706 L 86.5 234.55882352941177 L 87.0 236.76470588235293 L 87.5 238.9705882352941 L 88.0 241.1764705882353 L 88.5 243.38235294117652 L 89.0 245.5882352941176 L 89.5 247.79411764705884 L 90.0 250.0 L 90.5 252.27272727272728 L 91.0 254.54545454545453 L 91.5 256.8181818181818 L 92.0 259.0909090909091 L 92.5 261.3636363636364 L 93.0 263.6363636363636 L 93.5 265.90909090909093 L 94.0 268.18181818181813 L 94.5 270.45454545454544 L 95.0 272.72727272727275 L 95.5 275.0 L 96.0 277.27272727272725 L 96.5 279.5454545454545 L 97.0 281.81818181818187 L 97.5 284.0909090909091 L 98.0 286.3636363636364 L 98.5 288.6363636363636 L 99.0 290.9090909090909 L 99.5 293.1818181818182 L 100.0 295.4545454545455 L 100.5 297.7272727272727 L 101.0 300.0 L 101.5 302.27272727272725 L 102.0 304.54545454545456 L 102.5 306.8181818181818 L 103.0 309.0909090909091 L 103.5 311.3636363636364 L 104.0 313.6363636363636 L 104.5 315.9090909090909 L 105.0 318.1818181818182 L 105.5 320.45454545454544 L 106.0 322.72727272727275 L 106.5 325.0 L 107.0 320.45454545454544 L 107.5 315.9090909090909 L 108.0 311.3636363636364 L 108.5 306.8181818181818 L 109.0 302.27272727272725 L 109.5 297.7272727272727 L 110.0 293.1818181818182 L 110.5 288.6363636363636 L 111.0 284.0909090909091 L 111.5 279.5454545454545 L 112.0 275.0 L 112.5 270.45454545454544 L 113.0 265.90909090909093 L 113.5 261.3636363636364 L 114.0 256.8181818181818 L 114.5 252.27272727272728 L 115.0 247.7272727272727 L 115.5 243.1818181818182 L 116.0 238.63636363636363 L 116.5 234.09090909090907 L 117.0 229.54545454545456 L 117.5 225.00000000000006 L 118.0 220.45454545454544 L 118.5 215.90909090909093 L 119.0 211.36363636363637 L 119.5 206.8181818181818 L 120.0 202.27272727272725 L 120.5 197.7272727272727 L 121.0 193.1818181818182 L 121.5 188.63636363636363 L 122.0 184.09090909090907 L 122.5 179.54545454545456 L 123.0 175.0 L 123.5 177.20588235294116 L 124.0 179.41176470588232 L 124.5 181.61764705882348 L 125.0 183.8235294117647 L 125.5 186.0294117647059 L 126.0 188.23529411764707 L 126.5 190.44117647058823 L 127.0 192.6470588235294 L 127.5 194.8529411764706 L 128.0 197.0588235294117 L 128.5 199.26470588235293 L 129.0 201.47058823529414 L 129.5 203.6764705882353 L 130.0 205.88235294117646 L 130.5 208.08823529411762 L 131.0 210.29411764705878 L 131.5 212.5 L 132.0 214.70588235294122 L 132.5 216.91176470588232 L 133.0 219.11764705882354 L 133.5 221.3235294117647 L 134.0 223.52941176470586 L 134.5 225.73529411764702 L 135.0 227.94117647058818 L 135.5 230.14705882352945 L 136.0 232.3529411764706 L 136.5 234.55882352941177 L 137.0 236.76470588235293 L 137.5 238.9705882352941 L 138.0 241.1764705882353 L 138.5 243.38235294117652 L 139.0 245.5882352941176 L 139.5 247.79411764705884 L 140.0 250.0 L 140.5 252.27272727272728 L 141.0 254.54545454545453 L 141.5 256.8181818181818 L 142.0 259.0909090909091 L 142.5 261.3636363636364 L 143.0 263.6363636363636 L 143.5 265.90909090909093 L 144.0 268.18181818181813 L 144.5 270.45454545454544 L 145.0 272.72727272727275 L 145.5 275.0 L 146.0 277.27272727272725 L 146.5 279.5454545454545 L 147.0 281.81818181818187 L 147.5 284.0909090909091 L 148.0 286.3636363636364 L 148.5 288.6363636363636 L 149.0 290.9090909090909 L 149.5 293.1818181818182 L 150.0 295.4545454545455 L 150.5 297.7272727272727 L 151.0 300.0 L 151.5 302.27272727272725 L 152.0 304.54545454545456 L 152.5 306.8181818181818 L 153.0 309.0909090909091 L 153.5 311.3636363636364 L 154.0 313.6363636363636 L 154.5 315.9090909090909 L 155.0 318.1818181818182 L 155.5 320.45454545454544 L 156.0 322.72727272727275 L 156.5 325.0 L 157.0 320.45454545454544 L 157.5 315.9090909090909 L 158.0 311.3636363636364 L 158.5 306.8181818181818 L 159.0 302.27272727272725 L 159.5 297.7272727272727 L 160.0 293.1818181818182 L 160.5 288.6363636363636 L 161.0 284.0909090909091 L 161.5 279.5454545454545 L 162.0 275.0 L 162.5 270.45454545454544 L 163.0 265.90909090909093 L 163.5 261.3636363636364 L 164.0 256.8181818181818 L 164.5 252.27272727272728 L 165.0 247.7272727272727 L 165.5 243.1818181818182 L 166.0 238.63636363636363 L 166.5 234.09090909090907 L 167.0 229.54545454545456 L 167.5 225.00000000000006 L 168.0 220.45454545454544 L 168.5 215.90909090909093 L 169.0 211.36363636363637 L 169.5 206.8181818181818 L 170.0 202.27272727272725 L 170.5 197.7272727272727 L 171.0 193.1818181818182 L 171.5 188.63636363636363 L 172.0 184.09090909090907 L 172.5 179.54545454545456 L 173.0 175.0 L 173.5 177.20588235294116 L 174.0 179.41176470588232 L 174.5 181.61764705882348 L 175.0 183.8235294117647 L 175.5 186.0294117647059 L 176.0 188.23529411764707 L 176.5 190.44117647058823 L 177.0 192.6470588235294 L 177.5 194.8529411764706 L 178.0 197.0588235294117 L 178.5 199.26470588235293 L 179.0 201.47058823529414 L 179.5 203.6764705882353 L 180.0 205.88235294117646 L 180.5 208.08823529411762 L 181.0 210.29411764705878 L 181.5 212.5 L 182.0 214.70588235294122 L 182.5 216.91176470588232 L 183.0 219.11764705882354 L 183.5 221.3235294117647 L 184.0 223.52941176470586 L 184.5 225.73529411764702 L 185.0 227.94117647058818 L 185.5 230.14705882352945 L 186.0 232.3529411764706 L 186.5 234.55882352941177 L 187.0 236.76470588235293 L 187.5 238.9705882352941 L 188.0 241.1764705882353 L 188.5 243.38235294117652 L 189.0 245.5882352941176 L 189.5 247.79411764705884 L 190.0 250.0 L 190.5 252.27272727272728 L 191.0 254.54545454545453 L 191.5 256.8181818181818 L 192.0 259.0909090909091 L 192.5 261.3636363636364 L 193.0 263.6363636363636 L 193.5 265.90909090909093 L 194.0 268.18181818181813 L 194.5 270.45454545454544 L 195.0 272.72727272727275 L 195.5 275.0 L 196.0 277.27272727272725 L 196.5 279.5454545454545 L 197.0 281.81818181818187 L 197.5 284.0909090909091 L 198.0 286.3636363636364 L 198.5 288.6363636363636 L 199.0 290.9090909090909 L 199.5 293.1818181818182 L 200.0 295.4545454545455 L 200.5 297.7272727272727 L 201.0 300.0 L 201.5 302.27272727272725 L 202.0 304.54545454545456 L 202.5 306.8181818181818 L 203.0 309.0909090909091 L 203.5 311.3636363636364 L 204.0 313.6363636363636 L 204.5 315.9090909090909 L 205.0 318.1818181818182 L 205.5 320.45454545454544 L 206.0 322.72727272727275 L 206.5 325.0 L 207.0 320.45454545454544 L 207.5 315.9090909090909 L 208.0 311.3636363636364 L 208.5 306.8181818181818 L 209.0 302.27272727272725 L 209.5 297.7272727272727 L 210.0 293.1818181818182 L 210.5 288.6363636363636 L 211.0 284.0909090909091 L 211.5 279.5454545454545 L 212.0 275.0 L 212.5 270.45454545454544 L 213.0 265.90909090909093 L 213.5 261.3636363636364 L 214.0 256.8181818181818 L 214.5 252.27272727272728 L 215.0 247.7272727272727 L 215.5 243.1818181818182 L 216.0 238.63636363636363 L 216.5 234.09090909090907 L 217.0 229.54545454545456 L 217.5 225.00000000000006 L 218.0 220.45454545454544 L 218.5 215.90909090909093 L 219.0 211.36363636363637 L 219.5 206.8181818181818 L 220.0 202.27272727272725 L 220.5 197.7272727272727 L 221.0 193.1818181818182 L 221.5 188.63636363636363 L 222.0 184.09090909090907 L 222.5 179.54545454545456 L 223.0 175.0 L 223.5 177.20588235294116 L 224.0 179.41176470588232 L 224.5 181.61764705882348 L 225.0 183.8235294117647 L 225.5 186.0294117647059 L 226.0 188.23529411764707 L 226.5 190.44117647058823 L 227.0 192.6470588235294 L 227.5 194.8529411764706 L 228.0 197.0588235294117 L 228.5 199.26470588235293 L 229.0 201.47058823529414 L 229.5 203.6764705882353 L 230.0 205.88235294117646 L 230.5 208.08823529411762 L 231.0 210.29411764705878 L 231.5 212.5 L 232.0 214.70588235294122 L 232.5 216.91176470588232 L 233.0 219.11764705882354 L 233.5 221.3235294117647 L 234.0 223.52941176470586 L 234.5 225.73529411764702 L 235.0 227.94117647058818 L 235.5 230.14705882352945 L 236.0 232.3529411764706 L 236.5 234.55882352941177 L 237.0 236.76470588235293 L 237.5 238.9705882352941 L 238.0 241.1764705882353 L 238.5 243.38235294117652 L 239.0 245.5882352941176 L 239.5 247.79411764705884 L 240.0 250.0 L 240.5 251.8181818181818 L 241.0 253.63636363636363 L 241.5 255.45454545454544 L 242.0 257.27272727272725 L 242.5 259.0909090909091 L 243.0 260.90909090909093 L 243.5 262.72727272727275 L 244.0 264.5454545454545 L 244.5 266.3636363636364 L 245.0 268.18181818181813 L 245.5 270.0 L 246.0 271.8181818181818 L 246.5 273.6363636363636 L 247.0 275.45454545454544 L 247.5 277.27272727272725 L 248.0 279.0909090909091 L 248.5 280.90909090909093 L 249.0 282.72727272727275 L 249.5 284.5454545454545 L 250.0 286.3636363636364 L 250.5 288.1818181818182 L 251.0 290.0 L 251.5 291.81818181818187 L 252.0 293.6363636363636 L 252.5 295.4545454545455 L 253.0 297.27272727272725 L 253.5 299.0909090909091 L 254.0 300.9090909090909 L 254.5 302.72727272727275 L 255.0 304.54545454545456 L 255.5 306.3636363636364 L 256.0 308.1818181818182 L 256.5 310.0 L 257.0 306.3636363636364 L 257.5 302.72727272727275 L 258.0 299.0909090909091 L 258.5 295.4545454545455 L 259.0 291.81818181818187 L 259.5 288.1818181818182 L 260.0 284.5454545454545 L 260.5 280.90909090909093 L 261.0 277.27272727272725 L 261.5 273.6363636363636 L 262.0 270.0 L 262.5 266.3636363636364 L 263.0 262.72727272727275 L 263.5 259.0909090909091 L 264.0 255.45454545454544 L 264.5 251.8181818181818 L 265.0 248.18181818181816 L 265.5 244.54545454545456 L 266.0 240.90909090909088 L 266.5 237.27272727272725 L 267.0 233.63636363636363 L 267.5 230.0 L 268.0 226.36363636363637 L 268.5 222.7272727272727 L 269.0 219.09090909090907 L 269.5 215.45454545454544 L 270.0 211.8181818181818 L 270.5 208.1818181818182 L 271.0 204.5454545454545 L 271.5 200.90909090909093 L 272.0 197.27272727272725 L 272.5 193.63636363636363 L 273.0 190.0 L 273.5 191.76470588235293 L 274.0 193.5294117647059 L 274.5 195.29411764705884 L 275.0 197.0588235294117 L 275.5 198.82352941176475 L 276.0 200.58823529411762 L 276.5 202.3529411764706 L 277.0 204.11764705882354 L 277.5 205.88235294117646 L 278.0 207.6470588235294 L 278.5 209.41176470588238 L 279.0 211.1764705882353 L 279.5 212.94117647058823 L 280.0 214.70588235294122 L 280.5 216.4705882352941 L 281.0 218.23529411764702 L 281.5 220.00000000000006 L 282.0 221.76470588235293 L 282.5 223.52941176470586 L 283.0 225.29411764705878 L 283.5 227.05882352941177 L 284.0 228.8235294117647 L 284.5 230.58823529411762 L 285.0 232.3529411764706 L 285.5 234.11764705882354 L 286.0 235.88235294117646 L 286.5 237.6470588235294 L 287.0 239.41176470588232 L 287.5 241.1764705882353 L 288.0 242.94117647058823 L 288.5 244.70588235294116 L 289.0 246.47058823529412 L 289.5 248.23529411764704 L 290.0 250.0 L 290.5 251.8181818181818 L 291.0 253.63636363636363 L 291.5 255.45454545454544 L 292.0 257.27272727272725 L 292.5 259.0909090909091 L 293.0 260.90909090909093 L 293.5 262.72727272727275 L 294.0 264.5454545454545 L 294.5 266.3636363636364 L 295.0 268.18181818181813 L 295.5 270.0 L 296.0 271.8181818181818 L 296.5 273.6363636363636 L 297.0 275.45454545454544 L 297.5 277.27272727272725 L 298.0 279.0909090909091 L 298.5 280.90909090909093 L 299.0 282.72727272727275 L 299.5 284.5454545454545 L 300.0 286.3636363636364 L 300.5 288.1818181818182 L 301.0 290.0 L 301.5 291.81818181818187 L 302.0 293.6363636363636 L 302.5 295.4545454545455 L 303.0 297.27272727272725 L 303.5 299.0909090909091 L 304.0 300.9090909090909 L 304.5 302.72727272727275 L 305.0 304.54545454545456 L 305.5 306.3636363636364 L 306.0 308.1818181818182 L 306.5 310.0 L 307.0 306.3636363636364 L 307.5 302.72727272727275 L 308.0 299.0909090909091 L 308.5 295.4545454545455 L 309.0 291.81818181818187 L 309.5 288.1818181818182 L 310.0 284.5454545454545 L 310.5 280.90909090909093 L 311.0 277.27272727272725 L 311.5 273.6363636363636 L 312.0 270.0 L 312.5 266.3636363636364 L 313.0 262.72727272727275 L 313.5 259.0909090909091 L 314.0 255.45454545454544 L 314.5 251.8181818181818 L 315.0 248.18181818181816 L 315.5 244.54545454545456 L 316.0 240.90909090909088 L 316.5 237.27272727272725 L 317.0 233.63636363636363 L 317.5 230.0 L 318.0 226.36363636363637 L 318.5 222.7272727272727 L 319.0 219.09090909090907 L 319.5 215.45454545454544 L 320.0 211.8181818181818 L 320.5 208.1818181818182 L 321.0 204.5454545454545 L 321.5 200.90909090909093 L 322.0 197.27272727272725 L 322.5 193.63636363636363 L 323.0 190.0 L 323.5 191.76470588235293 L 324.0 193.5294117647059 L 324.5 195.29411764705884 L 325.0 197.0588235294117 L 325.5 198.82352941176475 L 326.0 200.58823529411762 L 326.5 202.3529411764706 L 327.0 204.11764705882354 L 327.5 205.88235294117646 L 328.0 207.6470588235294 L 328.5 209.41176470588238 L 329.0 211.1764705882353 L 329.5 212.94117647058823 L 330.0 214.70588235294122 L 330.5 216.4705882352941 L 331.0 218.23529411764702 L 331.5 220.00000000000006 L 332.0 221.76470588235293 L 332.5 223.52941176470586 L 333.0 225.29411764705878 L 333.5 227.05882352941177 L 334.0 228.8235294117647 L 334.5 230.58823529411762 L 335.0 232.3529411764706 L 335.5 234.11764705882354 L 336.0 235.88235294117646 L 336.5 237.6470588235294 L 337.0 239.41176470588232 L 337.5 241.1764705882353 L 338.0 242.94117647058823 L 338.5 244.70588235294116 L 339.0 246.47058823529412 L 339.5 248.23529411764704 L 340.0 250.0 L 340.5 251.36363636363637 L 341.0 252.72727272727272 L 341.5 254.0909090909091 L 342.0 255.45454545454544 L 342.5 256.8181818181818 L 343.0 258.18181818181824 L 343.5 259.5454545454545 L 344.0 260.90909090909093 L 344.5 262.2727272727273 L 345.0 263.6363636363636 L 345.5 265.0 L 346.0 266.3636363636364 L 346.5 267.72727272727275 L 347.0 269.0909090909091 L 347.5 270.45454545454544 L 348.0 271.8181818181818 L 348.5 273.18181818181813 L 349.0 274.5454545454545 L 349.5 275.90909090909093 L 350.0 277.27272727272725 L 350.5 278.6363636363636 L 351.0 280.0 L 351.5 281.3636363636364 L 352.0 282.72727272727275 L 352.5 284.0909090909091 L 353.0 285.4545454545455 L 353.5 286.8181818181818 L 354.0 288.1818181818182 L 354.5 289.54545454545456 L 355.0 290.9090909090909 L 355.5 292.27272727272725 L 356.0 293.6363636363636 L 356.5 295.0 L 357.0 292.27272727272725 L 357.5 289.54545454545456 L 358.0 286.8181818181818 L 358.5 284.0909090909091 L 359.0 281.3636363636364 L 359.5 278.6363636363636 L 360.0 275.90909090909093 L 360.5 273.18181818181813 L 361.0 270.45454545454544 L 361.5 267.72727272727275 L 362.0 265.0 L 362.5 262.2727272727273 L 363.0 259.5454545454545 L 363.5 256.8181818181818 L 364.0 254.0909090909091 L 364.5 251.36363636363637 L 365.0 248.6363636363636 L 365.5 245.9090909090909 L 366.0 243.1818181818182 L 366.5 240.4545454545455 L 367.0 237.7272727272727 L 367.5 235.0 L 368.0 232.27272727272725 L 368.5 229.54545454545456 L 369.0 226.8181818181818 L 369.5 224.09090909090907 L 370.0 221.36363636363637 L 370.5 218.63636363636363 L 371.0 215.90909090909093 L 371.5 213.1818181818182 L 372.0 210.45454545454544 L 372.5 207.7272727272727 L 373.0 205.0 L 373.5 206.32352941176475 L 374.0 207.6470588235294 L 374.5 208.97058823529414 L 375.0 210.29411764705878 L 375.5 211.61764705882354 L 376.0 212.94117647058823 L 376.5 214.26470588235293 L 377.0 215.58823529411762 L 377.5 216.91176470588232 L 378.0 218.23529411764702 L 378.5 219.55882352941177 L 379.0 220.88235294117646 L 379.5 222.20588235294122 L 380.0 223.52941176470586 L 380.5 224.8529411764706 L 381.0 226.1764705882353 L 381.5 227.5 L 382.0 228.8235294117647 L 382.5 230.14705882352945 L 383.0 231.4705882352941 L 383.5 232.79411764705884 L 384.0 234.11764705882354 L 384.5 235.44117647058823 L 385.0 236.76470588235293 L 385.5 238.08823529411762 L 386.0 239.41176470588232 L 386.5 240.73529411764707 L 387.0 242.05882352941177 L 387.5 243.38235294117652 L 388.0 244.70588235294116 L 388.5 246.02941176470588 L 389.0 247.3529411764706 L 389.5 248.67647058823528 L 390.0 250.0 L 390.5 251.36363636363637 L 391.0 252.72727272727272 L 391.5 254.0909090909091 L 392.0 255.45454545454544 L 392.5 256.8181818181818 L 393.0 258.18181818181824 L 393.5 259.5454545454545 L 394.0 260.90909090909093 L 394.5 262.2727272727273 L 395.0 263.6363636363636 L 395.5 265.0 L 396.0 266.3636363636364 L 396.5 267.72727272727275 L 397.0 269.0909090909091 L 397.5 270.45454545454544 L 398.0 271.8181818181818 L 398.5 273.18181818181813 L 399.0 274.5454545454545 L 399.5 275.90909090909093 L 400.0 277.27272727272725 L 400.5 278.6363636363636 L 401.0 280.0 L 401.5 281.3636363636364 L 402.0 282.72727272727275 L 402.5 284.0909090909091 L 403.0 285.4545454545455 L 403.5 286.8181818181818 L 404.0 288.1818181818182 L 404.5 289.54545454545456 L 405.0 290.9090909090909 L 405.5 292.27272727272725 L 406.0 293.6363636363636 L 406.5 295.0 L 407.0 292.27272727272725 L 407.5 289.54545454545456 L 408.0 286.8181818181818 L 408.5 284.0909090909091 L 409.0 281.3636363636364 L 409.5 278.6363636363636 L 410.0 275.90909090909093 L 410.5 273.18181818181813 L 411.0 270.45454545454544 L 411.5 267.72727272727275 L 412.0 265.0 L 412.5 262.2727272727273 L 413.0 259.5454545454545 L 413.5 256.8181818181818 L 414.0 254.0909090909091 L 414.5 251.36363636363637 L 415.0 248.6363636363636 L 415.5 245.9090909090909 L 416.0 243.1818181818182 L 416.5 240.4545454545455 L 417.0 237.7272727272727 L 417.5 235.0 L 418.0 232.27272727272725 L 418.5 229.54545454545456 L 419.0 226.8181818181818 L 419.5 224.09090909090907 L 420.0 221.36363636363637 L 420.5 218.63636363636363 L 421.0 215.90909090909093 L 421.5 213.1818181818182 L 422.0 210.45454545454544 L 422.5 207.7272727272727 L 423.0 205.0 L 423.5 206.32352941176475 L 424.0 207.6470588235294 L 424.5 208.97058823529414 L 425.0 210.29411764705878 L 425.5 211.61764705882354 L 426.0 212.94117647058823 L 426.5 214.26470588235293 L 427.0 215.58823529411762 L 427.5 216.91176470588232 L 428.0 218.23529411764702 L 428.5 219.55882352941177 L 429.0 220.88235294117646 L 429.5 222.20588235294122 L 430.0 223.52941176470586 L 430.5 224.8529411764706 L 431.0 226.1764705882353 L 431.5 227.5 L 432.0 228.8235294117647 L 432.5 230.14705882352945 L 433.0 231.4705882352941 L 433.5 232.79411764705884 L 434.0 234.11764705882354 L 434.5 235.44117647058823 L 435.0 236.76470588235293 L 435.5 238.08823529411762 L 436.0 239.41176470588232 L 436.5 240.73529411764707 L 437.0 242.05882352941177 L 437.5 243.38235294117652 L 438.0 244.70588235294116 L 438.5 246.02941176470588 L 439.0 247.3529411764706 L 439.5 248.67647058823528 L 440.0 250.0 L 440.5 251.13636363636363 L 441.0 252.27272727272728 L 441.5 253.4090909090909 L 442.0 254.54545454545453 L 442.5 255.68181818181822 L 443.0 256.8181818181818 L 443.5 257.95454545454544 L 444.0 259.0909090909091 L 444.5 260.22727272727275 L 445.0 261.3636363636364 L 445.5 262.5 L 446.0 263.6363636363636 L 446.5 264.77272727272725 L 447.0 265.90909090909093 L 447.5 267.0454545454545 L 448.0 268.18181818181813 L 448.5 269.3181818181818 L 449.0 270.45454545454544 L 449.5 271.5909090909091 L 450.0 272.72727272727275 L 450.5 273.8636363636364 L 451.0 275.0 L 451.5 276.1363636363636 L 452.0 277.27272727272725 L 452.5 278.40909090909093 L 453.0 279.5454545454545 L 453.5 280.68181818181813 L 454.0 281.81818181818187 L 454.5 282.9545454545455 L 455.0 284.0909090909091 L 455.5 285.22727272727275 L 456.0 286.3636363636364 L 456.5 287.5 L 457.0 285.22727272727275 L 457.5 282.9545454545455 L 458.0 280.68181818181813 L 458.5 278.40909090909093 L 459.0 276.1363636363636 L 459.5 273.8636363636364 L 460.0 271.5909090909091 L 460.5 269.3181818181818 L 461.0 267.0454545454545 L 461.5 264.77272727272725 L 462.0 262.5 L 462.5 260.22727272727275 L 463.0 257.95454545454544 L 463.5 255.68181818181822 L 464.0 253.4090909090909 L 464.5 251.13636363636363 L 465.0 248.8636363636364 L 465.5 246.5909090909091 L 466.0 244.3181818181818 L 466.5 242.04545454545456 L 467.0 239.77272727272725 L 467.5 237.5 L 468.0 235.22727272727275 L 468.5 232.9545454545455 L 469.0 230.68181818181813 L 469.5 228.40909090909088 L 470.0 226.13636363636363 L 470.5 223.86363636363637 L 471.0 221.59090909090907 L 471.5 219.3181818181818 L 472.0 217.04545454545456 L 472.5 214.77272727272725 L 473.0 212.5 L 473.5 213.60294117647055 L 474.0 214.70588235294122 L 474.5 215.80882352941177 L 475.0 216.91176470588232 L 475.5 218.01470588235293 L 476.0 219.11764705882354 L 476.5 220.2205882352941 L 477.0 221.3235294117647 L 477.5 222.4264705882353 L 478.0 223.52941176470586 L 478.5 224.63235294117646 L 479.0 225.73529411764702 L 479.5 226.83823529411768 L 480.0 227.94117647058818 L 480.5 229.04411764705884 L 481.0 230.14705882352945 L 481.5 231.24999999999994 L 482.0 232.3529411764706 L 482.5 233.45588235294116 L 483.0 234.55882352941177 L 483.5 235.66176470588238 L 484.0 236.76470588235293 L 484.5 237.86764705882354 L 485.0 238.9705882352941 L 485.5 240.0735294117647 L 486.0 241.1764705882353 L 486.5 242.27941176470586 L 487.0 243.38235294117652 L 487.5 244.48529411764707 L 488.0 245.5882352941176 L 488.5 246.69117647058826 L 489.0 247.79411764705884 L 489.5 248.89705882352942 L 490.0 250.0 L 490.5 251.13636363636363 L 491.0 252.27272727272728 L 491.5 253.4090909090909 L 492.0 254.54545454545453 L 492.5 255.68181818181822 L 493.0 256.8181818181818 L 493.5 257.95454545454544 L 494.0 259.0909090909091 L 494.5 260.22727272727275 L 495.0 261.3636363636364 L 495.5 262.5 L 496.0 263.6363636363636 L 496.5 264.77272727272725 L 497.0 265.90909090909093 L 497.5 267.0454545454545 L 498.0 268.18181818181813 L 498.5 269.3181818181818 L 499.0 270.45454545454544 L 499.5 271.5909090909091 L 500.0 272.72727272727275 L 500.5 273.8636363636364 L 501.0 275.0 L 501.5 276.1363636363636 L 502.0 277.27272727272725 L 502.5 278.40909090909093 L 503.0 279.5454545454545 L 503.5 280.68181818181813 L 504.0 281.81818181818187 L 504.5 282.9545454545455 L 505.0 284.0909090909091 L 505.5 285.22727272727275 L 506.0 286.3636363636364 L 506.5 287.5 L 507.0 285.22727272727275 L 507.5 282.9545454545455 L 508.0 280.68181818181813 L 508.5 278.40909090909093 L 509.0 276.1363636363636 L 509.5 273.8636363636364 L 510.0 271.5909090909091 L 510.5 269.3181818181818 L 511.0 267.0454545454545 L 511.5 264.77272727272725 L 512.0 262.5 L 512.5 260.22727272727275 L 513.0 257.95454545454544 L 513.5 255.68181818181822 L 514.0 253.4090909090909 L 514.5 251.13636363636363 L 515.0 248.8636363636364 L 515.5 246.5909090909091 L 516.0 244.3181818181818 L 516.5 242.04545454545456 L 517.0 239.77272727272725 L 517.5 237.5 L 518.0 235.22727272727275 L 518.5 232.9545454545455 L 519.0 230.68181818181813 L 519.5 228.40909090909088 L 520.0 226.13636363636363 L 520.5 223.86363636363637 L 521.0 221.59090909090907 L 521.5 219.3181818181818 L 522.0 217.04545454545456 L 522.5 214.77272727272725 L 523.0 212.5 L 523.5 213.60294117647055 L 524.0 214.70588235294122 L 524.5 215.80882352941177 L 525.0 216.91176470588232 L 525.5 218.01470588235293 L 526.0 219.11764705882354 L 526.5 220.2205882352941 L 527.0 221.3235294117647 L 527.5 222.4264705882353 L 528.0 223.52941176470586 L 528.5 224.63235294117646 L 529.0 225.73529411764702 L 529.5 226.83823529411768 L 530.0 227.94117647058818 L 530.5 229.04411764705884 L 531.0 230.14705882352945 L 531.5 231.24999999999994 L 532.0 232.3529411764706 L 532.5 233.45588235294116 L 533.0 234.55882352941177 L 533.5 235.66176470588238 L 534.0 236.76470588235293 L 534.5 237.86764705882354 L 535.0 238.9705882352941 L 535.5 240.0735294117647 L 536.0 241.1764705882353 L 536.5 242.27941176470586 L 537.0 243.38235294117652 L 537.5 244.48529411764707 L 538.0 245.5882352941176 L 538.5 246.69117647058826 L 539.0 247.79411764705884 L 539.5 248.89705882352942 L 540.0 250.0 " stroke="red" stroke-width="2px" fill="none" /></g></svg>