<?xml version="1.0" encoding="iso-8859-1"?>
<!DOCTYPE svg PUBLIC "-//W3C//DTD SVG 1.1//EN" "http://www.w3.org/Graphics/SVG/1.1/DTD/svg11.dtd">
<svg width="540" height="540"><g><line x1="40" y1="540" x2="40" stroke="black" stroke-width="1px" /> <line x1="30" y1="10" x2="40" y2="0" stroke="black" stroke-width="1px" /> <line x1="50" y1="10" x2="40" y2="0" stroke="black" stroke-width="1px" /> <text font-family="times-roman" font-size="15" stroke="blue" color="blue" fill="blue" x="10" y="15">1.2</text> <text font-family="times-roman" font-size="15" stroke="blue" color="blue" fill="blue" x="10" y="510">-1.2</text> <line x1="0" y1="250.0" x2="540" y2="250.0" stroke="black" stroke-width="1px" /> <line x1="530" y1="240.0" x2="540" y2="250.0" stroke="black" stroke-width="1px" /> <line x1="530" y1="260.0" x2="540" y2="250.0" stroke="black" stroke-width="1px" /> <text font-family="times-roman" font-size="15" stroke="blue" color="blue" fill="blue" x="530" y="275.0">1</text> <path d="M 40.0 250.0 L 40.5 250.0 L 41.0 250.0 L 41.5 250.0 L 42.0 250.0 L 42.5 250.0 L 43.0 249.35666666666663 L 43.5 248.4313541666666 L 44.0 247.50791666666666 L 44.5 246.5863541666667 L 45.0 245.66666666666666 L 45.5 244.74885416666663 L 46.0 243.83291666666668 L 46.5 242.91885416666662 L 47.0 242.00666666666666 L 47.5 241.09635416666663 L 48.0 240.1879166666667 L 48.5 239.28135416666663 L 49.0 238.3766666666666 L 49.5 237.47385416666668 L 50.0 236.57291666666663 L 50.5 235.67385416666656 L 51.0 234.77666666666664 L 51.5 233.88135416666665 L 52.0 232.98791666666665 L 52.5 232.09635416666669 L 53.0 231.2066666666666 L 53.5 230.31885416666665 L 54.0 229.43291666666659 L 54.5 228.54885416666667 L 55.0 227.66666666666663 L 55.5 226.78635416666663 L 56.0 225.90791666666667 L 56.5 225.03135416666663 L 57.0 224.15666666666664 L 57.5 223.28385416666663 L 58.0 222.4129166666666 L 58.5 221.54385416666668 L 59.0 220.67666666666662 L 59.5 219.81135416666672 L 60.0 218.94791666666663 L 60.5 218.08635416666664 L 61.0 217.22666666666663 L 61.5 216.36885416666667 L 62.0 215.51291666666668 L 62.5 214.65885416666663 L 63.0 213.80666666666667 L 63.5 212.95635416666664 L 64.0 212.1079166666666 L 64.5 211.26135416666665 L 65.0 210.41666666666663 L 65.5 209.57385416666665 L 66.0 208.73291666666665 L 66.5 207.89385416666664 L 67.0 207.05666666666667 L 67.5 206.22135416666663 L 68.0 205.38791666666668 L 68.5 204.5563541666666 L 69.0 203.7266666666667 L 69.5 202.89885416666664 L 70.0 202.07291666666669 L 70.5 201.24885416666666 L 71.0 200.42666666666662 L 71.5 199.60635416666668 L 72.0 198.7879166666666 L 72.5 197.97135416666669 L 73.0 197.1566666666667 L 73.5 196.3438541666667 L 74.0 195.53291666666667 L 74.5 194.72385416666663 L 75.0 193.91666666666669 L 75.5 193.11135416666667 L 76.0 192.30791666666664 L 76.5 191.50635416666665 L 77.0 190.70666666666665 L 77.5 189.90885416666669 L 78.0 189.11291666666665 L 78.5 188.31885416666665 L 79.0 187.5266666666667 L 79.5 186.73635416666667 L 80.0 185.94791666666663 L 80.5 185.16135416666668 L 81.0 184.37666666666667 L 81.5 183.5938541666667 L 82.0 182.81291666666658 L 82.5 182.03385416666669 L 83.0 181.25666666666666 L 83.5 180.48135416666668 L 84.0 179.70791666666668 L 84.5 178.93635416666672 L 85.0 178.16666666666663 L 85.5 177.3988541666667 L 86.0 176.63291666666663 L 86.5 175.86885416666672 L 87.0 175.10666666666663 L 87.5 174.34635416666669 L 88.0 173.58791666666667 L 88.5 172.8313541666667 L 89.0 172.07666666666665 L 89.5 171.32385416666665 L 90.0 170.57291666666663 L 90.5 169.82385416666665 L 91.0 169.0766666666667 L 91.5 168.33135416666659 L 92.0 167.58791666666667 L 92.5 166.84635416666663 L 93.0 166.10666666666663 L 93.5 165.3688541666666 L 94.0 164.6329166666667 L 94.5 163.89885416666664 L 95.0 163.16666666666663 L 95.5 162.43635416666666 L 96.0 161.70791666666668 L 96.5 160.98135416666668 L 97.0 160.25666666666666 L 97.5 159.53385416666663 L 98.0 158.8129166666667 L 98.5 158.09385416666663 L 99.0 157.37666666666667 L 99.5 156.66135416666663 L 100.0 155.94791666666663 L 100.5 155.23635416666667 L 101.0 154.52666666666659 L 101.5 153.8188541666667 L 102.0 153.1129166666666 L 102.5 152.40885416666669 L 103.0 151.70666666666665 L 103.5 151.00635416666665 L 104.0 150.30791666666664 L 104.5 149.61135416666667 L 105.0 148.91666666666663 L 105.5 148.22385416666668 L 106.0 147.53291666666667 L 106.5 146.8438541666667 L 107.0 146.15666666666664 L 107.5 145.47135416666663 L 108.0 144.78791666666666 L 108.5 144.10635416666668 L 109.0 143.42666666666662 L 109.5 142.74885416666666 L 110.0 142.07291666666669 L 110.5 141.39885416666664 L 111.0 140.7266666666667 L 111.5 140.05635416666667 L 112.0 139.38791666666663 L 112.5 138.72135416666669 L 113.0 138.05666666666667 L 113.5 137.39385416666664 L 114.0 136.73291666666665 L 114.5 136.0738541666666 L 115.0 135.41666666666663 L 115.5 134.76135416666665 L 116.0 134.1079166666666 L 116.5 133.4563541666667 L 117.0 132.80666666666662 L 117.5 132.15885416666669 L 118.0 131.51291666666663 L 118.5 130.86885416666667 L 119.0 130.22666666666663 L 119.5 129.58635416666664 L 120.0 128.94791666666669 L 120.5 128.31135416666666 L 121.0 127.67666666666668 L 121.5 127.04385416666668 L 122.0 126.41291666666666 L 122.5 125.78385416666663 L 123.0 125.15666666666664 L 123.5 124.53135416666669 L 124.0 123.90791666666667 L 124.5 123.28635416666668 L 125.0 122.66666666666663 L 125.5 122.04885416666662 L 126.0 121.43291666666664 L 126.5 120.81885416666665 L 127.0 120.2066666666667 L 127.5 119.59635416666663 L 128.0 118.9879166666667 L 128.5 118.3813541666666 L 129.0 117.7766666666667 L 129.5 117.17385416666667 L 130.0 116.57291666666669 L 130.5 115.97385416666668 L 131.0 115.37666666666661 L 131.5 114.78135416666663 L 132.0 114.1879166666667 L 132.5 113.59635416666669 L 133.0 113.00666666666666 L 133.5 112.41885416666668 L 134.0 111.83291666666668 L 134.5 111.24885416666666 L 135.0 110.66666666666663 L 135.5 110.0863541666667 L 136.0 109.50791666666663 L 136.5 108.93135416666661 L 137.0 108.35666666666668 L 137.5 107.78385416666663 L 138.0 107.21291666666667 L 138.5 106.64385416666659 L 139.0 106.07666666666665 L 139.5 105.51135416666665 L 140.0 104.94791666666663 L 140.5 104.38635416666665 L 141.0 103.82666666666665 L 141.5 103.26885416666664 L 142.0 102.71291666666667 L 142.5 102.15885416666669 L 143.0 101.60666666666668 L 143.5 101.05635416666667 L 144.0 100.50791666666663 L 144.5 99.9613541666667 L 145.0 99.41666666666663 L 145.5 98.87385416666666 L 146.0 98.33291666666668 L 146.5 97.79385416666662 L 147.0 97.25666666666666 L 147.5 96.72135416666669 L 148.0 96.18791666666664 L 148.5 95.65635416666669 L 149.0 95.12666666666667 L 149.5 94.59885416666663 L 150.0 94.07291666666669 L 150.5 93.54885416666667 L 151.0 93.02666666666664 L 151.5 92.50635416666671 L 152.0 91.98791666666665 L 152.5 91.47135416666663 L 153.0 90.95666666666665 L 153.5 90.44385416666665 L 154.0 89.93291666666664 L 154.5 89.42385416666667 L 155.0 88.91666666666663 L 155.5 88.41135416666663 L 156.0 87.90791666666667 L 156.5 87.40635416666663 L 157.0 86.90666666666664 L 157.5 86.40885416666669 L 158.0 85.91291666666666 L 158.5 85.41885416666662 L 159.0 84.92666666666668 L 159.5 84.43635416666666 L 160.0 83.94791666666669 L 160.5 83.4613541666667 L 161.0 82.97666666666663 L 161.5 82.49385416666672 L 162.0 82.01291666666668 L 162.5 81.53385416666669 L 163.0 81.05666666666667 L 163.5 80.5813541666667 L 164.0 80.10791666666665 L 164.5 79.63635416666659 L 165.0 79.16666666666669 L 165.5 78.69885416666665 L 166.0 78.23291666666665 L 166.5 77.7688541666667 L 167.0 77.30666666666662 L 167.5 76.84635416666669 L 168.0 76.38791666666663 L 168.5 75.93135416666661 L 169.0 75.47666666666663 L 169.5 75.02385416666664 L 170.0 74.57291666666657 L 170.5 74.12385416666666 L 171.0 73.67666666666673 L 171.5 73.23135416666668 L 172.0 72.7879166666666 L 172.5 72.34635416666663 L 173.0 71.9066666666667 L 173.5 71.46885416666663 L 174.0 71.03291666666667 L 174.5 70.59885416666663 L 175.0 70.16666666666657 L 175.5 69.73635416666667 L 176.0 69.3079166666667 L 176.5 68.88135416666665 L 177.0 68.45666666666665 L 177.5 68.03385416666669 L 178.0 67.61291666666659 L 178.5 67.19385416666654 L 179.0 66.77666666666664 L 179.5 66.36135416666662 L 180.0 65.94791666666669 L 180.5 65.53635416666663 L 181.0 65.12666666666667 L 181.5 64.71885416666669 L 182.0 64.31291666666658 L 182.5 63.908854166666686 L 183.0 63.506666666666604 L 183.5 63.10635416666668 L 184.0 62.70791666666662 L 184.5 62.311354166666604 L 185.0 61.916666666666686 L 185.5 61.523854166666695 L 186.0 61.13291666666669 L 186.5 60.74385416666672 L 187.0 60.35666666666674 L 187.5 59.97135416666663 L 188.0 59.58791666666667 L 188.5 59.20635416666664 L 189.0 58.826666666666654 L 189.5 58.44885416666665 L 190.0 58.072916666666686 L 190.5 57.69885416666665 L 191.0 57.326666666666654 L 191.5 56.95635416666664 L 192.0 56.587916666666615 L 192.5 56.22135416666663 L 193.0 55.85666666666668 L 193.5 55.49385416666661 L 194.0 55.13291666666669 L 194.5 54.77385416666664 L 195.0 54.416666666666686 L 195.5 54.06135416666666 L 196.0 53.70791666666662 L 196.5 53.35635416666662 L 197.0 53.00666666666666 L 197.5 52.65885416666663 L 198.0 52.31291666666664 L 198.5 51.96885416666669 L 199.0 51.626666666666665 L 199.5 51.28635416666668 L 200.0 50.94791666666663 L 200.5 50.61135416666667 L 201.0 50.27666666666664 L 201.5 49.943854166666654 L 202.0 49.61291666666659 L 202.5 49.28385416666663 L 203.0 48.95666666666659 L 203.5 48.631354166666654 L 204.0 48.3079166666667 L 204.5 47.98635416666667 L 205.0 47.666666666666686 L 205.5 47.34885416666668 L 206.0 47.032916666666665 L 206.5 46.718854166666574 L 207.0 46.40666666666664 L 207.5 46.09635416666663 L 208.0 45.78791666666666 L 208.5 45.48135416666668 L 209.0 45.17666666666668 L 209.5 44.87385416666666 L 210.0 44.572916666666686 L 210.5 44.27385416666664 L 211.0 43.97666666666663 L 211.5 43.681354166666665 L 212.0 43.38791666666663 L 212.5 43.096354166666686 L 213.0 42.80666666666667 L 213.5 42.5188541666667 L 214.0 42.232916666666654 L 214.5 41.94885416666665 L 215.0 41.66666666666663 L 215.5 41.66666666666663 L 216.0 41.66666666666663 L 216.5 41.66666666666663 L 217.0 41.66666666666663 L 217.5 41.66666666666663 L 218.0 41.66666666666663 L 218.5 41.66666666666663 L 219.0 41.66666666666663 L 219.5 41.66666666666663 L 220.0 41.66666666666663 L 220.5 41.66666666666663 L 221.0 41.66666666666663 L 221.5 41.66666666666663 L 222.0 41.66666666666663 L 222.5 41.66666666666663 L 223.0 41.66666666666663 L 223.5 41.66666666666663 L 224.0 41.66666666666663 L 224.5 41.66666666666663 L 225.0 41.66666666666663 L 225.5 41.66666666666663 L 226.0 41.66666666666663 L 226.5 41.66666666666663 L 227.0 41.66666666666663 L 227.5 41.66666666666663 L 228.0 41.66666666666663 L 228.5 41.66666666666663 L 229.0 41.66666666666663 L 229.5 41.66666666666663 L 230.0 41.66666666666663 L 230.5 41.66666666666663 L 231.0 41.66666666666663 L 231.5 41.66666666666663 L 232.0 41.66666666666663 L 232.5 41.66666666666663 L 233.0 41.66666666666663 L 233.5 41.66666666666663 L 234.0 41.66666666666663 L 234.5 41.66666666666663 L 235.0 41.66666666666663 L 235.5 41.66666666666663 L 236.0 41.66666666666663 L 236.5 41.66666666666663 L 237.0 41.66666666666663 L 237.5 41.66666666666663 L 238.0 41.66666666666663 L 238.5 41.66666666666663 L 239.0 41.66666666666663 L 239.5 41.66666666666663 L 240.0 41.66666666666663 L 240.5 41.66666666666663 L 241.0 41.66666666666663 L 241.5 41.66666666666663 L 242.0 41.66666666666663 L 242.5 41.66666666666663 L 243.0 41.66666666666663 L 243.5 41.66666666666663 L 244.0 41.66666666666663 L 244.5 41.66666666666663 L 245.0 41.66666666666663 L 245.5 41.66666666666663 L 246.0 41.66666666666663 L 246.5 41.66666666666663 L 247.0 41.66666666666663 L 247.5 41.66666666666663 L 248.0 41.66666666666663 L 248.5 41.66666666666663 L 249.0 41.66666666666663 L 249.5 41.66666666666663 L 250.0 41.66666666666663 L 250.5 41.66666666666663 L 251.0 41.66666666666663 L 251.5 41.66666666666663 L 252.0 41.66666666666663 L 252.5 41.66666666666663 L 253.0 41.66666666666663 L 253.5 41.66666666666663 L 254.0 41.66666666666663 L 254.5 41.66666666666663 L 255.0 41.66666666666663 L 255.5 41.66666666666663 L 256.0 41.66666666666663 L 256.5 41.66666666666663 L 257.0 41.66666666666663 L 257.5 41.66666666666663 L 258.0 41.66666666666663 L 258.5 41.66666666666663 L 259.0 41.66666666666663 L 259.5 41.66666666666663 L 260.0 41.66666666666663 L 260.5 41.66666666666663 L 261.0 41.66666666666663 L 261.5 41.66666666666663 L 262.0 41.66666666666663 L 262.5 41.66666666666663 L 263.0 41.66666666666663 L 263.5 41.66666666666663 L 264.0 41.66666666666663 L 264.5 41.66666666666663 L 265.0 41.66666666666663 L 265.5 41.66666666666663 L 266.0 41.66666666666663 L 266.5 41.66666666666663 L 267.0 41.66666666666663 L 267.5 41.66666666666663 L 268.0 41.66666666666663 L 268.5 41.66666666666663 L 269.0 41.66666666666663 L 269.5 41.66666666666663 L 270.0 41.66666666666663 L 270.5 41.66666666666663 L 271.0 41.66666666666663 L 271.5 41.66666666666663 L 272.0 41.66666666666663 L 272.5 41.66666666666663 L 273.0 41.66666666666663 L 273.5 41.66666666666663 L 274.0 41.66666666666663 L 274.5 41.66666666666663 L 275.0 41.66666666666663 L 275.5 41.66666666666663 L 276.0 41.66666666666663 L 276.5 41.66666666666663 L 277.0 41.66666666666663 L 277.5 41.66666666666663 L 278.0 41.66666666666663 L 278.5 41.66666666666663 L 279.0 41.66666666666663 L 279.5 41.66666666666663 L 280.0 41.66666666666663 L 280.5 41.66666666666663 L 281.0 41.66666666666663 L 281.5 41.66666666666663 L 282.0 41.66666666666663 L 282.5 41.66666666666663 L 283.0 41.66666666666663 L 283.5 41.66666666666663 L 284.0 41.66666666666663 L 284.5 41.66666666666663 L 285.0 41.66666666666663 L 285.5 41.66666666666663 L 286.0 41.66666666666663 L 286.5 41.66666666666663 L 287.0 41.66666666666663 L 287.5 41.66666666666663 L 288.0 41.66666666666663 L 288.5 41.66666666666663 L 289.0 41.66666666666663 L 289.5 41.66666666666663 L 290.0 41.66666666666663 L 290.5 41.66666666666663 L 291.0 41.66666666666663 L 291.5 41.66666666666663 L 292.0 41.66666666666663 L 292.5 41.66666666666663 L 293.0 41.66666666666663 L 293.5 41.66666666666663 L 294.0 41.66666666666663 L 294.5 41.66666666666663 L 295.0 41.66666666666663 L 295.5 41.66666666666663 L 296.0 41.66666666666663 L 296.5 41.66666666666663 L 297.0 41.66666666666663 L 297.5 41.66666666666663 L 298.0 41.66666666666663 L 298.5 41.66666666666663 L 299.0 41.66666666666663 L 299.5 41.66666666666663 L 300.0 41.66666666666663 L 300.5 41.66666666666663 L 301.0 41.66666666666663 L 301.5 41.66666666666663 L 302.0 41.66666666666663 L 302.5 41.66666666666663 L 303.0 41.66666666666663 L 303.5 41.66666666666663 L 304.0 41.66666666666663 L 304.5 41.66666666666663 L 305.0 41.66666666666663 L 305.5 41.66666666666663 L 306.0 41.66666666666663 L 306.5 41.66666666666663 L 307.0 41.66666666666663 L 307.5 41.66666666666663 L 308.0 41.66666666666663 L 308.5 41.66666666666663 L 309.0 41.66666666666663 L 309.5 41.66666666666663 L 310.0 41.66666666666663 L 310.5 41.66666666666663 L 311.0 41.66666666666663 L 311.5 41.66666666666663 L 312.0 41.66666666666663 L 312.5 41.66666666666663 L 313.0 41.66666666666663 L 313.5 41.66666666666663 L 314.0 41.66666666666663 L 314.5 41.66666666666663 L 315.0 41.66666666666663 L 315.5 41.66666666666663 L 316.0 41.66666666666663 L 316.5 41.66666666666663 L 317.0 41.66666666666663 L 317.5 41.66666666666663 L 318.0 41.66666666666663 L 318.5 41.66666666666663 L 319.0 41.66666666666663 L 319.5 41.66666666666663 L 320.0 41.66666666666663 L 320.5 41.66666666666663 L 321.0 41.66666666666663 L 321.5 41.66666666666663 L 322.0 41.66666666666663 L 322.5 41.66666666666663 L 323.0 41.66666666666663 L 323.5 41.66666666666663 L 324.0 41.66666666666663 L 324.5 41.66666666666663 L 325.0 41.66666666666663 L 325.5 41.66666666666663 L 326.0 41.66666666666663 L 326.5 41.66666666666663 L 327.0 41.66666666666663 L 327.5 41.66666666666663 L 328.0 41.66666666666663 L 328.5 41.66666666666663 L 329.0 41.66666666666663 L 329.5 41.66666666666663 L 330.0 41.66666666666663 L 330.5 41.66666666666663 L 331.0 41.66666666666663 L 331.5 41.66666666666663 L 332.0 41.66666666666663 L 332.5 41.66666666666663 L 333.0 41.66666666666663 L 333.5 41.66666666666663 L 334.0 41.66666666666663 L 334.5 41.66666666666663 L 335.0 41.66666666666663 L 335.5 41.66666666666663 L 336.0 41.66666666666663 L 336.5 41.66666666666663 L 337.0 41.66666666666663 L 337.5 41.66666666666663 L 338.0 41.66666666666663 L 338.5 41.66666666666663 L 339.0 41.66666666666663 L 339.5 41.66666666666663 L 340.0 41.66666666666663 L 340.5 41.66666666666663 L 341.0 41.66666666666663 L 341.5 41.66666666666663 L 342.0 41.66666666666663 L 342.5 41.66666666666663 L 343.0 41.66666666666663 L 343.5 41.66666666666663 L 344.0 41.66666666666663 L 344.5 41.66666666666663 L 345.0 41.66666666666663 L 345.5 41.66666666666663 L 346.0 41.66666666666663 L 346.5 41.66666666666663 L 347.0 41.66666666666663 L 347.5 41.66666666666663 L 348.0 41.66666666666663 L 348.5 41.66666666666663 L 349.0 41.66666666666663 L 349.5 41.66666666666663 L 350.0 41.66666666666663 L 350.5 41.66666666666663 L 351.0 41.66666666666663 L 351.5 41.66666666666663 L 352.0 41.66666666666663 L 352.5 41.66666666666663 L 353.0 41.66666666666663 L 353.5 41.66666666666663 L 354.0 41.66666666666663 L 354.5 41.66666666666663 L 355.0 41.66666666666663 L 355.5 41.66666666666663 L 356.0 41.66666666666663 L 356.5 41.66666666666663 L 357.0 41.66666666666663 L 357.5 41.66666666666663 L 358.0 41.66666666666663 L 358.5 41.66666666666663 L 359.0 41.66666666666663 L 359.5 41.66666666666663 L 360.0 41.66666666666663 L 360.5 41.66666666666663 L 361.0 41.66666666666663 L 361.5 41.66666666666663 L 362.0 41.66666666666663 L 362.5 41.66666666666663 L 363.0 41.66666666666663 L 363.5 41.66666666666663 L 364.0 41.66666666666663 L 364.5 41.66666666666663 L 365.0 41.66666666666663 L 365.5 41.94885416666665 L 366.0 42.232916666666654 L 366.5 42.5188541666667 L 367.0 42.80666666666667 L 367.5 43.096354166666686 L 368.0 43.38791666666663 L 368.5 43.681354166666665 L 369.0 43.97666666666663 L 369.5 44.27385416666664 L 370.0 44.572916666666686 L 370.5 44.87385416666666 L 371.0 45.17666666666668 L 371.5 45.48135416666668 L 372.0 45.78791666666666 L 372.5 46.09635416666663 L 373.0 46.40666666666664 L 373.5 46.71885416666669 L 374.0 47.032916666666665 L 374.5 47.34885416666668 L 375.0 47.666666666666686 L 375.5 47.98635416666667 L 376.0 48.3079166666667 L 376.5 48.631354166666654 L 377.0 48.956666666666706 L 377.5 49.283854166666686 L 378.0 49.61291666666659 L 378.5 49.943854166666654 L 379.0 50.27666666666664 L 379.5 50.61135416666667 L 380.0 50.94791666666663 L 380.5 51.28635416666668 L 381.0 51.626666666666665 L 381.5 51.96885416666669 L 382.0 52.31291666666664 L 382.5 52.65885416666663 L 383.0 53.00666666666666 L 383.5 53.35635416666668 L 384.0 53.70791666666662 L 384.5 54.061354166666604 L 385.0 54.416666666666686 L 385.5 54.77385416666664 L 386.0 55.132916666666574 L 386.5 55.49385416666661 L 387.0 55.85666666666668 L 387.5 56.22135416666663 L 388.0 56.587916666666615 L 388.5 56.95635416666664 L 389.0 57.326666666666654 L 389.5 57.69885416666665 L 390.0 58.072916666666686 L 390.5 58.44885416666659 L 391.0 58.826666666666654 L 391.5 59.20635416666664 L 392.0 59.58791666666667 L 392.5 59.97135416666663 L 393.0 60.35666666666663 L 393.5 60.74385416666661 L 394.0 61.132916666666574 L 394.5 61.523854166666695 L 395.0 61.91666666666663 L 395.5 62.311354166666604 L 396.0 62.70791666666662 L 396.5 63.10635416666668 L 397.0 63.506666666666604 L 397.5 63.908854166666686 L 398.0 64.31291666666658 L 398.5 64.71885416666669 L 399.0 65.12666666666667 L 399.5 65.53635416666663 L 400.0 65.94791666666669 L 400.5 66.36135416666662 L 401.0 66.77666666666664 L 401.5 67.19385416666654 L 402.0 67.61291666666659 L 402.5 68.03385416666669 L 403.0 68.45666666666665 L 403.5 68.88135416666665 L 404.0 69.3079166666667 L 404.5 69.73635416666667 L 405.0 70.16666666666657 L 405.5 70.59885416666663 L 406.0 71.03291666666667 L 406.5 71.46885416666663 L 407.0 71.9066666666667 L 407.5 72.34635416666663 L 408.0 72.7879166666666 L 408.5 73.23135416666668 L 409.0 73.67666666666673 L 409.5 74.12385416666666 L 410.0 74.57291666666657 L 410.5 75.02385416666664 L 411.0 75.47666666666663 L 411.5 75.93135416666661 L 412.0 76.38791666666663 L 412.5 76.84635416666669 L 413.0 77.30666666666662 L 413.5 77.7688541666667 L 414.0 78.23291666666665 L 414.5 78.69885416666665 L 415.0 79.16666666666669 L 415.5 79.63635416666659 L 416.0 80.10791666666665 L 416.5 80.5813541666667 L 417.0 81.05666666666667 L 417.5 81.53385416666669 L 418.0 82.01291666666668 L 418.5 82.49385416666672 L 419.0 82.97666666666663 L 419.5 83.4613541666667 L 420.0 83.94791666666669 L 420.5 84.43635416666666 L 421.0 84.92666666666668 L 421.5 85.41885416666662 L 422.0 85.91291666666666 L 422.5 86.40885416666669 L 423.0 86.9066666666667 L 423.5 87.40635416666663 L 424.0 87.90791666666672 L 424.5 88.41135416666663 L 425.0 88.91666666666669 L 425.5 89.42385416666667 L 426.0 89.9329166666667 L 426.5 90.44385416666665 L 427.0 90.9566666666667 L 427.5 91.47135416666663 L 428.0 91.98791666666665 L 428.5 92.50635416666671 L 429.0 93.0266666666667 L 429.5 93.54885416666667 L 430.0 94.07291666666669 L 430.5 94.59885416666663 L 431.0 95.12666666666667 L 431.5 95.65635416666669 L 432.0 96.1879166666667 L 432.5 96.72135416666669 L 433.0 97.25666666666672 L 433.5 97.79385416666662 L 434.0 98.33291666666673 L 434.5 98.87385416666666 L 435.0 99.41666666666669 L 435.5 99.9613541666667 L 436.0 100.50791666666669 L 436.5 101.05635416666667 L 437.0 101.60666666666668 L 437.5 102.15885416666669 L 438.0 102.71291666666673 L 438.5 103.2688541666667 L 439.0 103.82666666666665 L 439.5 104.38635416666665 L 440.0 104.94791666666669 L 440.5 105.5113541666667 L 441.0 106.07666666666671 L 441.5 106.64385416666664 L 442.0 107.21291666666673 L 442.5 107.78385416666663 L 443.0 108.35666666666674 L 443.5 108.93135416666667 L 444.0 109.50791666666669 L 444.5 110.0863541666667 L 445.0 110.66666666666669 L 445.5 111.24885416666666 L 446.0 111.83291666666668 L 446.5 112.41885416666662 L 447.0 113.00666666666666 L 447.5 113.59635416666663 L 448.0 114.1879166666667 L 448.5 114.78135416666663 L 449.0 115.37666666666661 L 449.5 115.97385416666663 L 450.0 116.57291666666663 L 450.5 117.17385416666662 L 451.0 117.77666666666664 L 451.5 118.3813541666666 L 452.0 118.98791666666665 L 452.5 119.59635416666657 L 453.0 120.20666666666665 L 453.5 120.81885416666665 L 454.0 121.43291666666659 L 454.5 122.04885416666662 L 455.0 122.66666666666663 L 455.5 123.28635416666668 L 456.0 123.90791666666667 L 456.5 124.53135416666669 L 457.0 125.15666666666664 L 457.5 125.78385416666657 L 458.0 126.41291666666666 L 458.5 127.04385416666662 L 459.0 127.67666666666668 L 459.5 128.3113541666666 L 460.0 128.94791666666669 L 460.5 129.58635416666658 L 461.0 130.22666666666663 L 461.5 130.86885416666667 L 462.0 131.51291666666663 L 462.5 132.15885416666669 L 463.0 132.80666666666662 L 463.5 133.45635416666664 L 464.0 134.1079166666666 L 464.5 134.76135416666665 L 465.0 135.41666666666663 L 465.5 136.0738541666666 L 466.0 136.7329166666666 L 466.5 137.39385416666664 L 467.0 138.05666666666662 L 467.5 138.72135416666663 L 468.0 139.38791666666663 L 468.5 140.0563541666666 L 469.0 140.7266666666667 L 469.5 141.39885416666664 L 470.0 142.07291666666669 L 470.5 142.74885416666666 L 471.0 143.42666666666662 L 471.5 144.10635416666668 L 472.0 144.78791666666666 L 472.5 145.47135416666663 L 473.0 146.15666666666664 L 473.5 146.8438541666667 L 474.0 147.5329166666666 L 474.5 148.22385416666668 L 475.0 148.91666666666663 L 475.5 149.61135416666667 L 476.0 150.30791666666664 L 476.5 151.00635416666665 L 477.0 151.70666666666665 L 477.5 152.40885416666669 L 478.0 153.1129166666666 L 478.5 153.8188541666667 L 479.0 154.52666666666664 L 479.5 155.23635416666667 L 480.0 155.94791666666663 L 480.5 156.66135416666663 L 481.0 157.37666666666667 L 481.5 158.09385416666663 L 482.0 158.8129166666667 L 482.5 159.53385416666669 L 483.0 160.25666666666666 L 483.5 160.98135416666668 L 484.0 161.70791666666668 L 484.5 162.43635416666666 L 485.0 163.16666666666663 L 485.5 163.89885416666664 L 486.0 164.6329166666667 L 486.5 165.3688541666666 L 487.0 166.10666666666668 L 487.5 166.84635416666663 L 488.0 167.58791666666667 L 488.5 168.33135416666659 L 489.0 169.07666666666665 L 489.5 169.82385416666665 L 490.0 170.57291666666669 L 490.5 171.32385416666665 L 491.0 172.07666666666665 L 491.5 172.8313541666667 L 492.0 173.58791666666667 L 492.5 174.34635416666669 L 493.0 175.10666666666663 L 493.5 175.86885416666672 L 494.0 176.63291666666663 L 494.5 177.3988541666667 L 495.0 178.16666666666663 L 495.5 178.93635416666666 L 496.0 179.70791666666668 L 496.5 180.48135416666668 L 497.0 181.25666666666666 L 497.5 182.03385416666674 L 498.0 182.81291666666664 L 498.5 183.5938541666667 L 499.0 184.37666666666667 L 499.5 185.16135416666668 L 500.0 185.94791666666663 L 500.5 186.73635416666667 L 501.0 187.5266666666667 L 501.5 188.31885416666665 L 502.0 189.1129166666667 L 502.5 189.90885416666669 L 503.0 190.7066666666667 L 503.5 191.50635416666665 L 504.0 192.30791666666676 L 504.5 193.11135416666667 L 505.0 193.91666666666669 L 505.5 194.72385416666668 L 506.0 195.53291666666667 L 506.5 196.3438541666667 L 507.0 197.1566666666667 L 507.5 197.97135416666669 L 508.0 198.78791666666672 L 508.5 199.60635416666668 L 509.0 200.42666666666662 L 509.5 201.24885416666666 L 510.0 202.07291666666663 L 510.5 202.89885416666664 L 511.0 203.72666666666663 L 511.5 204.5563541666666 L 512.0 205.38791666666663 L 512.5 206.22135416666657 L 513.0 207.05666666666662 L 513.5 207.89385416666659 L 514.0 208.73291666666665 L 514.5 209.5738541666666 L 515.0 210.41666666666663 L 515.5 211.26135416666665 L 516.0 212.1079166666666 L 516.5 212.95635416666664 L 517.0 213.80666666666662 L 517.5 214.65885416666663 L 518.0 215.51291666666663 L 518.5 216.3688541666666 L 519.0 217.22666666666657 L 519.5 218.08635416666658 L 520.0 218.94791666666663 L 520.5 219.8113541666666 L 521.0 220.67666666666662 L 521.5 221.54385416666662 L 522.0 222.4129166666666 L 522.5 223.28385416666663 L 523.0 224.15666666666664 L 523.5 225.03135416666663 L 524.0 225.90791666666667 L 524.5 226.78635416666663 L 525.0 227.66666666666669 L 525.5 228.54885416666667 L 526.0 229.43291666666659 L 526.5 230.31885416666665 L 527.0 231.2066666666666 L 527.5 232.09635416666663 L 528.0 232.98791666666665 L 528.5 233.8813541666666 L 529.0 234.77666666666664 L 529.5 235.67385416666656 L 530.0 236.57291666666663 L 530.5 237.47385416666668 L 531.0 238.3766666666666 L 531.5 239.28135416666663 L 532.0 240.1879166666667 L 532.5 241.09635416666663 L 533.0 242.00666666666666 L 533.5 242.91885416666668 L 534.0 243.83291666666662 L 534.5 244.74885416666663 L 535.0 245.66666666666666 L 535.5 246.5863541666667 L 536.0 247.50791666666666 L 536.5 248.4313541666666 L 537.0 249.35666666666668 L 537.5 250.0 L 538.0 250.0 L 538.5 250.0 L 539.0 250.0 L 539.5 250.0 L 540.0 250.0 " stroke="red" stroke-width="2px" fill="none" /></g></svg>