<?xml version="1.0" encoding="iso-8859-1"?>
<!DOCTYPE svg PUBLIC "-//W3C//DTD SVG 1.1//EN" "http://www.w3.org/Graphics/SVG/1.1/DTD/svg11.dtd">
<svg width="540" height="540"><g><line x1="40" y1="540" x2="40" stroke="black" stroke-width="1px" /> <line x1="30" y1="10" x2="40" y2="0" stroke="black" stroke-width="1px" /> <line x1="50" y1="10" x2="40" y2="0" stroke="black" stroke-width="1px" /> <text font-family="times-roman" font-size="15" stroke="blue" color="blue" fill="blue" x="10" y="15">2.0</text> <text font-family="times-roman" font-size="15" stroke="blue" color="blue" fill="blue" x="10" y="510">-1.0</text> <line x1="0" y1="333.3333333333333" x2="540" y2="333.3333333333333" stroke="black" stroke-width="1px" /> <line x1="530" y1="323.3333333333333" x2="540" y2="333.3333333333333" stroke="black" stroke-width="1px" /> <line x1="530" y1="343.3333333333333" x2="540" y2="333.3333333333333" stroke="black" stroke-width="1px" /> <text font-family="times-roman" font-size="15" stroke="blue" color="blue" fill="blue" x="530" y="358.3333333333333">1</text> <path d="M 40.0 -5.208333333333371 L 40.5 -4.292583333333255 L 41.0 -3.378666666666618 L 41.5 -2.4665833333334035 L 42.0 -1.5563333333333844 L 42.5 -0.6479166666667311 L 43.0 0.25866666666667015 L 43.5 1.1634166666667056 L 44.0 2.0663333333333185 L 44.5 2.9674166666666792 L 45.0 3.8666666666666742 L 45.5 4.76408333333336 L 46.0 5.659666666666681 L 46.5 6.553416666666692 L 47.0 7.445333333333281 L 47.5 8.335416666666731 L 48.0 9.223666666666702 L 48.5 10.110083333333364 L 49.0 10.99466666666666 L 49.5 11.877416666666647 L 50.0 12.758333333333383 L 50.5 13.637416666666638 L 51.0 14.514666666666699 L 51.5 15.390083333333337 L 52.0 16.263666666666666 L 52.5 17.13541666666663 L 53.0 18.005333333333397 L 53.5 18.87341666666663 L 54.0 19.739666666666665 L 54.5 20.604083333333335 L 55.0 21.466666666666697 L 55.5 22.327416666666693 L 56.0 23.186333333333323 L 56.5 24.0434166666667 L 57.0 24.898666666666657 L 57.5 25.75208333333336 L 58.0 26.603666666666697 L 58.5 27.45341666666667 L 59.0 28.301333333333332 L 59.5 29.147416666666686 L 60.0 29.991666666666617 L 60.5 30.834083333333297 L 61.0 31.674666666666667 L 61.5 32.51341666666667 L 62.0 33.35033333333337 L 62.5 34.18541666666664 L 63.0 35.01866666666672 L 63.5 35.850083333333316 L 64.0 36.67966666666666 L 64.5 37.5074166666667 L 65.0 38.333333333333314 L 65.5 39.15741666666668 L 66.0 39.979666666666674 L 66.5 40.80008333333336 L 67.0 41.618666666666684 L 67.5 42.4354166666667 L 68.0 43.2503333333334 L 68.5 44.06341666666668 L 69.0 44.874666666666656 L 69.5 45.68408333333332 L 70.0 46.491666666666674 L 70.5 47.29741666666666 L 71.0 48.10133333333334 L 71.5 48.90341666666666 L 72.0 49.70366666666666 L 72.5 50.50208333333336 L 73.0 51.298666666666634 L 73.5 52.093416666666656 L 74.0 52.88633333333337 L 74.5 53.67741666666666 L 75.0 54.46666666666664 L 75.5 55.25408333333331 L 76.0 56.039666666666676 L 76.5 56.82341666666662 L 77.0 57.60533333333336 L 77.5 58.385416666666686 L 78.0 59.16366666666664 L 78.5 59.940083333333405 L 79.0 60.71466666666669 L 79.5 61.487416666666604 L 80.0 62.258333333333326 L 80.5 63.02741666666668 L 81.0 63.79466666666667 L 81.5 64.5600833333333 L 82.0 65.32366666666673 L 82.5 66.08541666666667 L 83.0 66.84533333333337 L 83.5 67.60341666666665 L 84.0 68.35966666666667 L 84.5 69.11408333333333 L 85.0 69.86666666666667 L 85.5 70.61741666666666 L 86.0 71.36633333333339 L 86.5 72.11341666666664 L 87.0 72.85866666666669 L 87.5 73.60208333333327 L 88.0 74.34366666666665 L 88.5 75.08341666666667 L 89.0 75.82133333333331 L 89.5 76.55741666666665 L 90.0 77.29166666666669 L 90.5 78.02408333333341 L 91.0 78.75466666666671 L 91.5 79.4834166666667 L 92.0 80.21033333333332 L 92.5 80.93541666666664 L 93.0 81.65866666666659 L 93.5 82.38008333333329 L 94.0 83.09966666666662 L 94.5 83.81741666666659 L 95.0 84.53333333333336 L 95.5 85.24741666666665 L 96.0 85.95966666666664 L 96.5 86.67008333333337 L 97.0 87.37866666666668 L 97.5 88.08541666666662 L 98.0 88.79033333333331 L 98.5 89.49341666666669 L 99.0 90.19466666666665 L 99.5 90.8940833333333 L 100.0 91.5916666666667 L 100.5 92.28741666666667 L 101.0 92.98133333333334 L 101.5 93.6734166666667 L 102.0 94.36366666666669 L 102.5 95.05208333333331 L 103.0 95.73866666666663 L 103.5 96.42341666666664 L 104.0 97.10633333333334 L 104.5 97.78741666666662 L 105.0 98.46666666666664 L 105.5 99.1440833333333 L 106.0 99.8196666666667 L 106.5 100.49341666666669 L 107.0 101.16533333333331 L 107.5 101.83541666666667 L 108.0 102.50366666666662 L 108.5 103.17008333333331 L 109.0 103.83466666666669 L 109.5 104.4974166666666 L 110.0 105.1583333333333 L 110.5 105.8174166666667 L 111.0 106.47466666666668 L 111.5 107.13008333333329 L 112.0 107.78366666666665 L 112.5 108.43541666666675 L 113.0 109.08533333333332 L 113.5 109.73341666666664 L 114.0 110.3796666666666 L 114.5 111.02408333333335 L 115.0 111.66666666666663 L 115.5 112.30741666666665 L 116.0 112.94633333333337 L 116.5 113.58341666666672 L 117.0 114.21866666666665 L 117.5 114.85208333333338 L 118.0 115.48366666666669 L 118.5 116.1134166666667 L 119.0 116.74133333333333 L 119.5 117.36741666666671 L 120.0 117.99166666666673 L 120.5 118.61408333333333 L 121.0 119.23466666666667 L 121.5 119.85341666666665 L 122.0 120.47033333333331 L 122.5 121.08541666666667 L 123.0 121.69866666666667 L 123.5 122.3100833333333 L 124.0 122.91966666666673 L 124.5 123.52741666666668 L 125.0 124.13333333333338 L 125.5 124.73741666666666 L 126.0 125.33966666666663 L 126.5 125.94008333333335 L 127.0 126.53866666666664 L 127.5 127.13541666666669 L 128.0 127.73033333333336 L 128.5 128.32341666666662 L 129.0 128.91466666666668 L 129.5 129.50408333333337 L 130.0 130.09166666666664 L 130.5 130.67741666666666 L 131.0 131.26133333333337 L 131.5 131.84341666666666 L 132.0 132.42366666666663 L 132.5 133.00208333333336 L 133.0 133.57866666666666 L 133.5 134.15341666666666 L 134.0 134.72633333333334 L 134.5 135.29741666666666 L 135.0 135.86666666666662 L 135.5 136.43408333333332 L 136.0 136.99966666666666 L 136.5 137.56341666666668 L 137.0 138.1253333333333 L 137.5 138.6854166666667 L 138.0 139.24366666666668 L 138.5 139.8000833333333 L 139.0 140.35466666666662 L 139.5 140.90741666666668 L 140.0 141.45833333333331 L 140.5 142.00741666666664 L 141.0 142.55466666666666 L 141.5 143.10008333333337 L 142.0 143.64366666666666 L 142.5 144.1854166666667 L 143.0 144.7253333333333 L 143.5 145.26341666666667 L 144.0 145.79966666666672 L 144.5 146.33408333333335 L 145.0 146.86666666666662 L 145.5 147.3974166666667 L 146.0 147.9263333333334 L 146.5 148.45341666666667 L 147.0 148.97866666666664 L 147.5 149.5020833333333 L 148.0 150.0236666666666 L 148.5 150.54341666666664 L 149.0 151.06133333333332 L 149.5 151.57741666666664 L 150.0 152.0916666666667 L 150.5 152.60408333333328 L 151.0 153.11466666666666 L 151.5 153.62341666666674 L 152.0 154.13033333333334 L 152.5 154.63541666666663 L 153.0 155.13866666666672 L 153.5 155.64008333333334 L 154.0 156.13966666666664 L 154.5 156.6374166666667 L 155.0 157.13333333333333 L 155.5 157.6274166666667 L 156.0 158.11966666666666 L 156.5 158.6100833333333 L 157.0 159.09866666666665 L 157.5 159.58541666666667 L 158.0 160.07033333333334 L 158.5 160.5534166666667 L 159.0 161.03466666666668 L 159.5 161.51408333333336 L 160.0 161.99166666666662 L 160.5 162.46741666666668 L 161.0 162.94133333333338 L 161.5 163.4134166666667 L 162.0 163.88366666666673 L 162.5 164.35208333333333 L 163.0 164.81866666666667 L 163.5 165.2834166666667 L 164.0 165.74633333333333 L 164.5 166.2074166666667 L 165.0 166.66666666666669 L 165.5 166.66666666666669 L 166.0 166.66666666666669 L 166.5 166.66666666666669 L 167.0 166.66666666666669 L 167.5 166.66666666666669 L 168.0 166.66666666666669 L 168.5 166.66666666666669 L 169.0 166.66666666666669 L 169.5 166.66666666666669 L 170.0 166.66666666666669 L 170.5 166.66666666666669 L 171.0 166.66666666666669 L 171.5 166.66666666666669 L 172.0 166.66666666666669 L 172.5 166.66666666666669 L 173.0 166.66666666666669 L 173.5 166.66666666666669 L 174.0 166.66666666666669 L 174.5 166.66666666666669 L 175.0 166.66666666666669 L 175.5 166.66666666666669 L 176.0 166.66666666666669 L 176.5 166.66666666666669 L 177.0 166.66666666666669 L 177.5 166.66666666666669 L 178.0 166.66666666666669 L 178.5 166.66666666666669 L 179.0 166.66666666666669 L 179.5 166.66666666666669 L 180.0 166.66666666666669 L 180.5 166.66666666666669 L 181.0 166.66666666666669 L 181.5 166.66666666666669 L 182.0 166.66666666666669 L 182.5 166.66666666666669 L 183.0 166.66666666666669 L 183.5 166.66666666666669 L 184.0 166.66666666666669 L 184.5 166.66666666666669 L 185.0 166.66666666666669 L 185.5 166.66666666666669 L 186.0 166.66666666666669 L 186.5 166.66666666666669 L 187.0 166.66666666666669 L 187.5 166.66666666666669 L 188.0 166.66666666666669 L 188.5 166.66666666666669 L 189.0 166.66666666666669 L 189.5 166.66666666666669 L 190.0 166.66666666666669 L 190.5 166.66666666666669 L 191.0 166.66666666666669 L 191.5 166.66666666666669 L 192.0 166.66666666666669 L 192.5 166.66666666666669 L 193.0 166.66666666666669 L 193.5 166.66666666666669 L 194.0 166.66666666666669 L 194.5 166.66666666666669 L 195.0 166.66666666666669 L 195.5 166.66666666666669 L 196.0 166.66666666666669 L 196.5 166.66666666666669 L 197.0 166.66666666666669 L 197.5 166.66666666666669 L 198.0 166.66666666666669 L 198.5 166.66666666666669 L 199.0 166.66666666666669 L 199.5 166.66666666666669 L 200.0 166.66666666666669 L 200.5 166.66666666666669 L 201.0 166.66666666666669 L 201.5 166.66666666666669 L 202.0 166.66666666666669 L 202.5 166.66666666666669 L 203.0 166.66666666666669 L 203.5 166.66666666666669 L 204.0 166.66666666666669 L 204.5 166.66666666666669 L 205.0 166.66666666666669 L 205.5 166.66666666666669 L 206.0 166.66666666666669 L 206.5 166.66666666666669 L 207.0 166.66666666666669 L 207.5 166.66666666666669 L 208.0 166.66666666666669 L 208.5 166.66666666666669 L 209.0 166.66666666666669 L 209.5 166.66666666666669 L 210.0 166.66666666666669 L 210.5 166.66666666666669 L 211.0 166.66666666666669 L 211.5 166.66666666666669 L 212.0 166.66666666666669 L 212.5 166.66666666666669 L 213.0 166.66666666666669 L 213.5 166.66666666666669 L 214.0 166.66666666666669 L 214.5 166.66666666666669 L 215.0 166.66666666666669 L 215.5 166.66666666666669 L 216.0 166.66666666666669 L 216.5 166.66666666666669 L 217.0 166.66666666666669 L 217.5 166.66666666666669 L 218.0 166.66666666666669 L 218.5 166.66666666666669 L 219.0 166.66666666666669 L 219.5 166.66666666666669 L 220.0 166.66666666666669 L 220.5 166.66666666666669 L 221.0 166.66666666666669 L 221.5 166.66666666666669 L 222.0 166.66666666666669 L 222.5 166.66666666666669 L 223.0 166.66666666666669 L 223.5 166.66666666666669 L 224.0 166.66666666666669 L 224.5 166.66666666666669 L 225.0 166.66666666666669 L 225.5 166.66666666666669 L 226.0 166.66666666666669 L 226.5 166.66666666666669 L 227.0 166.66666666666669 L 227.5 166.66666666666669 L 228.0 166.66666666666669 L 228.5 166.66666666666669 L 229.0 166.66666666666669 L 229.5 166.66666666666669 L 230.0 166.66666666666669 L 230.5 166.66666666666669 L 231.0 166.66666666666669 L 231.5 166.66666666666669 L 232.0 166.66666666666669 L 232.5 166.66666666666669 L 233.0 166.66666666666669 L 233.5 166.66666666666669 L 234.0 166.66666666666669 L 234.5 166.66666666666669 L 235.0 166.66666666666669 L 235.5 166.66666666666669 L 236.0 166.66666666666669 L 236.5 166.66666666666669 L 237.0 166.66666666666669 L 237.5 166.66666666666669 L 238.0 166.66666666666669 L 238.5 166.66666666666669 L 239.0 166.66666666666669 L 239.5 166.66666666666669 L 240.0 166.66666666666669 L 240.5 166.66666666666669 L 241.0 166.66666666666669 L 241.5 166.66666666666669 L 242.0 166.66666666666669 L 242.5 166.66666666666669 L 243.0 166.66666666666669 L 243.5 166.66666666666669 L 244.0 166.66666666666669 L 244.5 166.66666666666669 L 245.0 166.66666666666669 L 245.5 166.66666666666669 L 246.0 166.66666666666669 L 246.5 166.66666666666669 L 247.0 166.66666666666669 L 247.5 166.66666666666669 L 248.0 166.66666666666669 L 248.5 166.66666666666669 L 249.0 166.66666666666669 L 249.5 166.66666666666669 L 250.0 166.66666666666669 L 250.5 166.66666666666669 L 251.0 166.66666666666669 L 251.5 166.66666666666669 L 252.0 166.66666666666669 L 252.5 166.66666666666669 L 253.0 166.66666666666669 L 253.5 166.66666666666669 L 254.0 166.66666666666669 L 254.5 166.66666666666669 L 255.0 166.66666666666669 L 255.5 166.66666666666669 L 256.0 166.66666666666669 L 256.5 166.66666666666669 L 257.0 166.66666666666669 L 257.5 166.66666666666669 L 258.0 166.66666666666669 L 258.5 166.66666666666669 L 259.0 166.66666666666669 L 259.5 166.66666666666669 L 260.0 166.66666666666669 L 260.5 166.66666666666669 L 261.0 166.66666666666669 L 261.5 166.66666666666669 L 262.0 166.66666666666669 L 262.5 166.66666666666669 L 263.0 166.66666666666669 L 263.5 166.66666666666669 L 264.0 166.66666666666669 L 264.5 166.66666666666669 L 265.0 166.66666666666669 L 265.5 166.66666666666669 L 266.0 166.66666666666669 L 266.5 166.66666666666669 L 267.0 166.66666666666669 L 267.5 166.66666666666669 L 268.0 166.66666666666669 L 268.5 166.66666666666669 L 269.0 166.66666666666669 L 269.5 166.66666666666669 L 270.0 166.66666666666669 L 270.5 166.66666666666669 L 271.0 166.66666666666669 L 271.5 166.66666666666669 L 272.0 166.66666666666669 L 272.5 166.66666666666669 L 273.0 166.66666666666669 L 273.5 166.66666666666669 L 274.0 166.66666666666669 L 274.5 166.66666666666669 L 275.0 166.66666666666669 L 275.5 166.66666666666669 L 276.0 166.66666666666669 L 276.5 166.66666666666669 L 277.0 166.66666666666669 L 277.5 166.66666666666669 L 278.0 166.66666666666669 L 278.5 166.66666666666669 L 279.0 166.66666666666669 L 279.5 166.66666666666669 L 280.0 166.66666666666669 L 280.5 166.66666666666669 L 281.0 166.66666666666669 L 281.5 166.66666666666669 L 282.0 166.66666666666669 L 282.5 166.66666666666669 L 283.0 166.66666666666669 L 283.5 166.66666666666669 L 284.0 166.66666666666669 L 284.5 166.66666666666669 L 285.0 166.66666666666669 L 285.5 166.66666666666669 L 286.0 166.66666666666669 L 286.5 166.66666666666669 L 287.0 166.66666666666669 L 287.5 166.66666666666669 L 288.0 166.66666666666669 L 288.5 166.66666666666669 L 289.0 166.66666666666669 L 289.5 166.66666666666669 L 290.0 166.66666666666669 L 290.5 166.66666666666669 L 291.0 166.66666666666669 L 291.5 166.66666666666669 L 292.0 166.66666666666669 L 292.5 166.66666666666669 L 293.0 166.66666666666669 L 293.5 166.66666666666669 L 294.0 166.66666666666669 L 294.5 166.66666666666669 L 295.0 166.66666666666669 L 295.5 166.66666666666669 L 296.0 166.66666666666669 L 296.5 166.66666666666669 L 297.0 166.66666666666669 L 297.5 166.66666666666669 L 298.0 166.66666666666669 L 298.5 166.66666666666669 L 299.0 166.66666666666669 L 299.5 166.66666666666669 L 300.0 166.66666666666669 L 300.5 166.66666666666669 L 301.0 166.66666666666669 L 301.5 166.66666666666669 L 302.0 166.66666666666669 L 302.5 166.66666666666669 L 303.0 166.66666666666669 L 303.5 166.66666666666669 L 304.0 166.66666666666669 L 304.5 166.66666666666669 L 305.0 166.66666666666669 L 305.5 166.66666666666669 L 306.0 166.66666666666669 L 306.5 166.66666666666669 L 307.0 166.66666666666669 L 307.5 166.66666666666669 L 308.0 166.66666666666669 L 308.5 166.66666666666669 L 309.0 166.66666666666669 L 309.5 166.66666666666669 L 310.0 166.66666666666669 L 310.5 166.66666666666669 L 311.0 166.66666666666669 L 311.5 166.66666666666669 L 312.0 166.66666666666669 L 312.5 166.66666666666669 L 313.0 166.66666666666669 L 313.5 166.66666666666669 L 314.0 166.66666666666669 L 314.5 166.66666666666669 L 315.0 166.66666666666669 L 315.5 166.66666666666669 L 316.0 166.66666666666669 L 316.5 166.66666666666669 L 317.0 166.66666666666669 L 317.5 166.66666666666669 L 318.0 166.66666666666669 L 318.5 166.66666666666669 L 319.0 166.66666666666669 L 319.5 166.66666666666669 L 320.0 166.66666666666669 L 320.5 166.66666666666669 L 321.0 166.66666666666669 L 321.5 166.66666666666669 L 322.0 166.66666666666669 L 322.5 166.66666666666669 L 323.0 166.66666666666669 L 323.5 166.66666666666669 L 324.0 166.66666666666669 L 324.5 166.66666666666669 L 325.0 166.66666666666669 L 325.5 166.66666666666669 L 326.0 166.66666666666669 L 326.5 166.66666666666669 L 327.0 166.66666666666669 L 327.5 166.66666666666669 L 328.0 166.66666666666669 L 328.5 166.66666666666669 L 329.0 166.66666666666669 L 329.5 166.66666666666669 L 330.0 166.66666666666669 L 330.5 166.66666666666669 L 331.0 166.66666666666669 L 331.5 166.66666666666669 L 332.0 166.66666666666669 L 332.5 166.66666666666669 L 333.0 166.66666666666669 L 333.5 166.66666666666669 L 334.0 166.66666666666669 L 334.5 166.66666666666669 L 335.0 166.66666666666669 L 335.5 166.66666666666669 L 336.0 166.66666666666669 L 336.5 166.66666666666669 L 337.0 166.66666666666669 L 337.5 166.66666666666669 L 338.0 166.66666666666669 L 338.5 166.66666666666669 L 339.0 166.66666666666669 L 339.5 166.66666666666669 L 340.0 166.66666666666669 L 340.5 166.66666666666669 L 341.0 166.66666666666669 L 341.5 166.66666666666669 L 342.0 166.66666666666669 L 342.5 166.66666666666669 L 343.0 166.66666666666669 L 343.5 166.66666666666669 L 344.0 166.66666666666669 L 344.5 166.66666666666669 L 345.0 166.66666666666669 L 345.5 166.66666666666669 L 346.0 166.66666666666669 L 346.5 166.66666666666669 L 347.0 166.66666666666669 L 347.5 166.66666666666669 L 348.0 166.66666666666669 L 348.5 166.66666666666669 L 349.0 166.66666666666669 L 349.5 166.66666666666669 L 350.0 166.66666666666669 L 350.5 166.66666666666669 L 351.0 166.66666666666669 L 351.5 166.66666666666669 L 352.0 166.66666666666669 L 352.5 166.66666666666669 L 353.0 166.66666666666669 L 353.5 166.66666666666669 L 354.0 166.66666666666669 L 354.5 166.66666666666669 L 355.0 166.66666666666669 L 355.5 166.66666666666669 L 356.0 166.66666666666669 L 356.5 166.66666666666669 L 357.0 166.66666666666669 L 357.5 166.66666666666669 L 358.0 166.66666666666669 L 358.5 166.66666666666669 L 359.0 166.66666666666669 L 359.5 166.66666666666669 L 360.0 166.66666666666669 L 360.5 166.66666666666669 L 361.0 166.66666666666669 L 361.5 166.66666666666669 L 362.0 166.66666666666669 L 362.5 166.66666666666669 L 363.0 166.66666666666669 L 363.5 166.66666666666669 L 364.0 166.66666666666669 L 364.5 166.66666666666669 L 365.0 166.66666666666669 L 365.5 166.66666666666669 L 366.0 166.66666666666669 L 366.5 166.66666666666669 L 367.0 166.66666666666669 L 367.5 166.66666666666669 L 368.0 166.66666666666669 L 368.5 166.66666666666669 L 369.0 166.66666666666669 L 369.5 166.66666666666669 L 370.0 166.66666666666669 L 370.5 166.66666666666669 L 371.0 166.66666666666669 L 371.5 166.66666666666669 L 372.0 166.66666666666669 L 372.5 166.66666666666669 L 373.0 166.66666666666669 L 373.5 166.66666666666669 L 374.0 166.66666666666669 L 374.5 166.66666666666669 L 375.0 166.66666666666669 L 375.5 166.66666666666669 L 376.0 166.66666666666669 L 376.5 166.66666666666669 L 377.0 166.66666666666669 L 377.5 166.66666666666669 L 378.0 166.66666666666669 L 378.5 166.66666666666669 L 379.0 166.66666666666669 L 379.5 166.66666666666669 L 380.0 166.66666666666669 L 380.5 166.66666666666669 L 381.0 166.66666666666669 L 381.5 166.66666666666669 L 382.0 166.66666666666669 L 382.5 166.66666666666669 L 383.0 166.66666666666669 L 383.5 166.66666666666669 L 384.0 166.66666666666669 L 384.5 166.66666666666669 L 385.0 166.66666666666669 L 385.5 166.66666666666669 L 386.0 166.66666666666669 L 386.5 166.66666666666669 L 387.0 166.66666666666669 L 387.5 166.66666666666669 L 388.0 166.66666666666669 L 388.5 166.66666666666669 L 389.0 166.66666666666669 L 389.5 166.66666666666669 L 390.0 166.66666666666669 L 390.5 166.66666666666669 L 391.0 166.66666666666669 L 391.5 166.66666666666669 L 392.0 166.66666666666669 L 392.5 166.66666666666669 L 393.0 166.66666666666669 L 393.5 166.66666666666669 L 394.0 166.66666666666669 L 394.5 166.66666666666669 L 395.0 166.66666666666669 L 395.5 166.66666666666669 L 396.0 166.66666666666669 L 396.5 166.66666666666669 L 397.0 166.66666666666669 L 397.5 166.66666666666669 L 398.0 166.66666666666669 L 398.5 166.66666666666669 L 399.0 166.66666666666669 L 399.5 166.66666666666669 L 400.0 166.66666666666669 L 400.5 166.66666666666669 L 401.0 166.66666666666669 L 401.5 166.66666666666669 L 402.0 166.66666666666669 L 402.5 166.66666666666669 L 403.0 166.66666666666669 L 403.5 166.66666666666669 L 404.0 166.66666666666669 L 404.5 166.66666666666669 L 405.0 166.66666666666669 L 405.5 166.66666666666669 L 406.0 166.66666666666669 L 406.5 166.66666666666669 L 407.0 166.66666666666669 L 407.5 166.66666666666669 L 408.0 166.66666666666669 L 408.5 166.66666666666669 L 409.0 166.66666666666669 L 409.5 166.66666666666669 L 410.0 166.66666666666669 L 410.5 166.66666666666669 L 411.0 166.66666666666669 L 411.5 166.66666666666669 L 412.0 166.66666666666669 L 412.5 166.66666666666669 L 413.0 166.66666666666669 L 413.5 166.66666666666669 L 414.0 166.66666666666669 L 414.5 166.66666666666669 L 415.0 166.66666666666669 L 415.5 167.12591666666668 L 416.0 167.587 L 416.5 168.04991666666666 L 417.0 168.51466666666664 L 417.5 168.98125000000005 L 418.0 169.44966666666664 L 418.5 169.91991666666667 L 419.0 170.39200000000005 L 419.5 170.8659166666667 L 420.0 171.3416666666667 L 420.5 171.81924999999995 L 421.0 172.29866666666663 L 421.5 172.77991666666662 L 422.0 173.26299999999998 L 422.5 173.7479166666667 L 423.0 174.23466666666673 L 423.5 174.72325 L 424.0 175.21366666666665 L 424.5 175.70591666666667 L 425.0 176.2 L 425.5 176.69591666666668 L 426.0 177.19366666666667 L 426.5 177.69324999999998 L 427.0 178.19466666666665 L 427.5 178.69791666666669 L 428.0 179.20299999999997 L 428.5 179.7099166666667 L 429.0 180.2186666666667 L 429.5 180.72925000000004 L 430.0 181.24166666666667 L 430.5 181.75591666666668 L 431.0 182.272 L 431.5 182.78991666666667 L 432.0 183.30966666666671 L 432.5 183.83125000000007 L 433.0 184.35466666666667 L 433.5 184.87991666666665 L 434.0 185.40700000000004 L 434.5 185.93591666666669 L 435.0 186.4666666666667 L 435.5 186.99925000000002 L 436.0 187.5336666666667 L 436.5 188.06991666666664 L 437.0 188.60800000000006 L 437.5 189.14791666666667 L 438.0 189.6896666666667 L 438.5 190.23325 L 439.0 190.7786666666667 L 439.5 191.32591666666673 L 440.0 191.875 L 440.5 192.4259166666667 L 441.0 192.9786666666667 L 441.5 193.53325000000007 L 442.0 194.08966666666674 L 442.5 194.64791666666667 L 443.0 195.20800000000003 L 443.5 195.7699166666667 L 444.0 196.33366666666666 L 444.5 196.89925000000005 L 445.0 197.4666666666667 L 445.5 198.0359166666667 L 446.0 198.60700000000003 L 446.5 199.1799166666666 L 447.0 199.75466666666665 L 447.5 200.33124999999995 L 448.0 200.90966666666662 L 448.5 201.48991666666666 L 449.0 202.07199999999995 L 449.5 202.65591666666666 L 450.0 203.24166666666662 L 450.5 203.82924999999994 L 451.0 204.41866666666664 L 451.5 205.00991666666664 L 452.0 205.60299999999995 L 452.5 206.19791666666663 L 453.0 206.79466666666661 L 453.5 207.39324999999997 L 454.0 207.99366666666663 L 454.5 208.59591666666665 L 455.0 209.2 L 455.5 209.80591666666663 L 456.0 210.41366666666664 L 456.5 211.02325000000002 L 457.0 211.63466666666665 L 457.5 212.24791666666664 L 458.0 212.86299999999994 L 458.5 213.47991666666667 L 459.0 214.09866666666665 L 459.5 214.71925 L 460.0 215.34166666666664 L 460.5 215.96591666666666 L 461.0 216.59199999999993 L 461.5 217.21991666666668 L 462.0 217.84966666666668 L 462.5 218.48125 L 463.0 219.1146666666666 L 463.5 219.74991666666665 L 464.0 220.38699999999994 L 464.5 221.02591666666666 L 465.0 221.66666666666663 L 465.5 222.30924999999996 L 466.0 222.95366666666666 L 466.5 223.59991666666667 L 467.0 224.248 L 467.5 224.89791666666662 L 468.0 225.54966666666667 L 468.5 226.20324999999997 L 469.0 226.85866666666664 L 469.5 227.51591666666667 L 470.0 228.17499999999995 L 470.5 228.83591666666666 L 471.0 229.49866666666668 L 471.5 230.16325 L 472.0 230.82966666666664 L 472.5 231.49791666666664 L 473.0 232.168 L 473.5 232.83991666666662 L 474.0 233.51366666666667 L 474.5 234.18925000000002 L 475.0 234.86666666666667 L 475.5 235.54591666666664 L 476.0 236.22700000000003 L 476.5 236.90991666666667 L 477.0 237.59466666666668 L 477.5 238.28125 L 478.0 238.96966666666668 L 478.5 239.65991666666667 L 479.0 240.35200000000003 L 479.5 241.0459166666667 L 480.0 241.74166666666667 L 480.5 242.43925000000002 L 481.0 243.13866666666667 L 481.5 243.83991666666668 L 482.0 244.543 L 482.5 245.24791666666667 L 483.0 245.9546666666667 L 483.5 246.66325 L 484.0 247.37366666666665 L 484.5 248.0859166666667 L 485.0 248.8 L 485.5 249.51591666666667 L 486.0 250.2336666666667 L 486.5 250.95325000000003 L 487.0 251.6746666666667 L 487.5 252.3979166666667 L 488.0 253.123 L 488.5 253.84991666666667 L 489.0 254.57866666666663 L 489.5 255.30925000000005 L 490.0 256.0416666666667 L 490.5 256.7759166666667 L 491.0 257.51200000000006 L 491.5 258.24991666666665 L 492.0 258.98966666666666 L 492.5 259.73125000000005 L 493.0 260.47466666666674 L 493.5 261.2199166666667 L 494.0 261.96700000000004 L 494.5 262.71591666666666 L 495.0 263.4666666666667 L 495.5 264.21925 L 496.0 264.97366666666665 L 496.5 265.72991666666667 L 497.0 266.48800000000006 L 497.5 267.2479166666667 L 498.0 268.0096666666667 L 498.5 268.7732500000001 L 499.0 269.5386666666667 L 499.5 270.3059166666667 L 500.0 271.07500000000005 L 500.5 271.84591666666665 L 501.0 272.61866666666674 L 501.5 273.39325 L 502.0 274.1696666666667 L 502.5 274.94791666666674 L 503.0 275.72800000000007 L 503.5 276.5099166666667 L 504.0 277.2936666666667 L 504.5 278.07925 L 505.0 278.8666666666667 L 505.5 279.6559166666667 L 506.0 280.447 L 506.5 281.2399166666667 L 507.0 282.03466666666674 L 507.5 282.83125 L 508.0 283.6296666666667 L 508.5 284.4299166666667 L 509.0 285.23199999999997 L 509.5 286.0359166666666 L 510.0 286.84166666666664 L 510.5 287.64924999999994 L 511.0 288.45866666666666 L 511.5 289.26991666666663 L 512.0 290.08299999999997 L 512.5 290.8979166666666 L 513.0 291.71466666666663 L 513.5 292.53324999999995 L 514.0 293.35366666666664 L 514.5 294.17591666666664 L 515.0 294.99999999999994 L 515.5 295.82591666666667 L 516.0 296.6536666666666 L 516.5 297.48325 L 517.0 298.31466666666665 L 517.5 299.1479166666666 L 518.0 299.98299999999995 L 518.5 300.81991666666664 L 519.0 301.6586666666666 L 519.5 302.49924999999996 L 520.0 303.3416666666666 L 520.5 304.1859166666666 L 521.0 305.032 L 521.5 305.87991666666665 L 522.0 306.7296666666666 L 522.5 307.58125 L 523.0 308.43466666666666 L 523.5 309.2899166666666 L 524.0 310.14699999999993 L 524.5 311.0059166666666 L 525.0 311.8666666666667 L 525.5 312.72925 L 526.0 313.59366666666665 L 526.5 314.45991666666663 L 527.0 315.328 L 527.5 316.19791666666663 L 528.0 317.06966666666665 L 528.5 317.94325 L 529.0 318.8186666666667 L 529.5 319.6959166666667 L 530.0 320.57499999999993 L 530.5 321.45591666666667 L 531.0 322.33866666666665 L 531.5 323.22325 L 532.0 324.10966666666667 L 532.5 324.99791666666664 L 533.0 325.888 L 533.5 326.7799166666666 L 534.0 327.67366666666663 L 534.5 328.56925 L 535.0 329.4666666666667 L 535.5 330.36591666666664 L 536.0 331.26699999999994 L 536.5 332.1699166666666 L 537.0 333.07466666666664 L 537.5 333.33333333333337 L 538.0 333.33333333333337 L 538.5 333.33333333333337 L 539.0 333.33333333333337 L 539.5 333.33333333333337 L 540.0 333.33333333333337 " stroke="red" stroke-width="2px" fill="none" /></g></svg>