<?xml version="1.0" encoding="iso-8859-1"?>
<!DOCTYPE svg PUBLIC "-//W3C//DTD SVG 1.1//EN" "http://www.w3.org/Graphics/SVG/1.1/DTD/svg11.dtd">
<svg width="540" height="540"><g><line x1="40" y1="540" x2="40" stroke="black" stroke-width="1px" /> <line x1="30" y1="10" x2="40" y2="0" stroke="black" stroke-width="1px" /> <line x1="50" y1="10" x2="40" y2="0" stroke="black" stroke-width="1px" /> <text font-family="times-roman" font-size="15" stroke="blue" color="blue" fill="blue" x="10" y="15">1.0</text> <text font-family="times-roman" font-size="15" stroke="blue" color="blue" fill="blue" x="10" y="510">-1.0</text> <line x1="0" y1="250.0" x2="540" y2="250.0" stroke="black" stroke-width="1px" /> <line x1="530" y1="240.0" x2="540" y2="250.0" stroke="black" stroke-width="1px" /> <line x1="530" y1="260.0" x2="540" y2="250.0" stroke="black" stroke-width="1px" /> <text font-family="times-roman" font-size="15" stroke="blue" color="blue" fill="blue" x="530" y="275.0">1</text> <path d="M 40.0 250.0 L 40.5 238.2351639337317 L 41.0 226.51997582397394 L 41.5 214.88036793500243 L 42.0 203.34205266213462 L 42.5 191.93046573340206 L 43.0 180.67071014044154 L 43.5 169.58750092219333 L 44.0 158.70511092284937 L 44.5 148.0473176430799 L 45.0 137.6373513008931 L 45.5 127.4978442155508 L 46.0 117.65078162478915 L 46.5 108.11745404217265 L 47.0 98.9184112577629 L 47.5 90.07341808140978 L 48.0 81.60141192388801 L 48.5 73.52046230680708 L 49.0 65.84773238774073 L 49.5 58.599442582347706 L 50.0 51.79083636041605 L 50.5 45.43614828775276 L 51.0 39.548574380687796 L 51.5 34.14024483466187 L 52.0 29.22219918294934 L 52.5 24.80436393602497 L 53.0 20.8955327464505 L 53.5 17.50334913842346 L 54.0 14.634291835331055 L 54.5 12.29366271278235 L 55.0 10.485577398676526 L 55.5 9.212958535912094 L 56.0 8.477531717366333 L 56.5 8.279824096787536 L 57.0 8.619165673262842 L 57.5 9.49369324095926 L 58.0 10.900356989901638 L 58.5 12.834929737661696 L 59.0 15.292018765998193 L 59.5 18.265080230727108 L 60.0 21.746436107416685 L 60.5 25.727293629918677 L 61.0 30.197767173267607 L 61.5 35.1469025271216 L 62.0 40.562703500689 L 62.5 46.43216079500155 L 63.0 52.74128307346081 L 63.5 59.47513015682017 L 64.0 66.61784826416863 L 64.5 74.15270721707856 L 65.0 82.06213951986189 L 65.5 90.32778122487252 L 66.0 98.93051448798929 L 66.5 107.8505117158387 L 67.0 117.06728120296418 L 67.5 126.55971415402718 L 68.0 136.30613298325596 L 68.5 146.2843407807204 L 69.0 156.47167183264207 L 69.5 166.84504308082006 L 70.0 177.3810064043999 L 70.5 188.05580160561675 L 71.0 198.84540997981628 L 71.5 209.72560834900213 L 72.0 220.672023437375 L 72.5 231.66018646681675 L 73.0 242.66558785003565 L 73.5 253.66373185912937 L 74.0 264.63019114762744 L 74.5 275.5406610046612 L 75.0 286.3710132207626 L 75.5 297.097349445905 L 76.0 307.6960539217987 L 76.5 318.14384547208124 L 77.0 328.4178286359622 L 77.5 338.4955438330215 L 78.0 348.3550164492746 L 78.5 357.97480473724664 L 79.0 367.33404642568155 L 79.5 376.4125039376163 L 80.0 385.1906081188633 L 80.5 393.6495003824936 L 81.0 401.77107317863744 L 81.5 409.53800870286614 L 82.0 416.93381576052707 L 82.5 423.94286470870657 L 83.0 430.55042040195474 L 83.5 436.7426730725196 L 84.0 442.5067670806104 L 84.5 447.8308274750926 L 85.0 452.70398431004963 L 85.5 457.1163946677679 L 86.0 461.0592623439376 L 86.5 464.5248551561759 L 87.0 467.50651984237703 L 87.5 469.9986945208483 L 88.0 471.9969186896986 L 88.5 473.49784074849777 L 89.0 474.49922303079114 L 89.5 474.99994434164734 L 90.0 475.0 L 90.5 474.5004993911232 L 91.0 473.50366104013165 L 91.5 472.01280522291273 L 92.0 470.0323441363665 L 92.5 467.56776965523346 L 93.0 464.6256387081273 L 93.5 461.2135563106389 L 94.0 457.3401562985272 L 94.5 453.0150798090669 L 95.0 448.2489515635423 L 95.5 443.0533540086796 L 96.0 437.44079937947083 L 96.5 431.424699750343 L 97.0 425.0193351459869 L 97.5 418.2398197873305 L 98.0 411.10206655215086 L 98.5 403.6227497336282 L 99.0 395.8192661837742 L 99.5 387.70969493207815 L 100.0 379.3127553729257 L 100.5 370.64776411834356 L 101.0 361.7345906153786 L 101.5 352.5936116299828 L 102.0 343.24566470156003 L 102.5 333.7120006744217 L 103.0 324.01423541421 L 103.5 314.17430081893974 L 104.0 304.2143952356364 L 104.5 294.15693339463246 L 105.0 284.0244959744133 L 105.5 273.83977891047124 L 106.0 263.6255425619594 L 106.5 253.40456084997885 L 107.0 243.19957048116578 L 107.5 233.03322036977528 L 108.0 222.928021370782 L 108.5 212.90629643555354 L 109.0 202.99013130046507 L 109.5 193.20132581737914 L 110.0 183.5613460332425 L 110.5 174.0912771241177 L 111.0 164.8117772868365 L 111.5 155.74303268907641 L 112.0 146.90471357607282 L 112.5 138.31593162936093 L 113.0 129.9951986699375 L 113.5 121.96038679500731 L 114.0 114.22869003407214 L 114.5 106.81658760652948 L 115.0 99.73980885917365 L 115.5 93.01329995806827 L 116.0 86.65119240514594 L 116.5 80.66677344566688 L 117.0 75.0724584282815 L 117.5 69.87976517492723 L 118.0 65.09929041317264 L 118.5 60.740688318882064 L 119.0 56.812651212247204 L 119.5 53.32289244531188 L 120.0 50.27813151413028 L 120.5 47.684081423647 L 121.0 45.5454383282775 L 121.5 43.865873466031076 L 122.0 42.648027398840895 L 122.5 41.89350656658121 L 123.0 41.60288215705555 L 123.5 41.77569128905543 L 124.0 42.41044050042041 L 124.5 43.504611527892735 L 125.0 45.054669360463095 L 125.5 47.05607254285968 L 126.0 49.503285700855145 L 126.5 52.389794255158506 L 127.0 55.70812128584299 L 127.5 59.44984650453665 L 128.0 63.60562728698579 L 128.5 68.165221714106 L 129.0 73.11751356526173 L 129.5 78.4505392032766 L 130.0 84.15151628659237 L 130.5 90.20687424005246 L 131.0 96.60228641201951 L 131.5 103.32270384192111 L 132.0 110.35239055891213 L 132.5 117.67496032908878 L 133.0 125.27341476564743 L 133.5 133.1301827135407 L 134.0 141.22716081753452 L 134.5 149.54575518013996 L 135.0 158.06692401367934 L 135.5 166.77122118875104 L 136.0 175.63884057957847 L 136.5 184.649661105194 L 137.0 193.7832923640757 L 137.5 203.0191207587979 L 138.0 212.33635600638337 L 138.5 221.71407792944422 L 139.0 231.13128342282585 L 139.5 240.56693349032133 L 140.0 250.00000024612413 L 140.5 259.40951377602255 L 141.0 268.774608753907 L 141.5 278.0745707099594 L 142.0 287.28888184792606 L 142.5 296.3972663101349 L 143.0 305.37973479040306 L 143.5 314.21662839667874 L 144.0 322.88866166718054 L 144.5 331.37696464593546 L 145.0 339.66312392594523 L 145.5 347.72922257074083 L 146.0 355.55787882783636 L 146.5 363.13228355048534 L 147.0 370.43623624725774 L 147.5 377.454179682217 L 148.0 384.1712329519178 L 148.5 390.5732229690349 L 149.0 396.64671428617675 L 149.5 402.3790371973136 L 150.0 407.75831405827114 L 150.5 412.7734837718672 L 151.0 417.41432438751167 L 151.5 421.67147376945013 L 152.0 425.5364482922566 L 152.5 429.0016595267117 L 153.0 432.0604288837907 L 153.5 434.70700018914545 L 154.0 436.93655016516135 L 154.5 438.7451968024217 L 155.0 440.1300056071813 L 155.5 441.08899371624403 L 156.0 441.621131875438 L 156.5 441.7263442826765 L 157.0 441.4055063013768 L 157.5 440.6604400547634 L 158.0 439.49390791630316 L 158.5 437.90960391619797 L 159.0 435.91214308847475 L 159.5 433.5070487877697 L 160.0 430.7007380093747 L 160.5 427.50050475050654 L 161.0 423.9145014550493 L 161.5 419.9517185882081 L 162.0 415.6219623915894 L 162.5 410.9358308731619 L 163.0 405.90468809037816 L 163.5 400.5406367884112 L 164.0 394.8564894589827 L 164.5 388.86573788863797 L 165.0 382.58252126852915 L 165.5 376.02159294080786 L 166.0 369.1982858595878 L 166.5 362.1284768471245 L 167.0 354.8285497283461 L 167.5 347.31535742917504 L 168.0 339.6061831261734 L 168.5 331.7187005369538 L 169.0 323.67093344248997 L 169.5 315.4812145339418 L 170.0 307.16814367788663 L 170.5 298.7505456949174 L 171.0 290.2474277473903 L 171.5 281.6779364327556 L 172.0 273.0613146792959 L 172.5 264.41685854129753 L 173.0 255.76387399064552 L 173.5 247.1216338015886 L 174.0 238.50933462495863 L 174.5 229.94605434745296 L 175.0 221.45070983069684 L 175.5 213.04201512368934 L 176.0 204.73844024096286 L 176.5 196.55817059722233 L 177.0 188.51906718756982 L 177.5 180.63862760047954 L 178.0 172.9339479485924 L 178.5 165.42168580013777 L 179.0 158.11802419129828 L 179.5 151.03863679720638 L 180.0 144.1986543364652 L 180.5 137.61263228110585 L 181.0 131.2945199407718 L 181.5 125.25763098667665 L 182.0 119.51461547744168 L 182.5 114.07743344541689 L 183.0 108.9573300984116 L 183.5 104.16481268799026 L 184.0 99.70962909162392 L 184.5 95.60074815200528 L 185.0 91.84634181277198 L 185.5 88.45376908576264 L 186.0 85.42956188070974 L 186.5 82.77941272401347 L 187.0 80.50816438894026 L 187.5 78.619801455225 L 188.0 77.11744381168529 L 188.5 76.00334211106065 L 189.0 75.27887518187538 L 189.5 74.94454939772663 L 190.0 75.0 L 190.5 75.44399436564186 L 191.0 76.27443720727831 L 191.5 77.4883776886644 L 192.0 79.08201843419596 L 192.5 81.05072640702463 L 193.0 83.38904562618967 L 193.5 86.0907116891363 L 194.0 89.14866806202662 L 194.5 92.55508409638907 L 195.0 96.30137472688637 L 195.5 100.37822180133475 L 196.0 104.77559699058338 L 196.5 109.4827862224509 L 197.0 114.48841558065618 L 197.5 119.78047860656022 L 198.0 125.3463649385431 L 198.5 131.17289022103682 L 199.0 137.24632721256557 L 199.5 143.55243801964554 L 200.0 150.07650738108066 L 200.5 156.80337692504764 L 201.0 163.71748031937528 L 201.5 170.80287923367564 L 202.0 178.0433000303567 L 202.5 185.42217110016293 L 203.0 192.92266075668215 L 203.5 200.52771560322947 L 204.0 208.22009928471277 L 204.5 215.98243153647735 L 205.0 223.79722744168697 L 205.5 231.6469368085996 L 206.0 239.5139835790843 L 206.5 247.38080517987976 L 207.0 255.22989172851962 L 207.5 263.0438250063875 L 208.0 270.80531711216395 L 208.5 278.49724870989246 L 209.0 286.10270678703694 L 209.5 293.6050218392562 L 210.0 300.9878044001602 L 210.5 308.2349808359967 L 211.0 315.33082832711796 L 211.5 322.2600089601368 L 212.0 329.00760285687676 L 212.5 335.5591402686244 L 213.0 341.90063256671976 L 213.5 348.0186020631884 L 214.0 353.90011059796757 L 214.5 359.5327868322131 L 215.0 364.90485219027124 L 215.5 370.0051453961146 L 216.0 374.8231455533337 L 216.5 379.3489937212314 L 217.0 383.5735129430707 L 217.5 387.48822668613536 L 218.0 391.0853756569627 L 218.5 394.35793295886725 L 219.0 397.29961756269114 L 219.5 399.90490606561156 L 220.0 402.1690427167461 L 220.5 404.0880476922681 L 221.0 405.65872360673075 L 221.5 406.87866025130245 L 222.0 407.74623755363524 L 222.5 408.2606267581074 L 223.0 408.42178982918045 L 223.5 408.2304770846097 L 224.0 407.6882230692026 L 224.5 406.797340683751 L 225.0 405.56091358764115 L 225.5 403.9827868974779 L 226.0 402.0675562078244 L 226.5 399.820554963855 L 227.0 397.24784021934073 L 227.5 394.3561768169185 L 228.0 391.15302003102846 L 228.5 387.6464967172526 L 229.0 383.84538501500657 L 229.5 379.759092653652 L 230.0 375.3976339150929 L 230.5 370.77160530877757 L 231.0 365.89216001775026 L 231.5 360.7709811769994 L 232.0 355.4202540477686 L 232.5 349.85263715380665 L 233.0 344.08123244765926 L 233.5 338.119554577068 L 234.0 331.98149932337634 L 234.5 325.68131128546486 L 235.0 319.23355088421204 L 235.5 312.65306076378727 L 236.0 305.9549316671903 L 236.5 299.1544678643964 L 237.0 292.2671522122416 L 237.5 285.30861092575367 L 238.0 278.2945781410305 L 238.5 271.2408603500151 L 239.0 264.16330078750764 L 239.5 257.0777438506562 L 240.0 249.99999963081382 L 240.5 242.945808637149 L 241.0 235.93080679072767 L 241.5 228.97049076691263 L 242.0 222.08018376289556 L 242.5 215.27500176598983 L 243.0 208.56982039692815 L 243.5 201.9792424008765 L 244.0 195.51756585721023 L 244.5 189.19875317720783 L 245.0 183.03640095686524 L 245.5 177.0437107498633 L 246.0 171.2334608234433 L 246.5 165.6179789575396 L 247.0 160.20911634495945 L 247.5 155.01822264773335 L 248.0 150.0561222619848 L 248.5 145.3330918407637 L 249.0 140.8588391212886 L 249.5 136.64248309996913 L 250.0 132.69253559537555 L 250.5 129.01688423607646 L 251.0 125.6227769069327 L 251.5 122.51680768402252 L 252.0 119.70490428493468 L 252.5 117.19231705764565 L 253.0 114.98360952765398 L 253.5 113.08265051947075 L 254.0 111.49260786495057 L 254.5 110.21594370732987 L 255.0 109.25441140621217 L 255.5 108.60905404510402 L 256.0 108.28020453948477 L 256.5 108.26748733979252 L 257.0 108.56982172011811 L 257.5 109.18542663985875 L 258.0 110.11182716206827 L 258.5 111.34586240878446 L 259.0 112.8836950302072 L 259.5 114.72082216126074 L 260.0 116.85208783580549 L 260.5 119.27169682556871 L 261.0 121.97322986776015 L 261.5 124.94966024232235 L 262.0 128.19337165684647 L 262.5 131.696177394375 L 263.0 135.44934067661183 L 263.5 139.44359619246836 L 264.0 143.66917273942317 L 264.5 148.11581692282374 L 265.0 152.77281785606192 L 265.5 157.6290328024907 L 266.0 162.67291369801404 L 266.5 167.89253449150175 L 267.0 173.27561923856126 L 267.5 178.80957088269497 L 268.0 184.48150065655727 L 268.5 190.27825803485905 L 269.0 196.18646116943694 L 269.5 202.19252773617927 L 270.0 208.2827061227885 L 270.5 214.4431068858483 L 271.0 220.65973440530416 L 271.5 226.91851866425714 L 272.0 233.20534708194168 L 272.5 239.5060963279053 L 273.0 245.80666404567177 L 273.5 252.09300041464658 L 274.0 258.3511394796365 L 274.5 264.56723017811356 L 275.0 270.72756699629747 L 275.5 276.818620186211 L 276.0 282.82706547707994 L 276.5 288.7398132158522 L 277.0 294.54403687311094 L 277.5 300.22720085232504 L 278.0 305.777087542191 L 278.5 311.1818235537197 L 279.0 316.4299050857972 L 279.5 321.51022236511506 L 280.0 326.4120831086467 L 280.5 331.1252349592537 L 281.0 335.6398868475088 L 281.5 339.9467292354067 L 282.0 344.03695320034785 L 282.5 347.9022683205368 L 283.0 351.5349193257964 L 283.5 354.9277014807388 L 284.0 358.07397467020166 L 284.5 360.96767615992474 L 285.0 363.6033320085377 L 285.5 365.97606711006483 L 286.0 368.081613849341 L 286.5 369.91631935593546 L 287.0 371.4771513454092 L 287.5 372.7617025399735 L 288.0 373.7681936638712 L 288.5 374.4954750120414 L 289.0 374.94302659387705 L 289.5 375.11095685710234 L 290.0 375.0 L 290.5 374.61151188339016 L 291.0 373.9474645568929 L 291.5 373.010439417098 L 292.0 371.803619018301 L 292.5 370.33077755944555 L 293.0 368.59627007382664 L 293.5 366.6050203509508 L 294.0 364.3625076227219 L 294.5 361.8747520487966 L 295.0 359.1482990385542 L 295.5 356.1902024496231 L 296.0 353.00800670530225 L 296.5 349.6097278755168 L 297.0 346.0038337681261 L 297.5 342.19922307947104 L 298.0 338.20520365500465 L 298.5 334.0314699126723 L 299.0 329.68807948340475 L 299.5 325.1854291246727 L 300.0 320.53422996447193 L 300.5 315.7454821344176 L 301.0 310.83044885179555 L 301.5 305.80063001142383 L 302.0 300.6677353490768 L 302.5 295.4436572389472 L 303.0 290.1404431882119 L 303.5 284.7702680922232 L 304.0 279.34540631413427 L 304.5 273.8782036529178 L 305.0 268.38104926376036 L 305.5 262.86634759464806 L 306.0 257.34649040269153 L 306.5 251.8338289133085 L 307.0 246.34064618479636 L 307.5 240.87912974013295 L 308.0 235.46134452698243 L 308.5 230.09920626589042 L 309.0 224.80445524555955 L 309.5 219.58863062280858 L 310.0 214.46304528347537 L 310.5 209.43876131900646 L 311.0 204.52656617186784 L 311.5 199.73694950116266 L 312.0 195.0800808180138 L 312.5 190.56578793831756 L 313.0 186.203536298406 L 313.5 182.00240917702706 L 314.0 177.9710888648131 L 314.5 174.11783882006569 L 315.0 170.4504868473016 L 315.5 166.97640933252404 L 316.0 163.70251656662975 L 316.5 160.6352391857592 L 317.0 157.78051575474774 L 317.5 155.14378151710207 L 318.0 152.72995833218766 L 318.5 150.54344581752355 L 319.0 148.5881137112446 L 319.5 146.86729546696444 L 320.0 145.38378309040593 L 320.5 144.13982322428973 L 321.0 143.137114485106 L 321.5 142.37680605252206 L 322.0 141.8594975093123 L 322.5 141.58523992685934 L 323.0 141.553538188449 L 323.5 141.76335453979232 L 324.0 142.21311335344734 L 324.5 142.90070709110114 L 325.0 143.82350344500344 L 325.5 144.9783536372288 L 326.0 146.36160185289174 L 326.5 147.9690957809467 L 327.0 149.79619823378954 L 327.5 151.83779981453262 L 328.0 154.08833259856044 L 328.5 156.54178479380408 L 329.0 159.1917163420814 L 329.5 162.03127542185598 L 330.0 165.0532158108876 L 330.5 168.2499150654486 L 331.0 171.61339347109697 L 331.5 175.1353337184392 L 332.0 178.8071012558426 L 332.5 182.6197652697208 L 333.0 186.564120241796 L 333.5 190.63070803164038 L 334.0 194.8098404318077 L 334.5 199.09162214203513 L 335.0 203.4659741082478 L 335.5 207.92265717151525 L 336.0 212.4512959716207 L 336.5 217.04140304958605 L 337.0 221.682403093265 L 337.5 226.36365727003363 L 338.0 231.07448759067302 L 338.5 235.80420124869158 L 339.0 240.5421148796437 L 339.5 245.27757868544015 L 340.0 250.00000036918618 L 340.5 254.6988688267546 L 341.0 259.36377754212094 L 341.5 263.98444763438073 L 342.0 268.5507505054009 L 342.5 273.0527300382229 L 343.0 277.4806242975652 L 343.5 281.82488668514105 L 344.0 286.0762065039787 L 344.5 290.2255288874896 L 345.0 294.26407405067494 L 345.5 298.18335582263677 L 346.0 301.9751994213726 L 346.5 305.631758433752 L 347.0 309.1455309655853 L 347.5 312.5093749287392 L 348.0 315.716522434404 L 348.5 318.7605932637977 L 349.0 321.63560738986405 L 349.5 324.33599652580483 L 350.0 326.85661467864395 L 350.5 329.1927476884156 L 351.0 331.3401217359793 L 351.5 333.2949108049208 L 352.0 335.05374308547647 L 352.5 336.61370631090335 L 353.0 337.9723520192157 L 353.5 339.1276987357276 L 354.0 340.0782340743333 L 354.5 340.8229157579634 L 355.0 341.36117156114324 L 355.5 341.6928981800439 L 356.0 341.8184590378653 L 356.5 341.7386810358055 L 357.0 341.4548502622524 L 357.5 340.9687066751746 L 358.0 340.28243777498426 L 358.5 339.39867128739104 L 359.0 338.32046687795594 L 359.5 337.0513069221814 L 360.0 335.59508635704253 L 360.5 333.9561016418553 L 361.0 332.13903885830416 L 361.5 330.1489609812869 L 362.0 327.9912943540031 L 362.5 325.6718144023876 L 363.0 323.19663062556964 L 363.5 320.57217090054104 L 364.0 317.80516514061344 L 364.5 314.9026283485375 L 365.0 311.8718431063653 L 365.5 308.7203415452305 L 366.0 305.45588683920505 L 366.5 302.08645426828286 L 367.0 298.62021189631304 L 367.5 295.06550091036297 L 368.0 291.43081566855216 L 368.5 287.72478350384154 L 369.0 283.9561443315772 L 369.5 280.13373010881753 L 370.0 276.266444193576 L 370.5 272.36324065208714 L 371.0 268.43310356209906 L 371.5 264.48502635995965 L 372.0 260.52799127891205 L 372.5 256.57094892557416 L 373.0 252.62279804101232 L 373.5 248.69236549216484 L 374.0 244.78838653858764 L 374.5 240.91948541863877 L 375.0 237.09415629825526 L 375.5 233.32074462439442 L 376.0 229.60742892407336 L 376.5 225.9622030886946 L 377.0 222.392859181995 L 377.5 218.90697080856484 L 378.0 215.51187707837528 L 378.5 212.2146672011811 L 379.0 209.02216574303196 L 379.5 205.9409185754194 L 380.0 202.97717954580122 L 380.5 200.1368978964286 L 381.0 197.42570645652137 L 381.5 194.8489106308848 L 382.0 192.41147820610422 L 382.5 190.11802999343178 L 383.0 187.97283132542128 L 383.5 185.97978442129346 L 384.0 184.1424216339127 L 384.5 182.46389958911737 L 385.0 180.9469942260218 L 385.5 179.5940967447495 L 386.0 178.4072104659105 L 386.5 177.38794860397758 L 387.0 176.53753295457454 L 387.5 175.85679349355615 L 388.0 175.34616888363178 L 388.5 175.00570788219613 L 389.0 174.83507164195169 L 389.5 174.83353689386564 L 390.0 175.0 L 390.5 175.33298186178087 L 391.0 175.83063366735468 L 391.5 176.4907434598 L 392.0 177.3107435061425 L 392.5 178.28771844535578 L 393.0 179.4184141918239 L 393.5 180.69924756910035 L 394.0 182.12631664722738 L 394.5 183.69541175537591 L 395.0 185.40202714013623 L 395.5 187.24137323844678 L 396.0 189.20838953287216 L 396.5 191.29775795575415 L 397.0 193.50391680766597 L 397.5 195.82107515457517 L 398.0 198.24322766720564 L 398.5 200.76416986524498 L 399.0 203.37751372831508 L 399.5 206.07670363496817 L 400.0 208.8550325904166 L 400.5 211.7056587032609 L 401.0 214.62162187110914 L 401.5 217.5958606347187 L 402.0 220.62122916013936 L 402.5 223.69051430824794 L 403.0 226.79645275110698 L 403.5 229.9317480947015 L 404.0 233.08908796782327 L 404.5 236.26116103718232 L 405.0 239.44067390924545 L 405.5 242.62036787978542 L 406.0 245.79303549271336 L 406.5 248.95153687045607 L 407.0 252.08881577888639 L 407.5 255.1979153906639 L 408.0 258.27199371178017 L 408.5 261.3043386370968 L 409.0 264.28838260174535 L 409.5 267.21771679642615 L 410.0 270.08610491585034 L 410.5 272.8874964108729 L 411.0 275.6160392162053 L 411.5 278.266091927025 L 412.0 280.83223539925575 L 412.5 283.3092837498121 L 413.0 285.69229473468636 L 413.5 287.9765794843466 L 414.0 290.15771157758456 L 414.5 292.23153543663517 L 415.0 294.19417402810757 L 415.5 296.04203585601454 L 416.0 297.7718212349644 L 416.5 299.38052783336127 L 417.0 300.86545547826233 L 417.5 302.2242102153611 L 418.0 303.4547076193764 L 418.5 304.5551753519459 L 419.0 305.5241549659461 L 419.5 306.3605029569602 L 420.0 307.06339106441374 L 420.5 307.63230582667984 L 421.0 308.0670473962121 L 421.5 308.3677276224955 L 422.0 308.53476741231634 L 422.5 308.5688933785186 L 423.0 308.4711337900561 L 423.5 308.2428138377387 L 424.0 307.88555023162985 L 424.5 307.40124514755087 L 425.0 306.79207954160324 L 425.5 306.06050585301983 L 426.0 305.2092401169964 L 426.5 304.24125351043705 L 427.0 303.15976335476574 L 427.5 301.96822360111014 L 428.0 300.67031482424824 L 428.5 299.2699337527234 L 429.0 297.7711823634743 L 429.5 296.17835657020026 L 430.0 294.4959345354656 L 430.5 292.72856463726896 L 431.0 290.8810531214381 L 431.5 288.95835147176234 L 432.0 286.9655435302544 L 432.5 284.90783240032874 L 433.0 282.7905271659863 L 433.5 280.6190294603342 L 434.0 278.39881991691277 L 434.5 276.13544453736114 L 435.0 273.83450100894163 L 435.5 271.50162500534157 L 436.0 269.14247650398914 L 436.5 266.76272615285893 L 437.0 264.36804171940423 L 437.5 261.96407465384146 L 438.0 259.55644679850525 L 438.5 257.1507372744361 L 439.0 254.75246957572145 L 439.5 252.3670989013884 L 440.0 249.99999975387587 L 440.5 247.65645383226774 L 441.0 245.3416382475457 L 441.5 243.06061408616029 L 442.0 240.81831534718538 L 442.5 238.61953827722573 L 443.0 236.468931126117 L 443.5 234.37098434526843 L 444.0 232.33002124925184 L 444.5 230.350189159972 L 445.0 228.43545105143386 L 445.5 226.58957771175812 L 446.0 224.81614043771629 L 446.5 223.11850427563974 L 447.0 221.49982182110864 L 447.5 219.9630275883655 L 448.0 218.51083295891567 L 448.5 217.14572171728167 L 449.0 215.86994618036562 L 449.5 214.68552392536498 L 450.0 213.59423511967094 L 450.5 212.59762045465595 L 451.0 211.69697968375232 L 451.5 210.89337076372055 L 452.0 210.1876095965094 L 452.5 209.58027036764162 L 453.0 209.07168647560053 L 453.5 208.66195204525906 L 454.0 208.35092401698705 L 454.5 208.1382248016988 L 455.0 208.02324549075246 L 455.5 208.0051496083123 L 456.0 208.08287739251176 L 456.5 208.25515059052947 L 457.0 208.52047775151152 L 457.5 208.87716000013677 L 458.0 209.3232972725396 L 458.5 209.85679499527544 L 459.0 210.47537118703565 L 459.5 211.17656396190347 L 460.0 211.9577394120813 L 460.5 212.81609984722138 L 461.0 213.74869236675755 L 461.5 214.75241774096406 L 462.0 215.82403957586155 L 462.5 216.96019373654974 L 463.0 218.15739800307796 L 463.5 219.41206193256056 L 464.0 220.720496900907 L 464.5 222.07892629727917 L 465.0 223.48349584418946 L 465.5 224.93028401602743 L 466.0 226.41531252875524 L 466.5 227.93455687352179 L 467.0 229.4839568670301 L 467.5 231.05942719165193 L 468.0 232.65686789849815 L 468.5 234.27217484694467 L 469.0 235.90125005446828 L 469.5 237.5400119310678 L 470.0 239.18440537302047 L 470.5 240.83041169127745 L 471.0 242.4740583503994 L 471.5 244.1114284945939 L 472.0 245.738670238142 L 472.5 247.35200569826355 L 473.0 248.9477397493023 L 473.5 250.52226847797638 L 474.0 252.07208732036898 L 474.5 253.59379886229 L 475.0 255.08412028564464 L 475.5 256.53989044449554 L 476.0 257.95807655557746 L 476.5 259.3357804891365 L 477.0 260.6702446471129 L 477.5 261.95885741685083 L 478.0 263.19915818970827 L 478.5 264.3888419351606 L 479.0 265.52576332221406 L 479.5 266.60794038118945 L 480.0 267.63355770019234 L 480.5 268.6009691518482 L 481.0 269.5087001471387 L 481.5 270.3554494144503 L 482.0 271.140090303202 L 482.5 271.8616716126772 L 483.0 272.5194179479357 L 483.5 273.1127296059129 L 484.0 273.64118199603297 L 484.5 274.1045246008683 L 485.0 274.50267948354974 L 485.5 274.8357393497944 L 486.0 275.1039651735357 L 486.5 275.3077833962475 L 487.0 275.4477827111084 L 487.5 275.52471044418576 L 488.0 275.5394685458056 L 488.5 275.4931092062267 L 489.0 275.3868301106384 L 489.5 275.22196934936926 L 490.0 275.0 L 490.5 274.72252439884517 L 491.0 274.3912681199789 L 491.5 274.0080736806416 L 492.0 273.57489399247356 L 492.5 273.093785578571 L 493.0 272.56690157685875 L 493.5 271.9964845507105 L 494.0 271.3848591281253 L 494.5 270.73442449109336 L 495.0 270.0476467370424 L 495.5 269.32705113445525 L 496.0 268.5752142948934 L 496.5 267.7947562837362 L 497.0 266.98833269196786 L 497.5 266.1586266913011 L 498.0 265.3083410948259 L 498.5 264.44019044521247 L 499.0 263.55689315227556 L 499.5 262.66116370143266 L 500.0 261.75570495425484 L 500.5 260.84320056191666 L 501.0 259.9263075119112 L 501.5 259.0076488278968 L 502.0 258.0898064419936 L 502.5 257.175314258251 L 503.0 256.2666514253608 L 503.5 255.36623583599476 L 504.0 254.47641786941506 L 504.5 253.5994743932231 L 505.0 252.73760303929527 L 505.5 251.89291676810004 L 506.0 251.06743873470091 L 506.5 250.26309746882578 L 507.0 249.4817223804322 L 507.5 248.725039601222 L 508.0 247.9946681715489 L 508.5 247.29211658114554 L 509.0 246.61877967104806 L 509.5 245.97593590303995 L 510.0 245.36474500186327 L 510.5 244.78624597436573 L 511.0 244.2413555086627 L 511.5 243.73086675530084 L 512.0 243.25544849131518 L 512.5 242.81564466698552 L 513.0 242.41187433400324 L 513.5 242.04443195269033 L 514.0 241.71348807483838 L 514.5 241.41909039768416 L 515.0 241.16116518350123 L 515.5 240.93951903826905 L 516.0 240.75384104188407 L 516.5 240.60370522140715 L 517.0 240.4885733578987 L 517.5 240.40779811647542 L 518.0 240.36062648834513 L 518.5 240.34620353272453 L 519.0 240.36357640573715 L 519.5 240.41169866261447 L 520.0 240.48943481879485 L 520.5 240.59556515482336 L 521.0 240.728790749315 L 521.5 240.88773872364482 L 522.0 241.07096768147886 L 522.5 241.27697332575877 L 523.0 241.50419423530434 L 523.5 241.75101778279736 L 524.0 242.01578617556578 L 524.5 242.29680260029295 L 525.0 242.59233745253903 L 525.5 242.9006346317762 L 526.0 243.2199178825112 L 526.5 243.54839716199405 L 527.0 243.88427501499314 L 527.5 244.22575293615333 L 528.0 244.57103770054584 L 528.5 244.91834764316474 L 529.0 245.26591886832634 L 529.5 245.6120113701797 L 530.0 245.9549150458471 L 530.5 246.29295558306984 L 531.0 246.6245002046444 L 531.5 246.94796325239565 L 532.0 247.26181159393985 L 532.5 247.56456983604437 L 533.0 247.854825328993 L 533.5 248.13123294700767 L 534.0 248.39251963046172 L 534.5 248.63748867634732 L 535.0 248.8650237642202 L 535.5 249.07409270564284 L 536.0 249.26375090598114 L 536.5 249.4331445282693 L 537.0 249.58151334975116 L 537.5 249.70819330262162 L 538.0 249.81261869143424 L 538.5 249.8943240806019 L 539.0 249.95294584639748 L 539.5 249.98822338885762 L 540.0 250.0 " stroke="red" stroke-width="2px" fill="none" /></g></svg>