<?xml version="1.0" encoding="iso-8859-1"?>
<!DOCTYPE svg PUBLIC "-//W3C//DTD SVG 1.1//EN" "http://www.w3.org/Graphics/SVG/1.1/DTD/svg11.dtd">
<svg width="540" height="540"><g><line x1="40" y1="540" x2="40" stroke="black" stroke-width="1px" /> <line x1="30" y1="10" x2="40" y2="0" stroke="black" stroke-width="1px" /> <line x1="50" y1="10" x2="40" y2="0" stroke="black" stroke-width="1px" /> <text font-family="times-roman" font-size="15" stroke="blue" color="blue" fill="blue" x="10" y="15">1</text> <text font-family="times-roman" font-size="15" stroke="blue" color="blue" fill="blue" x="10" y="510">-1</text> <line x1="0" y1="250.0" x2="540" y2="250.0" stroke="black" stroke-width="1px" /> <line x1="530" y1="240.0" x2="540" y2="250.0" stroke="black" stroke-width="1px" /> <line x1="530" y1="260.0" x2="540" y2="250.0" stroke="black" stroke-width="1px" /> <text font-family="times-roman" font-size="15" stroke="blue" color="blue" fill="blue" x="530" y="275.0">1</text> <path d="M 40.0 250.0 L 40.5 230.42443599857796 L 41.0 211.04766176547326 L 41.5 191.98830182230478 L 42.0 173.36254931736016 L 42.5 155.28345870646297 L 43.0 137.86026063629214 L 43.5 121.19770317501235 L 44.0 105.39542335568615 L 44.5 90.54735279472993 L 45.0 76.74116092199819 L 45.5 64.05773911241818 L 46.0 52.57072874306323 L 46.5 42.34609591586991 L 47.0 33.44175528669933 L 47.5 25.90724512803058 L 48.0 19.78345542725623 L 48.5 15.102410487380837 L 49.0 11.887107154021976 L 49.5 10.15140944413531 L 50.0 9.900000000000034 L 50.5 11.128388438920467 L 51.0 13.822976316989582 L 51.5 17.961178076321232 L 52.0 23.511597001519362 L 52.5 30.43425487493147 L 53.0 38.68087369347819 L 53.5 48.19520749454557 L 54.0 58.913422036479915 L 54.5 70.76451979245172 L 55.0 83.67080744656641 L 55.5 97.54840282970702 L 56.0 112.30777800116743 L 56.5 127.85433497203718 L 57.0 144.08901037873727 L 57.5 160.9089052511555 L 58.0 178.2079358804076 L 58.5 195.87750167711823 L 59.0 213.8071658228776 L 59.5 231.88534445563744 L 60.0 250.00000009451165 L 60.5 268.0393350008947 L 61.0 285.8924801909032 L 61.5 303.450175858693 L 62.0 320.6054390408178 L 62.5 337.25421444790425 L 63.0 353.2960045108746 L 63.5 368.63447483383777 L 64.0 383.1780314136503 L 64.5 396.84036617586105 L 65.0 409.54096758702076 L 65.5 421.2055933328151 L 66.0 431.76670229860986 L 66.5 441.1638433522285 L 67.0 449.3439987063872 L 67.5 456.2618799284121 L 68.0 461.88017496583586 L 68.5 466.169744866265 L 69.0 469.1097691866076 L 69.5 470.68783940834487 L 70.0 470.9 L 70.5 469.75073709330786 L 71.0 467.2529150637688 L 71.5 463.4276616273024 L 72.0 458.3042023806078 L 72.5 451.9196460216681 L 73.0 444.3187217867028 L 73.5 435.55347092897944 L 74.0 425.6828943414754 L 74.5 414.77255868778116 L 75.0 402.8941636523043 L 75.5 390.1250731502738 L 76.0 376.5478135489519 L 76.5 362.24954214256843 L 77.0 347.32148929371704 L 77.5 331.85837780234516 L 78.0 315.9578231891517 L 78.5 299.71971868256514 L 79.0 283.2456087769117 L 79.5 266.63805528354777 L 80.0 249.99999982640048 L 80.5 233.43412673840209 L 81.0 217.0422302958737 L 81.5 200.92459018414996 L 82.0 185.1793590200794 L 82.5 169.90196566597257 L 83.0 155.18453795577813 L 83.5 141.11534831854362 L 84.0 127.77828562749784 L 84.5 115.25235642644373 L 85.0 103.61121848974318 L 85.5 92.92274945931257 L 86.0 83.2486530731095 L 86.5 74.64410525608128 L 87.0 67.15744208802136 L 87.5 60.829891394897345 L 88.0 55.69534943268036 L 88.5 51.780203847274095 L 89.0 49.103203802630105 L 89.5 47.675377873361924 L 90.0 47.5 L 90.5 48.57260350630776 L 91.0 50.88104288066853 L 91.5 54.405602729287466 L 92.0 59.11915301964518 L 92.5 64.98734945005634 L 93.0 71.96887750705395 L 93.5 80.01573850830056 L 94.0 89.07357567640872 L 94.5 99.0820380499523 L 95.0 109.9751798134916 L 95.5 121.68189241993343 L 96.0 134.12636668725355 L 96.5 147.22858187859492 L 97.0 160.9048186210398 L 97.5 175.0681923848084 L 98.0 189.62920413196292 L 98.5 204.4963046525545 L 99.0 219.57646903695712 L 99.5 234.77577768626503 L 100.0 250.00000023824813 L 100.5 265.1551787845135 L 101.0 280.14820677516866 L 101.5 294.88740005012295 L 102.0 309.2830565008842 L 102.5 323.24800095281614 L 103.0 336.69811196462695 L 103.5 349.5528273686833 L 104.0 361.73562552166567 L 104.5 373.17447939910414 L 105.0 383.802280848406 L 105.5 393.55723251183815 L 106.0 402.38320514235755 L 106.5 410.23005825971467 L 107.0 417.0539223305218 L 107.5 422.81744090241784 L 108.0 427.48997137749916 L 108.5 431.0477433722318 L 109.0 433.47397387841875 L 109.5 434.75893871082155 L 110.0 434.9 L 110.5 433.90158976215537 L 111.0 431.7751498495443 L 111.5 428.5390288536795 L 112.0 424.21833679741735 L 112.5 418.84475870951843 L 113.0 412.4563284248047 L 113.5 405.09716419309996 L 114.0 396.8171679092894 L 114.5 387.6716899937082 L 115.0 377.7211621553498 L 115.5 367.0307004589232 L 116.0 355.66968128941915 L 116.5 343.7112929636336 L 117.0 331.2320658761149 L 117.5 318.3113841864746 L 118.0 305.03098215531224 L 118.5 291.4744283165652 L 119.0 277.72660073454443 L 119.5 263.87315663394213 L 120.0 249.99999971055803 L 120.5 236.19274842937733 L 121.0 222.53620859499705 L 121.5 209.11385343753057 L 122.0 196.00731439535514 L 122.5 183.2958856948198 L 123.0 171.05604572703277 L 123.5 159.36099810364215 L 124.0 148.28023513806295 L 124.5 137.87912634674655 L 125.0 128.21853439783558 L 125.5 119.35446075309329 L 126.0 111.33772305441039 L 126.5 104.21366609986899 L 127.0 98.02190803753632 L 127.5 92.79612317926564 L 128.0 88.56386260332107 L 128.5 85.3464134749874 L 129.0 83.15869777009186 L 129.5 82.00921083902745 L 130.0 81.90000000000003 L 130.5 82.82668310137984 L 131.0 84.77850674574671 L 131.5 87.73844362402662 L 132.0 91.68332816850864 L 132.5 96.58402949998435 L 133.0 102.40566041816811 L 133.5 109.1078209673334 L 134.0 116.64487490200895 L 134.5 124.96625718187647 L 135.0 134.01681044186773 L 135.5 143.73714821390536 L 136.0 154.0640425218262 L 136.5 164.93083333158552 L 137.0 176.26785721569576 L 137.5 188.0028924847157 L 138.0 200.06161794995927 L 138.5 212.36808241103284 L 139.0 224.84518190955646 L 139.5 237.4151417568118 L 140.0 250.0000003281655 L 140.5 262.5220916209065 L 141.0 274.9045235946013 L 141.5 287.0716493538467 L 142.0 298.94952829213923 L 142.5 310.4663743920289 L 143.0 321.5529889701193 L 143.5 332.14317526531937 L 144.0 342.17413239411314 L 144.5 351.58682633675335 L 145.0 360.32633577222816 L 145.5 368.3421707465318 L 146.0 375.58856233716557 L 146.5 382.02472166568214 L 147.0 387.6150668082514 L 147.5 392.32941636042915 L 148.0 396.143148625163 L 148.5 399.0373256112981 L 149.0 400.9987812519922 L 149.5 402.02017347716844 L 150.0 402.1 L 150.5 401.24257790300925 L 151.0 399.45798733330446 L 151.5 396.76197983736444 L 152.0 393.1758520822724 L 152.5 388.72628592105866 L 153.0 383.44515596358076 L 153.5 377.369306009885 L 154.0 370.54029588911726 L 154.5 363.0041204226537 L 155.0 354.8109023941595 L 155.5 346.01456156083293 L 156.0 336.6724618782139 L 156.5 326.8450392349082 L 157.0 316.59541210265036 L 157.5 305.98897760071134 L 158.0 295.09299555128644 L 158.5 283.97616316369437 L 159.0 272.70818302976807 L 159.5 261.35932714049113 L 160.0 249.99999964459678 L 160.5 238.70030106365328 L 161.0 227.52959665506376 L 161.5 216.55609157478773 L 162.0 205.84641543569614 L 162.5 195.46521878572804 L 163.0 185.47478394303937 L 163.5 175.93465252359277 L 164.0 166.90127188100973 L 164.5 158.4276625496483 L 165.0 150.56310864070633 L 165.5 143.35287298864648 L 166.0 136.8379386823362 L 166.5 131.05477844311764 L 167.0 126.03515313166815 L 167.5 121.80594047812133 L 168.0 118.38899493674461 L 168.5 115.80103936868193 L 169.0 114.05358905517511 L 169.5 113.15290834051376 L 170.0 113.09999999999997 L 170.5 113.8906272247545 L 171.0 115.5153679134562 L 171.5 117.95970076237728 L 172.0 121.20412245054371 L 172.5 125.2242950277294 L 173.0 129.99122243039585 L 173.5 135.4714548757592 L 174.0 141.62731971791032 L 174.5 148.41717719333997 L 175.0 155.79569933726435 L 175.5 163.71417021761107 L 176.0 172.12080551125706 L 176.5 180.96108933772462 L 177.0 190.17812616972355 L 177.5 199.7130055581539 L 178.0 209.50517734188662 L 178.5 219.49283496021104 L 179.0 229.61330444845487 L 179.5 239.80343667513017 L 180.0 250.00000037213965 L 180.5 260.1400735179248 L 181.0 270.16143065697975 L 181.5 280.00292377752294 L 182.0 289.6048544220747 L 182.5 298.9093347728188 L 183.0 307.86063553436855 L 183.5 316.405518530461 L 184.0 324.4935520373649 L 184.5 332.0774069947974 L 185.0 339.1131323640569 L 185.5 345.56040804201115 L 186.0 351.3827738876631 L 186.5 356.54783357424617 L 187.0 361.0274321431519 L 187.5 364.79780630545986 L 188.0 367.83970671126053 L 188.5 370.1384915853024 L 189.0 371.68419130856023 L 189.5 372.4715437080033 L 190.0 372.5 L 190.5 371.7737015152517 L 191.0 370.3014275138173 L 191.5 368.09651457651853 L 192.0 365.1767482327389 L 192.5 361.56422765327477 L 193.0 357.28520439945527 L 193.5 352.36989637521947 L 194.0 346.85227827632946 L 194.5 340.76984996950284 L 195.0 334.1633843631646 L 195.5 327.07665645001407 L 196.0 319.55615530896455 L 196.5 311.65078094967674 L 197.0 303.41152796630524 L 197.5 294.89115803777895 L 198.0 286.1438633695849 L 198.5 277.22492321629386 L 199.0 268.1903556548027 L 199.5 259.0965667953428 L 200.0 249.99999962064066 L 200.5 240.9567846333777 L 201.0 232.0223944682952 L 201.5 223.25130458826408 L 202.0 214.69666213361182 L 202.5 206.40996493142092 L 203.0 198.44075259677987 L 203.5 190.8363115716797 L 204.0 183.64139584996667 L 204.5 176.89796502916096 L 205.0 170.64494121278597 L 205.5 164.91798616085606 L 206.0 159.74929995225762 L 206.5 155.16744228171234 L 207.0 151.19717736684146 L 207.5 147.85934328845048 L 208.0 145.17074643051728 L 208.5 143.1440815265189 L 209.0 141.78787765664777 L 209.5 141.10647037720304 L 210.0 141.10000000000002 L 210.5 141.76443587704955 L 211.0 143.09162638502903 L 211.5 145.0693741461779 L 212.0 147.68153586818408 L 212.5 150.90814603630554 L 213.0 154.72556354731285 L 213.5 159.1066402376934 L 214.0 164.02091012874183 L 214.5 169.43479808945716 L 215.0 175.31184650525 L 215.5 181.61295843704016 L 216.0 188.29665566191807 L 216.5 195.31934990372702 L 217.0 202.63562549014034 L 217.5 210.19853161239962 L 218.0 217.9598823152353 L 218.5 225.87056230774846 L 219.0 233.88083666143137 L 219.5 241.94066244907134 L 220.0 250.00000037804665 L 220.5 258.0091244834206 L 221.0 265.918927970083 L 221.5 273.6812233288093 L 222.0 281.2490348981805 L 222.5 288.57688210246226 L 223.0 295.6210516643925 L 223.5 302.33985717082396 L 224.0 308.6938844577926 L 224.5 314.64622137922527 L 225.0 320.1626706294612 L 225.5 325.21194440339127 L 226.0 329.76583979847976 L 226.5 333.7993939895217 L 227.0 337.2910183387988 L 227.5 340.22261074052426 L 228.0 342.579645638226 L 228.5 344.3512412960836 L 229.0 345.53020404935495 L 229.5 346.1130494039444 L 230.0 346.1 L 230.5 345.4949605982646 L 231.0 344.3054703898508 L 231.5 342.54263306930335 L 232.0 340.2210252463831 L 232.5 337.35858390315286 L 233.0 333.97647372885274 L 233.5 330.0989352849881 L 234.0 325.7531150662967 L 234.5 320.9688786291406 L 235.0 315.7786080567958 L 235.5 310.2169851204776 L 236.0 304.32076157529923 L 236.5 298.12851810122413 L 237.0 291.68041346006237 L 237.5 285.0179254904009 L 238.0 278.18358560271656 L 238.5 271.2207084667054 L 239.0 264.1731186018698 L 239.5 257.08487559064577 L 240.0 249.99999963081382 L 240.5 242.96219913069882 L 241.0 236.01460202691294 L 241.5 229.19949247030007 L 242.0 222.55805448161192 L 242.5 216.13012412462206 L 243.0 209.95395168123696 L 243.5 204.0659752411883 L 244.0 198.50060703856155 L 244.5 193.29003377929553 L 245.0 188.46403210850542 L 245.5 184.04980026460748 L 246.0 180.07180685954575 L 246.5 176.5516576115375 L 247.0 173.50798073948062 L 247.5 170.95633160723912 L 248.0 168.90911708220528 L 248.5 167.37553994666007 L 249.0 166.36156357327764 L 249.5 165.86989694847722 L 250.0 165.89999999999998 L 250.5 166.44810905888306 L 251.0 167.50728216169716 L 251.5 169.06746377726733 L 252.0 171.1155684238637 L 252.5 173.6355825287268 L 253.0 176.60868377249489 L 253.5 180.01337705725064 L 254.0 183.82564613913343 L 254.5 188.01911987534334 L 255.0 192.5652519513942 L 255.5 197.4335128781815 L 256.0 202.59159298018062 L 256.5 208.00561503630917 L 257.0 213.64035518396344 L 257.5 219.45947065472893 L 258.0 225.42573287749576 L 258.5 231.50126446130224 L 259.0 237.64777855626568 L 259.5 243.82681908648726 L 260.0 250.00000035376237 L 260.5 256.12924452524544 L 261.0 262.17701554168946 L 261.5 268.1065480153651 L 262.0 273.8820697279474 L 262.5 279.46901638823596 L 263.0 284.834237367209 L 263.5 289.9461911931227 L 264.0 294.7751296617682 L 264.5 299.2932694960257 L 265.0 303.4749505740102 L 265.5 307.2967798357871 L 266.0 310.7377600742444 L 266.5 313.7794029156245 L 267.0 316.4058253987676 L 267.5 318.6038296686362 L 268.0 320.3629654084931 L 268.5 321.67557474547993 L 269.0 322.53681947560847 L 269.5 322.94469056560945 L 270.0 322.90000000000003 L 270.5 322.40635515143015 L 271.0 321.470115960173 L 271.5 320.1003353138801 L 272.0 318.30868312077126 L 272.5 316.1093546676789 L 273.0 313.5189639481973 L 273.5 310.55642273507607 L 274.0 307.24280625438917 L 274.5 303.60120639645186 L 275.0 299.656573469484 L 275.5 295.4355475662344 L 276.0 290.96628067084646 L 276.5 286.2782506828342 L 277.0 281.4020685769044 L 277.5 276.3692799513009 L 278.0 271.212162243191 L 278.5 265.96351890727124 L 279.0 260.65647186318984 L 279.5 255.32425351854826 L 280.0 249.9999996672402 L 280.5 244.71654454776504 L 281.0 239.50621932313743 L 281.5 234.40065521323783 L 282.0 229.43059247220583 L 282.5 224.6256963580547 L 283.0 220.01438118939274 L 283.5 215.6236435254031 L 284.0 211.47890544042224 L 284.5 207.60386879406263 L 285.0 204.0203813222957 L 285.5 200.74831529478558 L 286.0 197.80545939957096 L 286.5 195.20742442847808 L 287.0 192.9675632460099 L 287.5 191.09690543147315 L 288.0 189.6041068893747 L 288.5 188.4954146272666 L 289.0 187.7746468038328 L 289.5 187.44318805371853 L 290.0 187.5 L 290.5 187.94164677087304 L 291.0 188.76233524469274 L 291.5 189.9539696574841 L 292.0 191.50622012001622 L 292.5 193.40660450800704 L 293.0 195.64058310951748 L 293.5 198.19166533854627 L 294.0 201.0415277537142 L 294.5 204.17014255611343 L 295.0 207.55591568126596 L 295.5 211.17583354702361 L 296.0 215.00561747241636 L 296.5 219.01988474218552 L 297.0 223.19231525821095 L 297.5 227.49582269241893 L 298.0 231.90272903615914 L 298.5 236.38494142853136 L 299.0 240.91413014073618 L 299.5 245.46190659522932 L 300.0 250.0000003071629 L 300.5 254.50043365125111 L 301.0 258.9356933795787 L 301.5 263.2788978448483 L 302.0 267.5039589188651 L 302.5 271.5857376374158 L 303.0 275.50019264983507 L 303.5 279.2245206040735 L 304.0 282.73728765566375 L 304.5 286.0185513511881 L 305.0 289.049972203273 L 305.5 291.8149143443138 L 306.0 294.29853471958677 L 306.5 296.48786035666933 L 307.0 298.371853326634 L 307.5 299.9414630928097 L 308.0 301.18966602449564 L 308.5 302.1114919353301 L 309.0 302.70403758855264 L 309.5 302.9664671936164 L 310.0 302.9 L 310.5 302.50788517413025 L 311.0 301.79536422355164 L 311.5 300.76962130841014 L 312.0 299.43972185346956 L 312.5 297.81653994383873 L 313.0 295.91267505391363 L 313.5 293.7423587213679 L 314.0 291.3213518359778 L 314.5 288.66683326632153 L 315.0 285.7972805956599 L 315.5 282.732343781296 L 316.0 279.49271258923443 L 316.5 276.0999786877923 L 317.0 272.5764933098133 L 317.5 268.9452214132021 L 318.0 265.2295932835174 L 318.5 261.4533545303327 L 319.0 257.64041543098404 L 319.5 253.8147005711986 L 320.0 249.99999972204384 L 320.5 246.2198208767246 L 321.0 242.4972463491897 L 321.5 238.854792809419 L 322.0 235.31427609790347 L 322.5 231.89668162444298 L 323.0 228.62204111423023 L 323.5 225.5093164176082 L 324.0 222.57629104917743 L 324.5 219.83947006747354 L 325.0 217.31398884858754 L 325.5 215.01353124627536 L 326.0 212.95025756770377 L 326.5 211.13474272841898 L 327.0 209.57592488285383 L 327.5 208.28106475813854 L 328.0 207.25571584959175 L 328.5 206.50370556650006 L 329.0 206.02712734708115 L 329.5 205.82634369230885 L 330.0 205.90000000000003 L 330.5 206.24504901363736 L 331.0 206.8567856352479 L 331.5 207.72889178866694 L 332.0 208.85349095907554 L 332.5 210.2212119771604 L 333.0 211.8212615619563 L 333.5 213.64150508569566 L 334.0 215.6685549771135 L 334.5 217.88786613688262 L 335.0 220.28383770043456 L 335.5 222.83992044955562 L 336.0 225.53872914499743 L 336.5 228.36215902807174 L 337.0 231.29150571990004 L 337.5 234.30758773274562 L 338.0 237.39087079871564 L 338.5 240.521593217094 L 339.0 243.67989142262195 L 339.5 246.8459249831494 L 340.0 250.00000024612413 L 340.5 253.12269186928924 L 341.0 256.1949614915296 L 341.5 259.19827282491735 L 342.0 262.11470247842476 L 342.5 264.9270458572786 L 343.0 267.6189175192885 L 343.5 270.1748454103914 L 344.0 272.5803584458507 L 344.5 274.822066950701 L 345.0 276.88773552281884 L 345.5 278.7663479340863 L 346.0 280.44816373913613 L 346.5 281.92476631677147 L 347.0 283.18910212597365 L 347.5 284.2355110160588 L 348.0 285.0597474886674 L 348.5 285.65899286747276 L 349.0 286.0318583894197 L 349.5 286.1783792885832 L 350.0 286.1 L 350.5 285.799550665747 L 351.0 285.2812151787547 L 351.5 284.5504910510549 L 352.0 283.61414144204423 L 352.5 282.4801397286186 L 353.0 281.15760704242587 L 353.5 279.6567432397485 L 354.0 277.9887518064332 L 354.5 276.16575923363473 L 355.0 274.20072942975446 L 355.5 272.1073737596731 L 356.0 269.90005732409134 L 356.5 267.59370210938295 L 357.0 265.20368765177176 L 357.5 262.7457498688283 L 358.0 260.23587871620543 L 358.5 257.6902153282314 L 359.0 255.12494929747348 L 359.5 252.55621674074519 L 360.0 249.99999978734877 L 360.5 247.47202810972607 L 361.0 244.98768309729084 L 361.5 242.56190525118524 L 362.0 240.2091053512138 L 362.5 237.9430799165101 L 363.0 235.77693144873172 L 363.5 233.7229939110884 L 364.0 231.79276385845526 L 364.5 229.99683759353928 L 365.0 228.3448546818118 L 365.5 226.84544811396188 L 366.0 225.50620135931484 L 366.5 224.333612507245 L 367.0 223.33306564643664 L 367.5 222.50880958422147 L 368.0 221.86394396042272 L 368.5 221.40041276252163 L 369.0 221.11900520179063 L 369.5 221.01936386363036 L 370.0 221.10000000000002 L 370.5 221.3583157877939 L 371.0 221.79063333459465 L 371.5 222.39223017265425 L 372.0 223.1573809434754 L 372.5 224.07940493920086 L 373.0 225.15071913338681 L 373.5 226.36289630281397 L 374.0 227.7067278139608 L 374.5 229.1722906227659 L 375.0 230.74901801446913 L 375.5 232.42577359176641 L 376.0 234.19092800429559 L 376.5 236.0324379006832 L 377.0 237.93792657604848 L 377.5 239.89476578298564 L 378.0 241.8901581726555 L 378.5 243.9112198346486 L 379.0 245.94506240970205 L 379.5 247.97887425809932 L 380.0 250.00000017852204 L 380.5 251.99601918721137 L 381.0 253.95481988532126 L 381.5 255.86467296323042 L 382.0 257.71430041411674 L 382.5 259.4929410551007 L 383.0 261.1904119825867 L 383.5 262.79716561879184 L 384.0 264.304342038701 L 384.5 265.70381630055374 L 385.0 266.9882405382167 L 385.5 268.15108061021965 L 386.0 269.18664713752196 L 386.5 270.0901208000461 L 387.0 270.85757180036217 L 387.5 271.48597344139745 L 388.0 271.9732098034423 L 388.5 272.3180775437465 L 389.0 272.5202818794417 L 389.5 272.5804268511278 L 390.0 272.5 L 390.5 272.2813516256626 L 391.0 271.92766882455004 L 391.5 271.44294453997577 L 392.0 270.8319418840614 L 392.5 270.1001540190043 L 393.0 269.2537599101586 L 393.5 268.2995762861026 L 394.0 267.2450061611259 L 394.5 266.09798429327634 L 395.0 264.86691996619857 L 395.5 263.56063749537697 L 396.0 262.18831486904526 L 396.5 260.7594209408906 L 397.0 259.2836515957622 L 397.5 257.7708653109031 L 398.0 256.2310185337648 L 398.5 254.6741012933089 L 399.0 253.11007345487914 L 399.5 251.54880201933608 L 400.0 249.99999985527904 L 400.5 248.47316623891717 L 401.0 246.9775295596617 L 401.5 245.52199253087826 L 402.0 244.11508022464702 L 402.5 242.7648912269796 L 403.0 241.47905218587925 L 403.5 240.26467599912854 L 404.0 239.12832386188393 L 404.5 238.07597136627118 L 405.0 237.11297881639945 L 405.5 236.2440658927298 L 406.0 235.47329076977474 L 406.5 234.80403376084087 L 407.0 234.23898553318287 L 407.5 233.78013990670775 L 408.0 233.4287912194335 L 408.5 233.18553621349292 L 409.0 233.05028036672917 L 409.5 233.02224856706505 L 410.0 233.09999999999997 L 410.5 233.2814470939607 L 411.0 233.56387834396514 L 411.5 233.94398481128474 L 412.0 234.41789007564967 L 412.5 234.98118339714244 L 413.0 235.62895582738486 L 413.5 236.35583899401632 L 414.0 237.15604626888535 L 414.5 238.02341601887815 L 415.0 238.95145662893873 L 415.5 239.93339297964525 L 416.0 240.96221405668263 L 416.5 242.03072136673518 L 417.0 243.13157783367348 L 417.5 244.25735685041522 L 418.0 245.4005911654697 L 418.5 246.5538212888535 L 419.0 247.70964310975535 L 419.5 248.86075442793032 L 420.0 250.00000011223258 L 420.5 251.12041561286966 L 421.0 252.21526856873263 L 421.5 253.278098267446 L 422.0 254.30275273343128 L 422.5 255.2834232381586 L 423.0 256.2146760467476 L 423.5 257.09148123599005 L 424.0 257.90923844058636 L 424.5 258.6637994067347 L 425.0 259.3514872550359 L 425.5 259.9691123778291 L 426.0 260.51398491937357 L 426.5 260.9839238106084 L 427.0 261.37726235337504 L 427.5 261.69285037183965 L 428.0 261.9300529712541 L 428.5 262.0887459659899 L 429.0 262.1693080598507 L 429.5 262.1726098818682 L 430.0 262.1 L 430.5 261.953288053259 L 431.0 261.7347251597057 L 431.5 261.44698177333424 L 432.0 261.0931231770873 L 432.5 260.67658281198203 L 433.0 260.201133653536 L 433.5 259.670857856315 L 434.0 259.0901148954266 L 434.5 258.46350844013136 L 435.0 257.79585219942294 L 435.5 257.09213498241843 L 436.0 256.35748521772433 L 436.5 255.59713517560002 L 437.0 254.8163851347673 L 437.5 254.0205677321499 L 438.0 253.2150127287047 L 438.5 252.40501241790693 L 439.0 251.59578789542206 L 439.5 250.79245639911997 L 440.0 249.99999991795863 L 440.5 249.22323525644663 L 441.0 248.46678572852332 L 441.5 247.73505464083956 L 442.0 247.0322007107121 L 442.5 246.36211554857513 L 443.0 245.72840331865552 L 443.5 245.1343626750131 L 444.0 244.58297105309168 L 444.5 244.07687137968009 L 445.0 243.61836124678115 L 445.5 243.20938457746433 L 446.0 242.85152579445423 L 446.5 242.54600648509148 L 447.0 242.29368453951702 L 447.5 242.09505572258348 L 448.0 241.9502576241906 L 448.5 241.85907591757513 L 449.0 241.82095284066463 L 449.5 241.8349978019951 L 450.0 241.89999999999998 L 450.5 242.01444293275563 L 451.0 242.1765206645914 L 451.5 242.38415570639705 L 452.0 242.63501835803203 L 452.5 242.92654735399913 L 453.0 243.25597164752594 L 453.5 243.62033316341785 L 454.0 244.01651034651667 L 454.5 244.4412423303345 L 455.0 244.89115354941265 L 455.5 245.36277861918072 L 456.0 245.85258730853033 L 456.5 246.35700943294313 L 457.0 246.87245949979268 L 457.5 247.39536094231102 L 458.0 247.92216978464842 L 458.5 248.44939758736706 L 459.0 248.97363353056102 L 459.5 249.49156550049446 L 460.0 250.00000005513175 L 460.5 250.49588115411547 L 461.0 250.9763075495427 L 461.5 251.43854874522242 L 462.0 251.8800594438591 L 462.5 252.2984924137288 L 463.0 252.69170971878845 L 463.5 253.05779226870155 L 464.0 253.39504765787848 L 464.5 253.70201627523315 L 465.0 253.97747567884556 L 465.5 254.22044324202943 L 466.0 254.4301770893204 L 466.5 254.60617535257364 L 467.0 254.748173788588 L 467.5 254.85614181039946 L 468.0 254.93027699453663 L 468.5 254.97099813604171 L 469.0 254.97893693187882 L 469.5 254.95492838142235 L 470.0 254.89999999999998 L 470.5 254.81535994791818 L 471.0 254.70238418298956 L 471.5 254.5626027492916 L 472.0 254.39768531868808 L 472.5 254.20942610453753 L 473.0 253.9997282689825 L 473.5 253.7705879462706 L 474.0 253.524078004706 L 474.5 253.26233166908477 L 475.0 252.98752612385846 L 475.5 252.70186621480866 L 476.0 252.4075683637569 L 476.5 252.10684480679578 L 477.0 251.8018882617694 L 477.5 251.49485712529244 L 478.0 251.18786129353478 L 478.5 250.88294869436712 L 479.0 250.58209261132316 L 479.5 250.287179872245 L 480.0 249.9999999675116 L 480.5 249.72223515446262 L 481.0 249.45545159609674 L 481.5 249.20109157341085 L 482.0 248.9604668019187 L 482.5 248.73475287402013 L 483.0 248.5249848400431 L 483.5 248.33205393202672 L 484.0 248.15670542570666 L 484.5 247.9995376277771 L 485.0 247.8610019673878 L 485.5 247.74140416305036 L 486.0 247.64090642872378 L 486.5 247.55953067588172 L 487.0 247.49716266186317 L 487.5 247.4535570288347 L 488.0 247.42834317226004 L 488.5 247.42103187292975 L 489.0 247.431022622365 L 489.5 247.4576115678024 L 490.0 247.5 L 490.5 247.55730330479676 L 491.0 247.6285602977054 L 491.5 247.7127428598297 L 492.0 247.80876579305644 L 492.5 247.91549681278485 L 493.0 248.03176659738568 L 493.5 248.15637881513385 L 494.0 248.28812005148404 L 494.5 248.4257695622501 L 495.0 248.56810878145996 L 495.5 248.71393051636198 L 496.0 248.8620477662105 L 496.5 249.01130210602253 L 497.0 249.16057158142374 L 497.5 249.3087780659493 L 498.0 249.45489403768212 L 498.5 249.59794873784767 L 499.0 249.7370336798979 L 499.5 249.87130748364328 L 500.0 250.00000001509562 L 500.5 250.1224158188005 L 501.0 250.23793683553058 L 501.5 250.346024404218 L 502.0 250.44622055289076 L 502.5 250.5381485890877 L 503.0 250.62151300572688 L 503.5 250.6960987236416 L 504.0 250.76176969694927 L 504.5 250.8184669120379 L 505.0 250.86620581521478 L 505.5 250.90507320793577 L 506.0 250.93522365199178 L 506.5 250.95687543005684 L 507.0 250.97030610957663 L 507.5 250.97584776009086 L 508.0 250.97388187572363 L 508.5 250.9648340557404 L 509.0 250.94916849675806 L 509.5 250.92738235040807 L 510.0 250.9 L 510.5 250.86756730902235 L 511.0 250.8306458931696 L 511.5 250.7898074660093 L 512.0 250.74562830643 L 512.5 250.698683893657 L 513.0 250.64954375292257 L 513.5 250.59876655185423 L 514.0 250.54689548433453 L 514.5 250.4944539750215 L 515.0 250.44194173393603 L 515.5 250.38983118655875 L 516.0 250.338564300771 L 516.5 250.28854982776247 L 517.0 250.2401609697509 L 517.5 250.1937334830542 L 518.0 250.14956422076463 L 518.5 250.1079101150311 L 519.0 250.0689875948035 L 519.5 250.03297243085933 L 520.0 249.99999999606203 L 520.5 249.9701659251136 L 521.0 249.9435271546029 L 521.5 249.92010332093372 L 522.0 249.89987849077622 L 522.5 249.88280319603817 L 523.0 249.86879674302432 L 523.5 249.8577497634541 L 524.0 249.84952697335717 L 524.5 249.84397010457326 L 525.0 249.8409009726504 L 525.5 249.84012464437288 L 526.0 249.8414326679541 L 526.5 249.84460632909628 L 527.0 249.84941989664577 L 527.5 249.85564382244723 L 528.0 249.86304786120812 L 528.5 249.87140407771807 L 529.0 249.8804897105981 L 529.5 249.89008986386906 L 530.0 249.9 L 530.5 249.9100282107018 L 531.0 249.9199972445394 L 531.5 249.9297462734213 L 532.0 249.93913238315668 L 532.5 249.9480317765137 L 533.0 249.95634068053974 L 533.5 249.96397595327946 L 534.0 249.97087538841689 L 534.5 249.97699771973987 L 535.0 249.98232233064982 L 535.5 249.9868486771778 L 536.0 249.99059543609502 L 536.5 249.99359939268862 L 537.0 249.99591408558408 L 537.5 249.99760822860662 L 538.0 249.99876393206134 L 538.5 249.99947474795368 L 539.0 249.99984356554506 L 539.5 249.99998038522864 L 540.0 250.0 " stroke="red" stroke-width="2px" fill="none" /></g></svg>