<svg width = "800" height = "800" viewBox = "0 0 1010 1010" xmlns = "http://www.w3.org/2000/svg" preserveAspectRatio = "xMidYMid meet" zoomAndPan = "magnify" contentScriptType = "text/ecmascript" contentStyleType = "text/css"><g stroke = "black" fill = "white" stroke-width = "2"><path d = "M 5 1005 v -32 h 32 v 32 h 32 h 32 v -32 h -32 v -32 h 32 v -32 h -32 h -32 v 32 h -32 v -32 v -32 h 32 v -32 h -32 v -32 v -32 h 32 v 32 h 32 v -32 h 32 v 32 v 32 h -32 v 32 h 32 h 32 h 32 v -32 h -32 v -32 v -32 h 32 v 32 h 32 v -32 h 32 v 32 v 32 h -32 v 32 h 32 v 32 v 32 h -32 v -32 h -32 h -32 v 32 h 32 v 32 h -32 v 32 h 32 h 32 v -32 h 32 v 32 h 32 h 32 v -32 h -32 v -32 v -32 h 32 v 32 h 32 v -32 h 32 v 32 v 32 h -32 v 32 h 32 h 32 v -32 h 32 v 32 h 32 h 32 v -32 h -32 v -32 h 32 v -32 h -32 h -32 v 32 h -32 v -32 v -32 v -32 h 32 v 32 h 32 h 32 v -32 h -32 v -32 h 32 v -32 h -32 h -32 v 32 h -32 v -32 h -32 h -32 v 32 h 32 v 32 v 32 h -32 v -32 h -32 v 32 h -32 v -32 v -32 h 32 v -32 h -32 v -32 h 32 v -32 h -32 v -32 v -32 h 32 v 32 h 32 v -32 h 32 v 32 v 32 h -32 v 32 h 32 h 32 v -32 h 32 v 32 h 32 h 32 v -32 h -32 v -32 h 32 v -32 h -32 h -32 v 32 h -32 v -32 v -32 v -32 h 32 v 32 h 32 h 32 v -32 h -32 v -32 h 32 v -32 h -32 h -32 v 32 h -32 v -32 h -32 h -32 v 32 h 32 v 32 v 32 h -32 v -32 h -32 v 32 h -32 v -32 v -32 h 32 v -32 h -32 h -32 v 32 h -32 v -32 h -32 h -32 v 32 h 32 v 32 h -32 v 32 h 32 h 32 v -32 h 32 v 32 v 32 h -32 v 32 h 32 v 32 v 32 h -32 v -32 h -32 v 32 h -32 v -32 v -32 h 32 v -32 h -32 h -32 h -32 v 32 h 32 v 32 v 32 h -32 v -32 h -32 v 32 h -32 v -32 v -32 h 32 v -32 h -32 v -32 v -32 h 32 v 32 h 32 h 32 v -32 h -32 v -32 h 32 v -32 h -32 h -32 v 32 h -32 v -32 v -32 h 32 v -32 h -32 v -32 v -32 h 32 v 32 h 32 v -32 h 32 v 32 v 32 h -32 v 32 h 32 h 32 v -32 h 32 v 32 h 32 h 32 v -32 h -32 v -32 h 32 v -32 h -32 h -32 v 32 h -32 v -32 v -32 v -32 h 32 v 32 h 32 h 32 v -32 h -32 v -32 h 32 v -32 h -32 h -32 v 32 h -32 v -32 h -32 h -32 v 32 h 32 v 32 v 32 h -32 v -32 h -32 v 32 h -32 v -32 v -32 h 32 v -32 h -32 v -32 v -32 h 32 v 32 h 32 h 32 v -32 h -32 v -32 h 32 v -32 h -32 h -32 v 32 h -32 v -32 v -32 h 32 v -32 h -32 v -32 v -32 h 32 v 32 h 32 v -32 h 32 v 32 v 32 h -32 v 32 h 32 h 32 h 32 v -32 h -32 v -32 v -32 h 32 v 32 h 32 v -32 h 32 v 32 v 32 h -32 v 32 h 32 v 32 v 32 h -32 v -32 h -32 h -32 v 32 h 32 v 32 h -32 v 32 h 32 h 32 v -32 h 32 v 32 h 32 v -32 h 32 v 32 h 32 h 32 v -32 h -32 v -32 h 32 v -32 h -32 h -32 v 32 h -32 v -32 v -32 h 32 v -32 h -32 v -32 v -32 h 32 v 32 h 32 v -32 h 32 v 32 v 32 h -32 v 32 h 32 h 32 h 32 v -32 h -32 v -32 v -32 h 32 v 32 h 32 v -32 h 32 v 32 v 32 h -32 v 32 h 32 v 32 v 32 h -32 v -32 h -32 h -32 v 32 h 32 v 32 h -32 v 32 h 32 h 32 v -32 h 32 v 32 v 32 h -32 v 32 h 32 v 32 v 32 h -32 v -32 h -32 v 32 h -32 v -32 v -32 h 32 v -32 h -32 h -32 v 32 h -32 v -32 h -32 h -32 v 32 h 32 v 32 h -32 v 32 h 32 h 32 v -32 h 32 v 32 v 32 v 32 h -32 v -32 h -32 h -32 v 32 h 32 v 32 h -32 v 32 h 32 h 32 v -32 h 32 v 32 h 32 h 32 v -32 h -32 v -32 v -32 h 32 v 32 h 32 v -32 h 32 v 32 v 32 h -32 v 32 h 32 h 32 h 32 v -32 h -32 v -32 v -32 h 32 v 32 h 32 v -32 h 32 v 32 v 32 h -32 v 32 h 32 h 32 v -32 h 32 v 32 h 32 h 32 v -32 h -32 v -32 h 32 v -32 h -32 h -32 v 32 h -32 v -32 v -32 v -32 h 32 v 32 h 32 h 32 v -32 h -32 v -32 h 32 v -32 h -32 h -32 v 32 h -32 v -32 h -32 h -32 v 32 h 32 v 32 v 32 h -32 v -32 h -32 v 32 h -32 v -32 v -32 h 32 v -32 h -32 v -32 v -32 h 32 v 32 h 32 h 32 v -32 h -32 v -32 h 32 v -32 h -32 h -32 v 32 h -32 v -32 v -32 h 32 v -32 h -32 v -32 v -32 h 32 v 32 h 32 v -32 h 32 v 32 v 32 h -32 v 32 h 32 h 32 h 32 v -32 h -32 v -32 v -32 h 32 v 32 h 32 v -32 h 32 v 32 v 32 h -32 v 32 h 32 v 32 v 32 h -32 v -32 h -32 h -32 v 32 h 32 v 32 h -32 v 32 h 32 h 32 v -32 h 32 v 32 h 32 v -32 h 32 v 32 h 32 h 32 v -32 h -32 v -32 h 32 v -32 h -32 h -32 v 32 h -32 v -32 v -32 h 32 v -32 h -32 v -32 v -32 h 32 v 32 h 32 v -32 h 32 v 32 v 32 h -32 v 32 h 32 h 32 h 32 v -32 h -32 v -32 v -32 h 32 v 32 h 32 v -32 h 32 v 32 v 32 h -32 v 32 h 32 v 32 v 32 h -32 v -32 h -32 h -32 v 32 h 32 v 32 h -32 v 32 h 32 h 32 v -32 h 32 v 32 v 32 h -32 v 32 h 32 v 32 v 32 h -32 v -32 h -32 v 32 h -32 v -32 v -32 h 32 v -32 h -32 h -32 v 32 h -32 v -32 h -32 h -32 v 32 h 32 v 32 h -32 v 32 h 32 h 32 v -32 h 32 v 32 v 32 v 32 h -32 v -32 h -32 h -32 v 32 h 32 v 32 h -32 v 32 h 32 h 32 v -32 h 32 v 32 h 32 h 32 v -32 h -32 v -32 v -32 h 32 v 32 h 32 v -32 h 32 v 32 v 32 h -32 v 32 h 32 v 32 v 32 h -32 v -32 h -32 h -32 v 32 h 32 v 32 h -32 v 32 h 32 h 32 v -32 h 32 v 32 v 32 h -32 v 32 h 32 v 32 v 32 h -32 v -32 h -32 v 32 h -32 v -32 v -32 h 32 v -32 h -32 h -32 h -32 v 32 h 32 v 32 v 32 h -32 v -32 h -32 v 32 h -32 v -32 v -32 h 32 v -32 h -32 v -32 v -32 h 32 v 32 h 32 h 32 v -32 h -32 v -32 h 32 v -32 h -32 h -32 v 32 h -32 v -32 h -32 h -32 v 32 h 32 v 32 v 32 h -32 v -32 h -32 v 32 h -32 v -32 v -32 h 32 v -32 h -32 h -32 v 32 h -32 v -32 h -32 h -32 v 32 h 32 v 32 h -32 v 32 h 32 h 32 v -32 h 32 v 32 v 32 v 32 h -32 v -32 h -32 h -32 v 32 h 32 v 32 h -32 v 32 h 32 h 32 v -32 h 32 v 32 h 32 h 32 v -32 h -32 v -32 v -32 h 32 v 32 h 32 v -32 h 32 v 32 v 32 h -32 v 32 h 32 v 32 h -32 v 32 h 32 v 32 v 32 h -32 v -32 h -32 v 32 h -32 v -32 v -32 h 32 v -32 h -32 h -32 v 32 h -32 v -32 h -32 h -32 v 32 h 32 v 32 h -32 v 32 h 32 h 32 v -32 h 32 v 32 v 32 v 32 h -32 v -32 h -32 h -32 v 32 h 32 v 32 h -32 v 32 h 32 h 32 v -32 h 32 v 32 h 32 h 32 v -32 h -32 v -32 v -32 h 32 v 32 h 32 v -32 h 32 v 32 v 32 h -32 v 32 h 32 h 32 v -32 h 32 v 32 h 32 h 32 v -32 h -32 v -32 h 32 v -32 h -32 h -32 v 32 h -32 v -32 v -32 h 32 v -32 h -32 v -32 v -32 h 32 v 32 h 32 v -32 h 32 v 32 v 32 h -32 v 32 h 32 h 32 h 32 v -32 h -32 v -32 v -32 h 32 v 32 h 32 v -32 h 32 v 32 v 32 h -32 v 32 h 32 v 32 v 32 h -32 v -32 h -32 h -32 v 32 h 32 v 32 h -32 v 32 h 32 h 32 v -32 h 32 v 32 " stroke-linejoin = "round"></path> <circle cx = "0" cy = "0" r = "6" style = "fill:red"><animateMotion dur = "100s" path = "M 5 1005 v -32 h 32 v 32 h 32 h 32 v -32 h -32 v -32 h 32 v -32 h -32 h -32 v 32 h -32 v -32 v -32 h 32 v -32 h -32 v -32 v -32 h 32 v 32 h 32 v -32 h 32 v 32 v 32 h -32 v 32 h 32 h 32 h 32 v -32 h -32 v -32 v -32 h 32 v 32 h 32 v -32 h 32 v 32 v 32 h -32 v 32 h 32 v 32 v 32 h -32 v -32 h -32 h -32 v 32 h 32 v 32 h -32 v 32 h 32 h 32 v -32 h 32 v 32 h 32 h 32 v -32 h -32 v -32 v -32 h 32 v 32 h 32 v -32 h 32 v 32 v 32 h -32 v 32 h 32 h 32 v -32 h 32 v 32 h 32 h 32 v -32 h -32 v -32 h 32 v -32 h -32 h -32 v 32 h -32 v -32 v -32 v -32 h 32 v 32 h 32 h 32 v -32 h -32 v -32 h 32 v -32 h -32 h -32 v 32 h -32 v -32 h -32 h -32 v 32 h 32 v 32 v 32 h -32 v -32 h -32 v 32 h -32 v -32 v -32 h 32 v -32 h -32 v -32 h 32 v -32 h -32 v -32 v -32 h 32 v 32 h 32 v -32 h 32 v 32 v 32 h -32 v 32 h 32 h 32 v -32 h 32 v 32 h 32 h 32 v -32 h -32 v -32 h 32 v -32 h -32 h -32 v 32 h -32 v -32 v -32 v -32 h 32 v 32 h 32 h 32 v -32 h -32 v -32 h 32 v -32 h -32 h -32 v 32 h -32 v -32 h -32 h -32 v 32 h 32 v 32 v 32 h -32 v -32 h -32 v 32 h -32 v -32 v -32 h 32 v -32 h -32 h -32 v 32 h -32 v -32 h -32 h -32 v 32 h 32 v 32 h -32 v 32 h 32 h 32 v -32 h 32 v 32 v 32 h -32 v 32 h 32 v 32 v 32 h -32 v -32 h -32 v 32 h -32 v -32 v -32 h 32 v -32 h -32 h -32 h -32 v 32 h 32 v 32 v 32 h -32 v -32 h -32 v 32 h -32 v -32 v -32 h 32 v -32 h -32 v -32 v -32 h 32 v 32 h 32 h 32 v -32 h -32 v -32 h 32 v -32 h -32 h -32 v 32 h -32 v -32 v -32 h 32 v -32 h -32 v -32 v -32 h 32 v 32 h 32 v -32 h 32 v 32 v 32 h -32 v 32 h 32 h 32 v -32 h 32 v 32 h 32 h 32 v -32 h -32 v -32 h 32 v -32 h -32 h -32 v 32 h -32 v -32 v -32 v -32 h 32 v 32 h 32 h 32 v -32 h -32 v -32 h 32 v -32 h -32 h -32 v 32 h -32 v -32 h -32 h -32 v 32 h 32 v 32 v 32 h -32 v -32 h -32 v 32 h -32 v -32 v -32 h 32 v -32 h -32 v -32 v -32 h 32 v 32 h 32 h 32 v -32 h -32 v -32 h 32 v -32 h -32 h -32 v 32 h -32 v -32 v -32 h 32 v -32 h -32 v -32 v -32 h 32 v 32 h 32 v -32 h 32 v 32 v 32 h -32 v 32 h 32 h 32 h 32 v -32 h -32 v -32 v -32 h 32 v 32 h 32 v -32 h 32 v 32 v 32 h -32 v 32 h 32 v 32 v 32 h -32 v -32 h -32 h -32 v 32 h 32 v 32 h -32 v 32 h 32 h 32 v -32 h 32 v 32 h 32 v -32 h 32 v 32 h 32 h 32 v -32 h -32 v -32 h 32 v -32 h -32 h -32 v 32 h -32 v -32 v -32 h 32 v -32 h -32 v -32 v -32 h 32 v 32 h 32 v -32 h 32 v 32 v 32 h -32 v 32 h 32 h 32 h 32 v -32 h -32 v -32 v -32 h 32 v 32 h 32 v -32 h 32 v 32 v 32 h -32 v 32 h 32 v 32 v 32 h -32 v -32 h -32 h -32 v 32 h 32 v 32 h -32 v 32 h 32 h 32 v -32 h 32 v 32 v 32 h -32 v 32 h 32 v 32 v 32 h -32 v -32 h -32 v 32 h -32 v -32 v -32 h 32 v -32 h -32 h -32 v 32 h -32 v -32 h -32 h -32 v 32 h 32 v 32 h -32 v 32 h 32 h 32 v -32 h 32 v 32 v 32 v 32 h -32 v -32 h -32 h -32 v 32 h 32 v 32 h -32 v 32 h 32 h 32 v -32 h 32 v 32 h 32 h 32 v -32 h -32 v -32 v -32 h 32 v 32 h 32 v -32 h 32 v 32 v 32 h -32 v 32 h 32 h 32 h 32 v -32 h -32 v -32 v -32 h 32 v 32 h 32 v -32 h 32 v 32 v 32 h -32 v 32 h 32 h 32 v -32 h 32 v 32 h 32 h 32 v -32 h -32 v -32 h 32 v -32 h -32 h -32 v 32 h -32 v -32 v -32 v -32 h 32 v 32 h 32 h 32 v -32 h -32 v -32 h 32 v -32 h -32 h -32 v 32 h -32 v -32 h -32 h -32 v 32 h 32 v 32 v 32 h -32 v -32 h -32 v 32 h -32 v -32 v -32 h 32 v -32 h -32 v -32 v -32 h 32 v 32 h 32 h 32 v -32 h -32 v -32 h 32 v -32 h -32 h -32 v 32 h -32 v -32 v -32 h 32 v -32 h -32 v -32 v -32 h 32 v 32 h 32 v -32 h 32 v 32 v 32 h -32 v 32 h 32 h 32 h 32 v -32 h -32 v -32 v -32 h 32 v 32 h 32 v -32 h 32 v 32 v 32 h -32 v 32 h 32 v 32 v 32 h -32 v -32 h -32 h -32 v 32 h 32 v 32 h -32 v 32 h 32 h 32 v -32 h 32 v 32 h 32 v -32 h 32 v 32 h 32 h 32 v -32 h -32 v -32 h 32 v -32 h -32 h -32 v 32 h -32 v -32 v -32 h 32 v -32 h -32 v -32 v -32 h 32 v 32 h 32 v -32 h 32 v 32 v 32 h -32 v 32 h 32 h 32 h 32 v -32 h -32 v -32 v -32 h 32 v 32 h 32 v -32 h 32 v 32 v 32 h -32 v 32 h 32 v 32 v 32 h -32 v -32 h -32 h -32 v 32 h 32 v 32 h -32 v 32 h 32 h 32 v -32 h 32 v 32 v 32 h -32 v 32 h 32 v 32 v 32 h -32 v -32 h -32 v 32 h -32 v -32 v -32 h 32 v -32 h -32 h -32 v 32 h -32 v -32 h -32 h -32 v 32 h 32 v 32 h -32 v 32 h 32 h 32 v -32 h 32 v 32 v 32 v 32 h -32 v -32 h -32 h -32 v 32 h 32 v 32 h -32 v 32 h 32 h 32 v -32 h 32 v 32 h 32 h 32 v -32 h -32 v -32 v -32 h 32 v 32 h 32 v -32 h 32 v 32 v 32 h -32 v 32 h 32 v 32 v 32 h -32 v -32 h -32 h -32 v 32 h 32 v 32 h -32 v 32 h 32 h 32 v -32 h 32 v 32 v 32 h -32 v 32 h 32 v 32 v 32 h -32 v -32 h -32 v 32 h -32 v -32 v -32 h 32 v -32 h -32 h -32 h -32 v 32 h 32 v 32 v 32 h -32 v -32 h -32 v 32 h -32 v -32 v -32 h 32 v -32 h -32 v -32 v -32 h 32 v 32 h 32 h 32 v -32 h -32 v -32 h 32 v -32 h -32 h -32 v 32 h -32 v -32 h -32 h -32 v 32 h 32 v 32 v 32 h -32 v -32 h -32 v 32 h -32 v -32 v -32 h 32 v -32 h -32 h -32 v 32 h -32 v -32 h -32 h -32 v 32 h 32 v 32 h -32 v 32 h 32 h 32 v -32 h 32 v 32 v 32 v 32 h -32 v -32 h -32 h -32 v 32 h 32 v 32 h -32 v 32 h 32 h 32 v -32 h 32 v 32 h 32 h 32 v -32 h -32 v -32 v -32 h 32 v 32 h 32 v -32 h 32 v 32 v 32 h -32 v 32 h 32 v 32 h -32 v 32 h 32 v 32 v 32 h -32 v -32 h -32 v 32 h -32 v -32 v -32 h 32 v -32 h -32 h -32 v 32 h -32 v -32 h -32 h -32 v 32 h 32 v 32 h -32 v 32 h 32 h 32 v -32 h 32 v 32 v 32 v 32 h -32 v -32 h -32 h -32 v 32 h 32 v 32 h -32 v 32 h 32 h 32 v -32 h 32 v 32 h 32 h 32 v -32 h -32 v -32 v -32 h 32 v 32 h 32 v -32 h 32 v 32 v 32 h -32 v 32 h 32 h 32 v -32 h 32 v 32 h 32 h 32 v -32 h -32 v -32 h 32 v -32 h -32 h -32 v 32 h -32 v -32 v -32 h 32 v -32 h -32 v -32 v -32 h 32 v 32 h 32 v -32 h 32 v 32 v 32 h -32 v 32 h 32 h 32 h 32 v -32 h -32 v -32 v -32 h 32 v 32 h 32 v -32 h 32 v 32 v 32 h -32 v 32 h 32 v 32 v 32 h -32 v -32 h -32 h -32 v 32 h 32 v 32 h -32 v 32 h 32 h 32 v -32 h 32 v 32 " rotate = "auto" repeatCount = "indefinite" xmlns:xlink = "http://www.w3.org/1999/xlink" xlink:type = "simple" xlink:show = "embed" xlink:actuate = "onLoad" restart = "always" fill = "remove" calcMode = "paced" additive = "replace" accumulate = "none"></animateMotion></circle></g></svg>